<svg width="462" height="495" viewBox="0 0 462 495" fill="none" xmlns="http://www.w3.org/2000/svg">
<path opacity="0.7" d="M487.62 465.594C438.844 491.161 372.29 506.511 319.99 481.845C240.988 444.606 188.534 488.168 81.0659 383.492C65.3083 368.287 51.2532 351.411 39.1493 333.163C33.2475 324.215 27.9266 314.898 23.2195 305.268C-18.3203 220.429 -0.260394 131.805 51.3632 68.4829C119.435 -14.8874 209.365 -3.00213 265.655 7.18182C321.944 17.3658 443.175 -29.9864 549.57 72.1262C565.878 87.6526 580.346 105.004 592.687 123.838C620.63 166.959 638.411 222.683 631.264 274.562C630.756 278.451 630.102 282.335 629.301 286.214C614.154 361.886 554.125 430.742 487.62 465.594Z" fill="#4B6B7D"/>
</svg>
