<svg width="443" height="452" viewBox="0 0 443 452" fill="none" xmlns="http://www.w3.org/2000/svg">
<path opacity="0.7" d="M514.904 595.847C453.813 615.785 374.251 620.513 318.868 581.967C235.204 523.765 166.384 563.694 63.0727 422.366C47.8967 401.808 35.0046 379.659 24.6241 356.31C19.5723 344.868 15.2608 333.113 11.7163 321.118C-19.5919 215.428 18.4121 116.965 90.1177 54.1387C184.645 -28.5589 285.81 2.59418 348.599 25.2518C411.387 47.9094 560.08 16.9861 662.655 155.156C678.401 176.191 691.676 198.967 702.216 223.036C725.986 278.083 735.616 345.656 717.31 403.959C715.97 408.336 714.462 412.678 712.786 416.985C680.651 501.11 598.199 568.671 514.904 595.847Z" fill="white"/>
</svg>
