<svg width="614" height="611" viewBox="0 0 614 611" fill="none" xmlns="http://www.w3.org/2000/svg">
<path opacity="0.7" d="M401.904 595.847C340.813 615.785 261.251 620.513 205.868 581.967C122.204 523.765 53.384 563.694 -49.9273 422.366C-65.1033 401.808 -77.9954 379.659 -88.3759 356.31C-93.4277 344.868 -97.7392 333.113 -101.284 321.118C-132.592 215.428 -94.5879 116.965 -22.8823 54.1387C71.6449 -28.5589 172.81 2.59418 235.599 25.2518C298.387 47.9094 447.08 16.9861 549.655 155.156C565.401 176.191 578.676 198.967 589.216 223.036C612.986 278.083 622.616 345.656 604.31 403.959C602.97 408.336 601.462 412.678 599.786 416.985C567.651 501.11 485.199 568.671 401.904 595.847Z" fill="white"/>
</svg>
