<svg width="890" height="917" viewBox="0 0 890 917" fill="none" xmlns="http://www.w3.org/2000/svg">
<path opacity="0.7" d="M889.18 542.721C887.133 456.931 849.148 352.456 753.132 294.019C608.131 205.732 634.874 103.123 340.314 17.8258C297.382 5.22676 253.119 -3.87618 208.308 -9.32222C186.369 -11.9456 164.337 -13.5051 142.347 -13.9911C-51.4558 -18.3719 -193.298 64.3881 -256.457 178.548C-339.511 328.999 -229.407 449.149 -155.546 522.586C-81.685 596.023 -47.4253 798.82 241.458 884.243C285.512 897.417 331.038 906.8 377.138 912.206C482.378 924.138 600.3 913.51 686.71 869.932C693.215 866.704 699.567 863.272 705.764 859.635C827.146 789.358 891.985 659.688 889.18 542.721Z" fill="#4B6B7D"/>
</svg>
