<?xml version="1.0" encoding="UTF-8"?>
<svg xmlns="http://www.w3.org/2000/svg" xmlns:xlink="http://www.w3.org/1999/xlink" width="100px" height="100px" viewBox="0 0 100 100" version="1.1">
<g id="surface1">
<path style=" stroke:none;fill-rule:nonzero;fill:#1B3B6F;fill-opacity:1;" d="M 43.78125 0.519531 C 24.210938 3.078125 8.113281 16.640625 2.308594 35.460938 C -0.519531 44.632812 -0.519531 55.40625 2.308594 64.578125 C 8.152344 83.527344 24.335938 97.066406 44.09375 99.542969 C 50.875 100.375 58.882812 99.605469 65.410156 97.441406 C 77.539062 93.449219 87.144531 85.585938 93.550781 74.398438 C 100.230469 62.730469 101.707031 47.566406 97.441406 34.628906 C 91.304688 15.972656 75.4375 2.933594 55.949219 0.5 C 53.035156 0.144531 46.652344 0.144531 43.78125 0.519531 Z M 38.683594 38.726562 C 41.367188 39.039062 42.84375 40.058594 43.863281 42.222656 C 44.300781 43.15625 44.382812 43.675781 44.382812 45.152344 C 44.382812 46.671875 44.300781 47.109375 43.824219 48.105469 C 43.488281 48.753906 42.824219 49.644531 42.304688 50.105469 C 40.765625 51.457031 39.996094 51.644531 35.316406 51.746094 C 32.425781 51.808594 31.199219 51.769531 31.199219 51.601562 C 31.199219 51.476562 31.46875 51.371094 31.800781 51.371094 C 32.902344 51.371094 32.964844 51.144531 33.027344 45.652344 C 33.070312 42.886719 33.007812 40.285156 32.925781 39.914062 C 32.757812 39.332031 32.589844 39.164062 31.96875 39.019531 C 31.550781 38.914062 31.199219 38.726562 31.199219 38.644531 C 31.199219 38.414062 36.5625 38.476562 38.683594 38.726562 Z M 9.734375 44.65625 L 8.234375 46.171875 L 17.117188 46.171875 C 24.875 46.171875 26 46.214844 26 46.484375 C 26 46.753906 24.875 46.796875 17.222656 46.796875 L 8.445312 46.796875 L 9.734375 48.105469 C 10.753906 49.148438 10.980469 49.460938 10.773438 49.667969 C 10.566406 49.875 10.171875 49.585938 8.902344 48.316406 C 8.007812 47.421875 7.28125 46.566406 7.28125 46.382812 C 7.28125 46.214844 8.050781 45.300781 8.984375 44.363281 C 10.335938 43.011719 10.753906 42.699219 10.960938 42.886719 C 11.210938 43.074219 10.960938 43.40625 9.734375 44.65625 Z M 48.460938 43.46875 L 48.460938 44.320312 L 49.25 43.46875 C 49.832031 42.886719 50.230469 42.636719 50.644531 42.636719 C 51.683594 42.636719 52.371094 43.636719 51.746094 44.257812 C 51.394531 44.613281 50.832031 44.570312 50.1875 44.15625 C 49.644531 43.800781 49.644531 43.800781 49.0625 44.507812 C 48.460938 45.214844 48.460938 45.257812 48.460938 47.835938 C 48.460938 50.707031 48.667969 51.371094 49.625 51.371094 C 49.894531 51.371094 50.125 51.457031 50.125 51.582031 C 50.125 51.707031 49.1875 51.789062 47.734375 51.789062 C 46.277344 51.789062 45.339844 51.707031 45.339844 51.582031 C 45.339844 51.457031 45.550781 51.371094 45.820312 51.371094 C 46.714844 51.371094 46.796875 51.0625 46.796875 47.609375 C 46.796875 44.113281 46.671875 43.699219 45.734375 43.988281 C 44.800781 44.300781 45.488281 43.613281 46.589844 43.15625 C 48.273438 42.449219 48.460938 42.472656 48.460938 43.46875 Z M 57.777344 42.867188 C 58.921875 43.261719 59.089844 43.78125 59.152344 47.234375 C 59.214844 50.707031 59.359375 51.125 60.210938 50.332031 C 60.628906 49.9375 60.730469 49.917969 60.730469 50.167969 C 60.730469 50.625 59.566406 51.769531 58.964844 51.914062 C 58.339844 52.078125 57.613281 51.664062 57.613281 51.164062 C 57.613281 50.625 57.445312 50.644531 56.511719 51.289062 C 55.46875 51.996094 54.511719 52.121094 53.703125 51.707031 C 52.890625 51.289062 52.621094 50.789062 52.621094 49.769531 C 52.621094 48.378906 53.433594 47.546875 55.742188 46.566406 C 56.59375 46.214844 57.382812 45.859375 57.464844 45.777344 C 57.714844 45.527344 57.257812 43.824219 56.863281 43.53125 C 55.863281 42.804688 54.492188 43.550781 54.492188 44.820312 C 54.492188 45.425781 54.410156 45.570312 53.953125 45.675781 C 53.285156 45.839844 52.972656 45.527344 52.972656 44.71875 C 52.972656 43.988281 53.496094 43.324219 54.386719 42.929688 C 55.15625 42.59375 56.90625 42.554688 57.777344 42.867188 Z M 67.324219 42.949219 C 67.71875 43.117188 68.574219 43.261719 69.175781 43.261719 C 70.152344 43.261719 70.300781 43.304688 70.300781 43.675781 C 70.300781 44.03125 70.152344 44.09375 69.46875 44.09375 C 68.675781 44.09375 68.65625 44.113281 68.84375 44.632812 C 69.175781 45.464844 69.09375 46.628906 68.636719 47.359375 C 67.992188 48.441406 67.285156 48.773438 65.558594 48.816406 C 64.351562 48.835938 63.957031 48.9375 63.726562 49.230469 C 63.582031 49.4375 63.4375 49.667969 63.4375 49.730469 C 63.414062 50.144531 64.269531 50.355469 66.265625 50.457031 C 68.78125 50.601562 69.59375 50.894531 70.070312 51.871094 C 70.714844 53.246094 69.28125 55.179688 67.117188 55.804688 C 65.640625 56.21875 63.644531 56.09375 62.5625 55.492188 C 61.066406 54.660156 61.003906 53.972656 62.292969 52.539062 C 63.019531 51.746094 63.019531 51.726562 62.605469 51.433594 C 61.980469 51 62.085938 50.230469 62.894531 49.355469 L 63.601562 48.566406 L 62.914062 47.898438 C 61.375 46.382812 61.980469 43.699219 64.058594 42.867188 C 64.851562 42.554688 66.472656 42.59375 67.324219 42.949219 Z M 90.765625 44.925781 C 91.285156 45.820312 91.722656 46.628906 91.722656 46.691406 C 91.722656 46.753906 91.285156 47.546875 90.765625 48.460938 C 90.121094 49.605469 89.726562 50.0625 89.515625 49.980469 C 89.289062 49.894531 89.351562 49.644531 89.871094 48.691406 C 90.246094 48.046875 90.640625 47.398438 90.746094 47.253906 C 90.890625 47.066406 89.207031 47.003906 82.382812 47.003906 C 74.917969 47.003906 73.835938 46.964844 73.835938 46.691406 C 73.835938 46.421875 74.917969 46.382812 82.34375 46.382812 L 90.871094 46.382812 L 90.039062 44.988281 C 89.144531 43.425781 89.082031 43.261719 89.515625 43.261719 C 89.683594 43.261719 90.246094 44.011719 90.765625 44.925781 Z M 90.765625 44.925781 "/>
<path style=" stroke:none;fill-rule:nonzero;fill:#1B3B6F;fill-opacity:1;" d="M 35.523438 39.453125 L 34.941406 39.539062 L 34.941406 45.132812 C 34.941406 48.316406 35.023438 50.769531 35.128906 50.832031 C 35.234375 50.914062 35.835938 51 36.4375 51.039062 C 39.082031 51.246094 41.203125 49.707031 41.910156 47.128906 C 42.761719 44.011719 41.597656 40.996094 39.121094 39.808594 C 38.375 39.433594 36.585938 39.269531 35.523438 39.453125 Z M 35.523438 39.453125 "/>
<path style=" stroke:none;fill-rule:nonzero;fill:#1B3B6F;fill-opacity:1;" d="M 56.050781 47.128906 C 54.761719 47.753906 54.285156 48.316406 54.285156 49.167969 C 54.285156 50.6875 55.699219 51.269531 56.925781 50.25 C 57.488281 49.769531 57.527344 49.644531 57.488281 48.316406 C 57.445312 46.589844 57.445312 46.589844 57.257812 46.609375 C 57.15625 46.609375 56.636719 46.839844 56.050781 47.128906 Z M 56.050781 47.128906 "/>
<path style=" stroke:none;fill-rule:nonzero;fill:#1B3B6F;fill-opacity:1;" d="M 64.371094 43.574219 C 63.394531 44.53125 63.664062 47.398438 64.808594 48.148438 C 66.410156 49.1875 67.824219 47.296875 67.179688 44.945312 C 66.722656 43.199219 65.371094 42.554688 64.371094 43.574219 Z M 64.371094 43.574219 "/>
<path style=" stroke:none;fill-rule:nonzero;fill:#1B3B6F;fill-opacity:1;" d="M 63.226562 52.371094 C 62.144531 53.742188 63.0625 54.699219 65.640625 54.867188 C 67.410156 54.972656 68.886719 54.449219 69.300781 53.554688 C 69.820312 52.414062 69.15625 52.101562 65.660156 51.933594 C 63.683594 51.851562 63.625 51.871094 63.226562 52.371094 Z M 63.226562 52.371094 "/>
</g>
</svg>
