<?xml version="1.0" encoding="UTF-8"?>
<svg id="freepik_stories-hand-coding" data-name="freepik stories-hand-coding" xmlns="http://www.w3.org/2000/svg" viewBox="0 0 472.66 445.88">
  <defs>
    <style>
      .cls-1 {
        fill: #fff;
      }

      .cls-2, .cls-3 {
        fill: #3a6481;
      }

      .cls-3 {
        isolation: isolate;
        opacity: .7;
      }

      .cls-4 {
        fill: #263238;
      }

      .cls-5 {
        fill: #2c5d75;
      }
    </style>
  </defs>
  <g id="freepik--background-simple--inject-107">
    <path id="elkffzw6q38a" class="cls-2" d="M457.02,220.22c-4.94,41.8-24,90.4-62.14,112.73-57.6,33.74-52.78,85.63-165.2,108.2-16.39,3.37-33.11,4.95-49.84,4.7-8.19-.14-16.36-.81-24.47-2-71.44-10.44-119.53-60.1-137.17-120-23.18-78.93,23.15-130.51,53.88-161.61S125.3,34.24,235.64,11.24c16.83-3.58,34.02-5.21,51.23-4.86,39.26,1,82.08,13.85,111.71,40.76,2.23,2,4.4,4.09,6.5,6.27,41.18,42.23,58.68,109.82,51.94,166.81Z"/>
    <g id="elp1vj2c2a4ag">
      <path id="elp0bdzqn742" class="cls-3" d="M457.02,220.22c-4.94,41.8-24,90.4-62.14,112.73-57.6,33.74-52.78,85.63-165.2,108.2-16.39,3.37-33.11,4.95-49.84,4.7-8.19-.14-16.36-.81-24.47-2-71.44-10.44-119.53-60.1-137.17-120-23.18-78.93,23.15-130.51,53.88-161.61S125.3,34.24,235.64,11.24c16.83-3.58,34.02-5.21,51.23-4.86,39.26,1,82.08,13.85,111.71,40.76,2.23,2,4.4,4.09,6.5,6.27,41.18,42.23,58.68,109.82,51.94,166.81Z"/>
    </g>
  </g>
  <g id="freepik--Table--inject-107">
    <path id="eln7xttl3rtlj" class="cls-4" d="M465.02,265.35h-15.21c-.28,0-.5-.22-.5-.5s.22-.5,.5-.5h15.21c.28,0,.5,.22,.5,.5,0,.27-.23,.49-.5,.5Z"/>
    <path id="el506b0ard77e" class="cls-4" d="M443.02,265.35H8.62c-.28,0-.5-.22-.5-.5s.22-.5,.5-.5H443.02c.28,0,.5,.22,.5,.5,0,.27-.23,.49-.5,.5Z"/>
  </g>
  <g id="freepik--Gears--inject-107">
    <path id="eljsa05xmb1bj" class="cls-4" d="M396.39,178.63h-8.7l-1.08-7.6c-3.58-.72-6.98-2.14-10-4.18l-6.12,4.59-6.15-6.15,4.61-6.14c-2.02-3.03-3.42-6.43-4.12-10l-7.57-1.09v-8.69l7.6-1.09c.72-3.58,2.14-6.98,4.18-10l-4.59-6.12,6.15-6.15,6.14,4.61c3.03-2.02,6.43-3.42,10-4.12l1.09-7.57h8.69l1.09,7.6c3.58,.72,6.98,2.14,10,4.18l6.12-4.59,6.15,6.15-4.61,6.14c2.03,3.02,3.43,6.42,4.12,10l7.57,1.08v8.7l-7.6,1.09c-.72,3.58-2.14,6.98-4.18,10l4.59,6.12-6.15,6.15-6.12-4.63c-3.03,2.02-6.43,3.42-10,4.12l-1.11,7.59Zm-7.83-1h7l1.06-7.42,.36-.07c3.68-.67,7.17-2.11,10.25-4.22l.3-.21,6,4.52,4.92-4.93-4.5-6,.21-.29c2.14-3.08,3.6-6.58,4.29-10.27l.06-.35,7.51-1.07v-7l-7.42-1.06-.07-.36c-.66-3.69-2.1-7.2-4.22-10.29l-.2-.3,4.51-6-4.92-4.92-6,4.5-.3-.21c-3.08-2.14-6.58-3.6-10.27-4.29l-.35-.06-1.11-7.41h-7l-1.06,7.42-.35,.07c-3.69,.66-7.2,2.1-10.3,4.22l-.3,.2-6-4.51-4.92,4.92,4.5,6-.2,.3c-2.14,3.08-3.6,6.58-4.29,10.27l-.07,.35-7.45,1.07v7l7.42,1.06,.07,.35c.69,3.69,2.15,7.2,4.3,10.28l.2,.3-4.52,6,4.93,4.92,6-4.5,.29,.2c3.08,2.15,6.58,3.61,10.27,4.29l.35,.07,1.02,7.43Zm3.56-14.39c-10.76,0-19.48-8.72-19.48-19.48s8.72-19.48,19.48-19.48c10.76,0,19.48,8.72,19.48,19.48-.01,10.75-8.73,19.47-19.48,19.48Zm0-37.95c-10.21,0-18.48,8.27-18.48,18.48s8.27,18.48,18.48,18.48c10.21,0,18.48-8.27,18.48-18.48h0c-.01-10.21-8.28-18.47-18.48-18.48h0Z"/>
    <path id="el3pp2yx2fe6o" class="cls-4" d="M426.78,216.69h-6.46l-.78-5.46c-2.5-.52-4.88-1.52-7-2.94l-4.39,3.3-4.57-4.57,3.31-4.42c-1.41-2.12-2.39-4.5-2.89-7l-5.44-.77v-6.51l5.46-.78c.51-2.5,1.51-4.88,2.93-7l-3.29-4.4,4.57-4.57,4.41,3.31c2.13-1.41,4.5-2.39,7-2.89l.78-5.44h6.46l.78,5.46c2.5,.52,4.88,1.51,7,2.93l4.4-3.29,4.57,4.57-3.31,4.41c1.41,2.12,2.39,4.5,2.89,7l5.44,.78v6.51l-5.46,.78c-.52,2.5-1.51,4.88-2.93,7l3.29,4.39-4.53,4.58-4.41-3.31c-2.13,1.4-4.5,2.38-7,2.89l-.83,5.44Zm-5.6-1h4.74l.75-5.29,.36-.07c2.62-.47,5.11-1.5,7.3-3l.3-.2,4.29,3.22,3.34-3.35-3.2-4.27,.2-.3c1.52-2.19,2.56-4.67,3.05-7.29l.06-.35,5.31-.76v-4.73l-5.29-.76-.06-.35c-.47-2.62-1.5-5.11-3-7.31l-.2-.3,3.21-4.28-3.32-3.38-4.28,3.2-.3-.2c-2.18-1.52-4.67-2.56-7.28-3.05l-.36-.06-.75-5.31h-4.74l-.75,5.29-.36,.07c-2.62,.46-5.11,1.49-7.3,3l-.3,.2-4.31-3.14-3.34,3.35,3.2,4.27-.2,.3c-1.52,2.19-2.56,4.67-3.05,7.29l-.06,.35-5.31,.76v4.68l5.29,.76,.06,.35c.47,2.62,1.5,5.11,3,7.31l.2,.29-3.21,4.29,3.34,3.35,4.28-3.21,.29,.21c2.19,1.5,4.68,2.52,7.29,3l.36,.07,.75,5.35Zm2.43-10c-7.77,0-14.07-6.3-14.07-14.07,0-7.77,6.3-14.07,14.07-14.07s14.07,6.3,14.07,14.07c-.02,7.76-6.31,14.05-14.07,14.06h0Zm0-27.13c-7.22,0-13.07,5.85-13.07,13.07,0,7.22,5.85,13.07,13.07,13.07s13.07-5.85,13.07-13.07c0-7.22-5.85-13.07-13.07-13.08h0Z"/>
    <path id="ela09vscmno2c" class="cls-4" d="M87.83,226.11h-8l-1-6.94c-3.25-.65-6.34-1.95-9.09-3.8l-5.59,4.19-5.66-5.64,4.2-5.61c-1.83-2.76-3.1-5.86-3.74-9.11l-6.91-1v-8l6.94-1c.66-3.25,1.95-6.33,3.8-9.08l-4.19-5.59,5.66-5.67,5.61,4.21c2.77-1.85,5.89-3.13,9.16-3.76l1-6.92h8l1,6.95c3.25,.65,6.33,1.94,9.08,3.79l5.59-4.19,5.67,5.67-4.21,5.61c1.84,2.76,3.11,5.86,3.74,9.11l6.92,1v8l-7,1c-.65,3.25-1.94,6.34-3.79,9.09l4.19,5.59-5.67,5.66-5.61-4.2c-2.76,1.84-5.86,3.11-9.11,3.74l-.99,6.9Zm-7.14-1h6.33l1-6.77,.36-.06c3.36-.6,6.56-1.92,9.38-3.85l.29-.2,5.49,4.11,4.44-4.43-4.1-5.47,.2-.3c1.95-2.81,3.29-6,3.91-9.36l.07-.35,6.79-1v-6.27l-6.77-1-.07-.36c-.6-3.36-1.92-6.56-3.85-9.38l-.2-.29,4.12-5.49-4.44-4.44-5.47,4.1-.3-.2c-2.81-1.95-5.99-3.28-9.35-3.91l-.35-.06-1-6.8h-6.34l-1,6.77-.35,.07c-3.36,.6-6.56,1.92-9.38,3.85l-.3,.2-5.49-4.12-4.43,4.44,4.1,5.47-.21,.3c-1.95,2.8-3.28,5.99-3.9,9.35l-.07,.35-6.79,1v6.28l6.77,1,.06,.35c.61,3.36,1.92,6.56,3.85,9.38l.2,.3-4.11,5.49,4.44,4.43,5.47-4.1,.29,.21c2.81,1.95,6,3.28,9.36,3.9l.35,.07,1,6.79Zm3.21-13c-9.84,0-17.82-7.97-17.83-17.81,0-9.84,7.97-17.82,17.81-17.83s17.82,7.97,17.83,17.81h0c-.03,9.83-7.99,17.77-17.81,17.79v.04Zm0-34.63c-9.29,0-16.82,7.52-16.83,16.81s7.52,16.82,16.81,16.83,16.82-7.52,16.83-16.81c0,0,0-.01,0-.02,.01-9.29-7.52-16.84-16.81-16.85h0v.04Z"/>
    <path id="elxhfxdax4dk" class="cls-4" d="M56.57,173.58h-5.23l-.61-4.27c-1.91-.4-3.73-1.16-5.36-2.24l-3.44,2.58-3.69-3.73,2.58-3.45c-1.07-1.63-1.81-3.46-2.2-5.37l-4.25-.61v-5.23l4.26-.61c.41-1.91,1.16-3.73,2.24-5.36l-2.57-3.37,3.69-3.7,3.45,2.59c1.64-1.07,3.46-1.82,5.38-2.21l.61-4.25h5.22l.61,4.27c1.91,.4,3.73,1.16,5.36,2.24l3.4-2.61,3.69,3.7-2.58,3.45c1.07,1.64,1.82,3.46,2.21,5.37l4.25,.61v5.22l-4.27,.61c-.4,1.91-1.16,3.74-2.24,5.37l2.57,3.43-3.63,3.7-3.45-2.59c-1.64,1.07-3.46,1.82-5.38,2.21l-.62,4.25Zm-4.36-1h3.49l.58-4.1,.36-.07c2.02-.36,3.94-1.15,5.64-2.31l.3-.21,3.32,2.5,2.47-2.47-2.48-3.31,.2-.3c1.17-1.69,1.97-3.61,2.35-5.63l.07-.35,4.12-.59v-3.49l-4.11-.59-.06-.35c-.36-2.03-1.16-3.95-2.32-5.65l-.2-.3,2.49-3.32-2.47-2.47-3.31,2.49-.3-.21c-1.69-1.18-3.61-1.98-5.63-2.35l-.35-.07-.59-4.11h-3.49l-.58,4.1-.36,.07c-2.02,.36-3.94,1.15-5.64,2.31l-.3,.2-3.32-2.49-2.47,2.47,2.48,3.31-.2,.3c-1.17,1.69-1.97,3.61-2.35,5.63l-.07,.35-4.11,.59v3.49l4.1,.59,.06,.35c.36,2.03,1.16,3.95,2.32,5.65l.2,.29-2.49,3.33,2.46,2.47,3.31-2.49,.3,.21c1.69,1.18,3.61,1.98,5.63,2.35l.35,.06,.6,4.12Zm1.81-7.57c-6.11,.03-11.09-4.89-11.12-11s4.89-11.09,11-11.12c6.11-.03,11.09,4.89,11.12,11,0,0,0,.02,0,.03,0,6.09-4.91,11.05-11,11.09Zm0-21.09c-5.56-.03-10.09,4.44-10.12,10s4.44,10.09,10,10.12c5.56,.03,10.09-4.44,10.12-10,0-.04,0-.08,0-.12-.04-5.5-4.5-9.96-10-10Z"/>
    <path id="eletnx80uav2s" class="cls-4" d="M232.35,102.04h-6.85l-.83-5.83c-2.69-.55-5.26-1.62-7.54-3.15l-4.69,3.52-4.85-4.85,3.54-4.71c-1.52-2.29-2.58-4.85-3.11-7.55l-5.8-.83v-6.86l5.8-.86c.55-2.69,1.61-5.25,3.14-7.54l-3.51-4.69,4.87-4.77,4.71,3.53c2.29-1.52,4.86-2.57,7.56-3.1l.83-5.81h6.85l.83,5.83c2.7,.55,5.26,1.62,7.54,3.15l4.69-3.6,4.85,4.84-3.53,4.71c1.51,2.3,2.57,4.86,3.1,7.56l5.8,.83v6.85l-5.83,.84c-.55,2.69-1.61,5.25-3.14,7.53l3.52,4.7-4.85,4.84-4.71-3.53c-2.29,1.52-4.86,2.57-7.56,3.1l-.83,5.85Zm-6-1h5.11l.81-5.66,.36-.06c2.81-.51,5.47-1.61,7.82-3.22l.3-.2,4.59,3.44,3.68-3.62-3.42-4.57,.2-.3c1.63-2.34,2.74-5,3.26-7.8l.07-.35,5.67-.81v-5.12l-5.7-.85-.07-.35c-.5-2.81-1.6-5.48-3.21-7.83l-.2-.3,3.4-4.52-3.62-3.62-4.57,3.43-.3-.21c-2.34-1.62-5-2.73-7.8-3.26l-.36-.06-.81-5.68h-5.11l-.81,5.66-.36,.06c-2.8,.51-5.47,1.6-7.82,3.21l-.3,.21-4.59-3.44-3.55,3.59,3.42,4.58-.2,.29c-1.62,2.34-2.74,5.01-3.26,7.81l-.07,.35-5.67,.81v5.12l5.65,.81,.07,.35c.5,2.81,1.6,5.48,3.21,7.83l.2,.29-3.44,4.59,3.62,3.62,4.57-3.43,.3,.2c2.34,1.63,5,2.74,7.8,3.26l.36,.07,.77,5.68Zm2.67-10.77c-8.28,0-15-6.72-15-15s6.72-15,15-15,15,6.72,15,15h0c0,8.28-6.72,15-15,15Zm0-29c-7.73,0-14,6.27-14,14s6.27,14,14,14,14-6.27,14-14c0-7.73-6.26-14-13.99-14.01h-.01Z"/>
  </g>
  <g id="freepik--Device--inject-107">
    <path id="el08m3anrf6if5" class="cls-4" d="M100.93,71.92H376.02c4.42,0,8,3.58,8,8v191.41H93.02V79.92c0-4.38,3.53-7.95,7.91-8Z"/>
    <path id="elsfgjchmi15i" class="cls-4" d="M384.02,271.83H93.02c-.28,0-.5-.22-.5-.5V79.92c0-4.68,3.79-8.47,8.47-8.47H376.02c4.68,0,8.47,3.79,8.48,8.47v191.41c0,.27-.21,.49-.48,.5Zm-290.54-1H383.48V79.92c.01-4.13-3.33-7.49-7.46-7.5H100.93c-4.13,0-7.48,3.36-7.47,7.49,0,0,0,0,0,.01l.02,190.91Z"/>
    <polygon id="el775w0ra853l" class="cls-1" points="427.65 359.49 49.3 359.49 92.96 271.33 384 271.33 427.65 359.49"/>
    <path id="el2pi8b7109u6" class="cls-4" d="M427.65,359.99H49.3c-.17,0-.34-.09-.43-.24-.09-.15-.09-.33,0-.48l43.66-88.16c.08-.17,.26-.28,.45-.28H384.02c.19,0,.36,.11,.44,.28l43.66,88.16c.09,.15,.09,.33,0,.48-.1,.16-.28,.25-.47,.24Zm-377.55-1H426.85l-43.16-87.16H93.27l-43.17,87.16Z"/>
    <rect id="elze4ulzg446r" class="cls-5" x="110.58" y="87.71" width="255.78" height="167.84"/>
    <path id="elpddrzmoquqn" class="cls-4" d="M366.37,256.04H110.58c-.28,0-.5-.22-.5-.5V87.71c0-.28,.22-.5,.5-.5h255.79c.28,0,.5,.22,.5,.5V255.54c0,.28-.22,.5-.5,.5Zm-255.29-1h254.79V88.21H111.08V255.04Z"/>
    <polygon id="el2yjg04r7cog" class="cls-4" points="226.33 299.24 226.84 288.5 211.46 288.5 210.44 299.24 226.33 299.24"/>
    <path id="elmesa5eh6a7" class="cls-1" d="M226.34,299.74h-15.9c-.14,0-.27-.06-.37-.16-.09-.11-.14-.25-.12-.39l1-10.74c.03-.26,.24-.45,.5-.45h15.38c.14,0,.27,.05,.36,.15,.1,.1,.15,.23,.14,.37l-.51,10.74c-.01,.26-.22,.47-.48,.48Zm-15.35-1h14.87l.46-9.74h-14.4l-.93,9.74Z"/>
    <polygon id="eluq8agyxd2gd" class="cls-4" points="258.12 299.24 257.59 288.5 242.22 288.5 242.23 299.24 258.12 299.24"/>
    <path id="elzplhc4w7n4d" class="cls-1" d="M258.12,299.74h-15.89c-.28,0-.5-.22-.5-.5v-10.74c-.01-.26,.19-.49,.46-.5,.01,0,.03,0,.04,0h15.38c.26,0,.48,.21,.49,.47l.53,10.74c.01,.14-.04,.27-.14,.37-.09,.11-.23,.16-.37,.16Zm-15.39-1h14.86l-.47-9.74h-14.4v9.74Z"/>
    <polygon id="el5gyeaogiena" class="cls-4" points="340.89 310.72 357.33 310.72 353.47 299.24 337.58 299.24 340.89 310.72"/>
    <path id="el15e2o0vqjt9" class="cls-1" d="M357.33,311.22h-16.44c-.22,0-.42-.14-.48-.36l-3.31-11.48c-.04-.15-.01-.31,.08-.44,.09-.13,.24-.2,.4-.2h15.89c.22,0,.41,.14,.48,.34l3.86,11.48c.05,.16,.02,.33-.07,.46-.1,.13-.25,.2-.41,.2Zm-16.06-1h15.37l-3.53-10.48h-14.87l3.03,10.48Z"/>
    <polygon id="elbztaagja2bc" class="cls-4" points="210.44 299.24 211.46 288.5 196.08 288.5 194.55 299.24 210.44 299.24"/>
    <path id="elkbeagpamud" class="cls-1" d="M210.44,299.74h-15.89c-.14,0-.28-.06-.38-.17-.09-.11-.13-.26-.11-.4l1.53-10.74c.03-.25,.24-.43,.49-.43h15.38c.14,0,.27,.06,.37,.16,.1,.1,.14,.24,.13,.38l-1,10.75c-.03,.26-.25,.46-.52,.45Zm-15.31-1h14.89l.92-9.74h-14.42l-1.39,9.74Z"/>
    <polygon id="elcd2dohx9bp5" class="cls-4" points="178.66 299.24 180.71 288.5 165.33 288.5 162.77 299.24 178.66 299.24"/>
    <path id="elp89jj0l29x" class="cls-1" d="M178.66,299.74h-15.89c-.16,0-.3-.07-.4-.19-.09-.12-.13-.28-.09-.43l2.56-10.74c.06-.22,.26-.38,.49-.38h15.38c.15,0,.29,.06,.38,.18,.1,.11,.14,.26,.11,.41l-2.05,10.74c-.04,.24-.25,.41-.49,.41Zm-15.26-1h14.85l1.85-9.74h-14.38l-2.32,9.74Z"/>
    <polygon id="el98mmjhx36wp" class="cls-4" points="321.69 299.24 319.11 288.5 303.73 288.5 305.8 299.24 321.69 299.24"/>
    <path id="elpf8kvugmatc" class="cls-1" d="M321.69,299.74h-15.89c-.24,0-.45-.17-.49-.41l-2.07-10.74c-.06-.26,.11-.52,.38-.58,.04,0,.07-.01,.11-.01h15.38c.23,0,.43,.15,.48,.38l2.59,10.74c.03,.15,0,.31-.1,.43-.09,.12-.24,.19-.39,.19Zm-15.48-1h14.81l-2.34-9.74h-14.35l1.88,9.74Z"/>
    <polygon id="eld1bjcnu7e8" class="cls-4" points="337.58 299.24 334.48 288.5 319.11 288.5 321.69 299.24 337.58 299.24"/>
    <path id="el5ybj89xuh1" class="cls-1" d="M337.58,299.74h-15.89c-.23,0-.43-.16-.49-.38l-2.58-10.75c-.03-.15,0-.3,.09-.42,.1-.12,.24-.19,.4-.19h15.37c.23,0,.43,.14,.49,.36l3.05,10.74c.04,.15,.01,.31-.08,.44-.09,.11-.22,.19-.36,.2Zm-15.5-1h14.84l-2.81-9.74h-14.37l2.34,9.74Z"/>
    <polygon id="ellfjaynrchb" class="cls-4" points="162.77 299.24 165.33 288.5 149.95 288.5 146.87 299.24 162.77 299.24"/>
    <path id="eln4mz3wdrtpb" class="cls-1" d="M162.77,299.74h-15.9c-.16,0-.3-.08-.4-.2-.09-.13-.12-.29-.08-.44l3.08-10.74c.06-.22,.26-.36,.48-.36h15.38c.15,0,.29,.07,.39,.19,.09,.12,.13,.27,.09,.42l-2.56,10.74c-.05,.23-.25,.39-.48,.39Zm-15.23-1h14.83l2.32-9.74h-14.36l-2.79,9.74Z"/>
    <polygon id="elz74q5n4ejtj" class="cls-4" points="274.01 299.24 272.97 288.5 257.59 288.5 258.12 299.24 274.01 299.24"/>
    <path id="elpcaviqtv7qp" class="cls-1" d="M274.02,299.74h-15.9c-.27,0-.49-.21-.5-.48l-.52-10.74c0-.14,.04-.27,.13-.37,.1-.1,.23-.15,.37-.15h15.42c.26,0,.48,.19,.5,.45l1,10.74c.02,.28-.19,.53-.47,.55-.01,0-.02,0-.03,0Zm-15.41-1h14.86l-.94-9.74h-14.41l.49,9.74Z"/>
    <polygon id="elgg5q7z2p9xq" class="cls-4" points="353.47 299.24 349.86 288.5 334.48 288.5 337.58 299.24 353.47 299.24"/>
    <path id="eloeen2sbdl5" class="cls-1" d="M353.47,299.74h-15.89c-.22,0-.42-.15-.48-.36l-3.08-10.75c-.07-.27,.1-.55,.38-.62,.03,0,.07-.01,.1-.01h15.38c.22,0,.41,.13,.48,.34l3.61,10.74c.05,.15,.02,.32-.07,.45-.1,.14-.26,.22-.43,.21Zm-15.51-1h14.82l-3.28-9.74h-14.35l2.81,9.74Z"/>
    <polygon id="el49yo09t6a73" class="cls-4" points="305.8 299.24 303.73 288.5 288.35 288.5 289.9 299.24 305.8 299.24"/>
    <path id="el5vsh3ne7kvp" class="cls-1" d="M305.8,299.74h-15.9c-.25,0-.46-.19-.49-.43l-1.55-10.74c-.04-.27,.14-.52,.4-.56,.03,0,.06,0,.09,0h15.38c.24,0,.44,.17,.49,.4l2.07,10.74c.05,.28-.13,.54-.41,.59-.03,0-.05,0-.08,0h0Zm-15.46-1h14.85l-1.87-9.74h-14.39l1.41,9.74Z"/>
    <polygon id="eldoo0m31ldx6" class="cls-4" points="289.9 299.24 288.35 288.5 272.97 288.5 274.01 299.24 289.9 299.24"/>
    <path id="elpwydbbmoh2e" class="cls-1" d="M289.9,299.74h-15.88c-.26,0-.47-.2-.5-.45l-1-10.75c-.02-.14,.03-.28,.12-.38,.1-.1,.23-.16,.37-.16h15.38c.25,0,.46,.18,.5,.42l1.55,10.75c.02,.14-.02,.29-.12,.4-.11,.12-.26,.18-.42,.17Zm-15.43-1h14.86l-1.41-9.74h-14.4l.95,9.74Z"/>
    <polygon id="elwggstwqdyl" class="cls-4" points="242.23 299.24 242.22 288.5 226.84 288.5 226.33 299.24 242.23 299.24"/>
    <path id="elyo289bf2xfl" class="cls-1" d="M242.23,299.74h-15.89c-.14,0-.27-.06-.37-.16-.09-.1-.14-.23-.13-.37l.5-10.74c.02-.26,.24-.47,.5-.47h15.38c.28,0,.5,.22,.5,.5v10.74c0,.13-.06,.26-.15,.35-.09,.09-.21,.15-.34,.15Zm-15.37-1h14.87v-9.74h-14.41l-.46,9.74Z"/>
    <polygon id="elqtmq0z9yse" class="cls-4" points="130.98 299.24 115.09 299.24 110.7 310.72 127.14 310.72 130.98 299.24"/>
    <path id="el9suf69r09ae" class="cls-1" d="M127.14,311.22h-16.44c-.16,0-.31-.08-.41-.21-.09-.14-.11-.31-.06-.47l4.39-11.48c.08-.19,.26-.32,.47-.32h15.93c.16,0,.31,.08,.41,.21,.09,.13,.12,.3,.07,.45l-3.88,11.52c-.08,.19-.27,.31-.48,.3Zm-15.71-1h15.35l3.51-10.48h-14.86l-4,10.48Z"/>
    <polygon id="elkzsefzsael" class="cls-4" points="134.57 288.5 119.19 288.5 115.09 299.24 130.98 299.24 134.57 288.5"/>
    <path id="eluj0m9t0g2tg" class="cls-1" d="M131.02,299.74h-15.93c-.16,0-.32-.08-.41-.22-.1-.13-.12-.31-.06-.46l4.11-10.74c.07-.19,.25-.32,.46-.32h15.38c.27,0,.5,.2,.51,.47,0,.06,0,.12-.03,.18l-3.59,10.75c-.07,.19-.24,.32-.44,.34Zm-15.16-1h14.8l3.26-9.74h-14.38l-3.68,9.74Z"/>
    <polygon id="eldz1o5jixk2a" class="cls-4" points="146.87 299.24 149.95 288.5 134.57 288.5 130.98 299.24 146.87 299.24"/>
    <path id="el6lwwvrciel3" class="cls-1" d="M146.87,299.74h-15.85c-.28,0-.5-.23-.5-.5,0-.05,0-.11,.03-.16l3.59-10.74c.07-.2,.26-.34,.47-.34h15.38c.16,0,.31,.07,.4,.2,.09,.12,.12,.28,.08,.43l-3.08,10.75c-.07,.23-.28,.38-.52,.36Zm-15.19-1h14.82l2.79-9.74h-14.36l-3.25,9.74Z"/>
    <polygon id="elbukj5en6jb" class="cls-4" points="106 323.03 100.95 336.26 118.61 336.26 123.03 323.03 106 323.03"/>
    <path id="els16v3zvit7n" class="cls-1" d="M118.61,336.76h-17.66c-.17,0-.32-.09-.42-.22-.09-.14-.11-.31-.05-.46l5.05-13.23c.08-.19,.26-.32,.47-.32h17c.16,0,.31,.08,.41,.21,.09,.13,.12,.3,.06,.45l-4.41,13.22c-.06,.2-.24,.34-.45,.35Zm-16.94-1h16.58l4.09-12.23h-16l-4.67,12.23Z"/>
    <polygon id="eld5e5j7ks4ke" class="cls-4" points="127.14 310.72 110.7 310.72 106 323.03 123.03 323.03 127.14 310.72"/>
    <path id="el37ie5kvxk5j" class="cls-1" d="M123.02,323.53h-17c-.28,0-.5-.22-.5-.5,0-.06,.01-.12,.03-.18l4.7-12.31c.08-.19,.26-.32,.47-.32h16.44c.16,0,.31,.08,.41,.21,.09,.13,.12,.3,.07,.45l-4.12,12.31c-.07,.21-.28,.35-.5,.34Zm-16.31-1h16l3.78-11.31h-15.47l-4.31,11.31Z"/>
    <polygon id="eld4mpob4lse7" class="cls-4" points="123.03 323.03 118.61 336.26 136.27 336.26 140.06 323.03 123.03 323.03"/>
    <path id="elhzy2d1qd5wh" class="cls-1" d="M136.28,336.76h-17.67c-.28,0-.5-.23-.5-.5,0-.05,0-.11,.03-.16l4.42-13.18c.07-.2,.26-.34,.47-.34h17c.16,0,.3,.08,.4,.2,.09,.13,.12,.29,.08,.44l-3.78,13.22c-.07,.19-.25,.31-.45,.32Zm-17-1h16.59l3.5-12.23h-16l-4.09,12.23Z"/>
    <polygon id="elxm447w3wff" class="cls-4" points="194.55 299.24 196.08 288.5 180.71 288.5 178.66 299.24 194.55 299.24"/>
    <path id="el27vp35y4s8d" class="cls-1" d="M194.55,299.74h-15.89c-.15,0-.29-.07-.39-.18-.09-.12-.13-.27-.1-.42l2-10.74c.05-.23,.26-.4,.5-.4h15.37c.28,0,.5,.22,.5,.5,0,.03,0,.05,0,.07l-1.52,10.74c-.04,.24-.23,.41-.47,.43Zm-15.29-1h14.86l1.39-9.74h-14.39l-1.86,9.74Z"/>
    <polygon id="ellumnj9bd0a8" class="cls-4" points="192.91 310.72 194.55 299.24 178.66 299.24 176.47 310.72 192.91 310.72"/>
    <path id="elpipcisy776g" class="cls-1" d="M192.91,311.22h-16.44c-.27,0-.49-.21-.5-.48,0-.04,0-.07,.01-.11l2.19-11.49c.04-.24,.25-.4,.49-.4h15.89c.15,0,.28,.06,.38,.17,.09,.11,.14,.26,.12,.4l-1.64,11.48c-.04,.25-.25,.43-.5,.43Zm-15.84-1h15.41l1.54-10.48h-14.9l-2.05,10.48Z"/>
    <polygon id="elmb32mpfwlq" class="cls-4" points="176.47 310.72 178.66 299.24 162.77 299.24 160.03 310.72 176.47 310.72"/>
    <path id="elo1xro07z3ch" class="cls-1" d="M176.47,311.22h-16.45c-.16,0-.3-.07-.4-.19-.09-.12-.12-.27-.09-.42l2.74-11.49c.06-.22,.26-.38,.49-.38h15.89c.15,0,.29,.06,.38,.18,.1,.11,.14,.26,.11,.41l-2.19,11.49c-.04,.23-.24,.4-.48,.4Zm-15.81-1h15.36l2-10.48h-14.86l-2.5,10.48Z"/>
    <polygon id="elwq0ei6otf6s" class="cls-4" points="209.35 310.72 210.44 299.24 194.55 299.24 192.91 310.72 209.35 310.72"/>
    <path id="elprucn96v7e" class="cls-1" d="M209.35,311.22h-16.44c-.27,0-.49-.21-.5-.48,0-.03,0-.06,0-.09l1.6-11.48c.03-.25,.24-.43,.49-.43h15.89c.14,0,.27,.06,.37,.16,.1,.11,.14,.25,.13,.39l-1.09,11.48c-.02,.24-.22,.44-.46,.45Zm-15.86-1h15.41l1-10.48h-14.88l-1.53,10.48Z"/>
    <polygon id="elrhltgh174fj" class="cls-4" points="146.87 299.24 130.98 299.24 127.14 310.72 143.59 310.72 146.87 299.24"/>
    <path id="elq8zyzmmjcy" class="cls-1" d="M143.59,311.22h-16.45c-.16,0-.31-.07-.4-.2-.1-.13-.12-.3-.07-.45l3.84-11.49c.07-.2,.26-.34,.47-.34h15.89c.16,0,.31,.07,.4,.2,.1,.12,.13,.29,.08,.44l-3.28,11.48c-.06,.21-.26,.36-.48,.36Zm-15.75-1h15.37l3-10.48h-14.87l-3.5,10.48Z"/>
    <polygon id="el00yh8xlyhciyn" class="cls-4" points="344.44 323.03 361.47 323.03 357.33 310.72 340.89 310.72 344.44 323.03"/>
    <path id="eli56404csor" class="cls-1" d="M361.47,323.53h-17c-.22,0-.42-.15-.48-.36l-3.55-12.31c-.04-.15-.01-.31,.08-.44,.1-.12,.24-.2,.4-.2h16.44c.22,0,.41,.14,.48,.34l4.1,12.36c.05,.15,.03,.32-.07,.45-.1,.12-.25,.18-.4,.16Zm-16.66-1h16l-3.79-11.31h-15.47l3.26,11.31Z"/>
    <polygon id="elo165ogebaae" class="cls-4" points="160.03 310.72 162.77 299.24 146.87 299.24 143.59 310.72 160.03 310.72"/>
    <path id="el5jyppbi9964" class="cls-1" d="M160.02,311.22h-16.43c-.16,0-.31-.07-.4-.2-.1-.12-.13-.28-.08-.43l3.28-11.49c.06-.21,.26-.36,.48-.36h15.9c.15,0,.29,.07,.39,.19,.09,.12,.13,.27,.09,.42l-2.74,11.49c-.05,.23-.26,.39-.49,.38Zm-15.78-1h15.38l2.5-10.48h-14.87l-3.01,10.48Z"/>
    <polygon id="eled4kheb90jd" class="cls-4" points="127.14 310.72 123.03 323.03 140.06 323.03 143.59 310.72 127.14 310.72"/>
    <path id="ellka12s5n84" class="cls-1" d="M140.02,323.53h-17c-.16,0-.32-.08-.41-.21-.09-.13-.12-.3-.06-.45l4.11-12.3c.06-.21,.25-.35,.47-.35h16.45c.28,0,.5,.24,.5,.52,0,.04,0,.08-.02,.12l-3.53,12.31c-.07,.22-.28,.37-.51,.36Zm-16.34-1h16l3.24-11.31h-15.42l-3.82,11.31Z"/>
    <polygon id="elm9z154yry5c" class="cls-4" points="308.01 310.72 305.8 299.24 289.9 299.24 291.56 310.72 308.01 310.72"/>
    <path id="elfcrjobc3tjk" class="cls-1" d="M308.02,311.22h-16.46c-.24,0-.45-.18-.49-.42l-1.66-11.49c-.02-.14,.02-.29,.12-.4,.09-.11,.23-.17,.37-.17h15.9c.24,0,.44,.17,.49,.4l2.21,11.49c.05,.27-.13,.53-.4,.58-.03,0-.06,0-.09,0h.01Zm-16-1h15.4l-2-10.48h-14.9l1.5,10.48Z"/>
    <polygon id="elgex7h2nbkun" class="cls-4" points="291.56 310.72 289.9 299.24 274.01 299.24 275.12 310.72 291.56 310.72"/>
    <path id="elu8un5zbs16" class="cls-1" d="M291.56,311.22h-16.44c-.26,0-.47-.19-.5-.45l-1.11-11.48c0-.14,.04-.28,.13-.39,.1-.1,.23-.16,.37-.16h15.89c.25,0,.46,.18,.5,.43l1.62,11.48c.04,.27-.15,.53-.43,.57-.02,0-.05,0-.07,0h.04Zm-16-1h15.46l-1.52-10.48h-14.94l1,10.48Z"/>
    <polygon id="elju4ub242xii" class="cls-4" points="340.89 310.72 337.58 299.24 321.69 299.24 324.45 310.72 340.89 310.72"/>
    <path id="eldcnsssmtcz" class="cls-1" d="M340.89,311.22h-16.44c-.23,0-.43-.16-.49-.38l-2.76-11.48c-.03-.15,0-.31,.1-.43,.09-.12,.24-.19,.39-.19h15.89c.22,0,.42,.15,.48,.36l3.31,11.49c.04,.15,.01,.31-.08,.43-.09,.13-.24,.2-.4,.2Zm-16.05-1h15.39l-3-10.48h-14.91l2.52,10.48Z"/>
    <polygon id="elt5h42j68frg" class="cls-4" points="242.24 310.72 242.23 299.24 226.33 299.24 225.8 310.72 242.24 310.72"/>
    <path id="ellioakk0rube" class="cls-1" d="M242.24,311.22h-16.44c-.14,0-.27-.05-.37-.15-.09-.1-.14-.23-.13-.37l.54-11.49c.02-.26,.24-.47,.5-.47h15.89c.28,0,.5,.22,.5,.5v11.48c0,.14-.05,.27-.15,.36-.09,.09-.21,.14-.34,.14Zm-15.92-1h15.42v-10.48h-14.93l-.49,10.48Z"/>
    <polygon id="els6pprdcbhrh" class="cls-4" points="275.12 310.72 274.01 299.24 258.12 299.24 258.68 310.72 275.12 310.72"/>
    <path id="el83x2l5l8sru" class="cls-1" d="M275.12,311.22h-16.44c-.26,0-.48-.21-.5-.47l-.56-11.49c0-.14,.04-.27,.14-.37,.09-.1,.22-.15,.36-.15h15.9c.26,0,.47,.19,.5,.45l1.11,11.49c.01,.14-.03,.28-.13,.38-.1,.1-.24,.16-.38,.16Zm-16-1h15.41l-1-10.48h-14.89l.48,10.48Z"/>
    <polygon id="elqmzimynf8s" class="cls-4" points="258.68 310.72 258.12 299.24 242.23 299.24 242.24 310.72 258.68 310.72"/>
    <path id="elb6isxqijuni" class="cls-1" d="M258.68,311.22h-16.44c-.28,0-.5-.22-.5-.5v-11.48c0-.13,.05-.26,.14-.36,.1-.09,.23-.14,.36-.14h15.88c.26,0,.48,.21,.5,.47l.56,11.49c.01,.14-.04,.27-.14,.37-.09,.1-.22,.15-.36,.15Zm-15.94-1h15.42l-.52-10.48h-14.91v10.48Z"/>
    <polygon id="elxpdn1x090gd" class="cls-4" points="225.8 310.72 226.33 299.24 210.44 299.24 209.35 310.72 225.8 310.72"/>
    <path id="eltdussa7bkxb" class="cls-1" d="M225.8,311.22h-16.45c-.14,0-.27-.06-.37-.16-.09-.1-.14-.24-.12-.38l1.09-11.49c.02-.25,.23-.45,.49-.45h15.9c.27,0,.49,.2,.49,.47,0,.02,0,.03,0,.05l-.53,11.49c-.02,.26-.24,.47-.5,.47Zm-15.9-1h15.42l.49-10.48h-14.91l-1,10.48Z"/>
    <polygon id="elt9alf0nj8gb" class="cls-4" points="275.12 310.72 276.31 323.03 293.34 323.03 291.56 310.72 275.12 310.72"/>
    <path id="eljwfwcqajd5d" class="cls-1" d="M293.34,323.53h-17c-.26,0-.47-.19-.5-.45l-1.19-12.31c0-.14,.04-.28,.13-.38,.09-.11,.23-.17,.37-.17h16.44c.25,0,.46,.18,.5,.43l1.75,12.27c.02,.14-.02,.29-.12,.4-.09,.13-.23,.2-.38,.21Zm-16.57-1h16l-1.64-11.31h-15.46l1.1,11.31Z"/>
    <polygon id="el927wv95iec6" class="cls-4" points="291.56 310.72 293.34 323.03 310.38 323.03 308.01 310.72 291.56 310.72"/>
    <path id="elhstlnc428hc" class="cls-1" d="M310.37,323.53h-17c-.25,0-.46-.18-.49-.43l-1.78-12.3c-.02-.14,.02-.29,.12-.4,.09-.11,.23-.18,.37-.18h16.43c.24,0,.45,.17,.49,.41l2.36,12.29c.02,.15-.02,.3-.11,.41-.09,.12-.24,.2-.39,.2Zm-16.59-1h16l-2.18-11.31h-15.46l1.64,11.31Z"/>
    <polygon id="elxeh99hcl1p" class="cls-4" points="143.59 310.72 140.06 323.03 157.09 323.03 160.03 310.72 143.59 310.72"/>
    <path id="elcgmp4uxej8s" class="cls-1" d="M157.09,323.53h-17.07c-.16,0-.31-.07-.4-.2-.09-.13-.12-.29-.08-.44l3.53-12.3c.06-.22,.25-.37,.48-.37h16.47c.28,0,.5,.23,.49,.51,0,.04,0,.08-.01,.11l-2.93,12.31c-.05,.22-.25,.38-.48,.38Zm-16.37-1h16l2.69-11.31h-15.45l-3.24,11.31Z"/>
    <polygon id="ely9nnq670xrd" class="cls-4" points="308.01 310.72 310.38 323.03 327.41 323.03 324.45 310.72 308.01 310.72"/>
    <path id="el3fvm7shnc9b" class="cls-1" d="M327.41,323.53h-17c-.24,0-.44-.17-.49-.4l-2.4-12.31c-.03-.14,0-.3,.1-.41,.1-.12,.24-.19,.39-.19h16.44c.23,0,.43,.16,.48,.39l3,12.31c.04,.15,0,.3-.09,.42-.1,.13-.26,.2-.43,.19Zm-16.62-1h16l-2.77-11.31h-15.41l2.18,11.31Z"/>
    <polygon id="elwwjwp2lzzc" class="cls-4" points="242.24 310.72 242.25 323.03 259.28 323.03 258.68 310.72 242.24 310.72"/>
    <path id="el93wy27kktwu" class="cls-1" d="M259.28,323.53h-17c-.28,0-.5-.22-.5-.5v-12.31c0-.13,.05-.26,.14-.35,.1-.09,.23-.15,.36-.15h16.44c.27,0,.49,.21,.5,.48l.6,12.31c0,.14-.04,.27-.14,.37-.1,.11-.25,.17-.4,.15Zm-16.53-1h16l-.56-11.31h-15.45v11.31Z"/>
    <polygon id="eltwfrk36kef" class="cls-4" points="324.45 310.72 327.41 323.03 344.44 323.03 340.89 310.72 324.45 310.72"/>
    <path id="el8bm4ai8s7qg" class="cls-1" d="M344.44,323.53h-17c-.23,0-.43-.16-.49-.38l-3-12.31c-.03-.15,0-.31,.1-.43,.09-.12,.24-.19,.39-.19h16.44c.23,0,.42,.15,.48,.37l3.56,12.33c.04,.15,.01,.31-.08,.44-.1,.11-.25,.18-.4,.17Zm-16.64-1h16l-3.26-11.31h-15.46l2.72,11.31Z"/>
    <polygon id="elbbvl5lbh88k" class="cls-4" points="258.68 310.72 259.28 323.03 276.31 323.03 275.12 310.72 258.68 310.72"/>
    <path id="el126zpphrmhtb" class="cls-1" d="M276.31,323.53h-17c-.26,0-.48-.21-.5-.47l-.6-12.31c-.01-.14,.04-.27,.14-.37,.09-.1,.22-.16,.36-.16h16.41c.26,0,.48,.2,.5,.46l1.19,12.3c.01,.14-.03,.28-.13,.39-.1,.1-.23,.16-.37,.16Zm-16.55-1h16l-1.09-11.31h-15.46l.55,11.31Z"/>
    <polygon id="ele7m9oprbh6" class="cls-4" points="176.47 310.72 174.12 323.03 191.15 323.03 192.91 310.72 176.47 310.72"/>
    <path id="elf3c70rp1eq" class="cls-1" d="M191.16,323.53h-17c-.15,0-.29-.06-.38-.18-.1-.11-.14-.26-.11-.41l2.35-12.31c.04-.24,.25-.41,.49-.41h16.44c.28,0,.51,.23,.5,.52,0,.02,0,.04,0,.05l-1.76,12.31c-.04,.26-.27,.45-.53,.43Zm-16.43-1h16l1.62-11.31h-15.47l-2.15,11.31Z"/>
    <polygon id="el33z8auh3jhp" class="cls-4" points="160.03 310.72 157.09 323.03 174.12 323.03 176.47 310.72 160.03 310.72"/>
    <path id="el3x262l5xuzs" class="cls-1" d="M174.12,323.53h-17c-.15,0-.29-.07-.39-.19-.09-.12-.13-.27-.09-.42l2.93-12.31c.05-.23,.26-.39,.49-.39h16.44c.15,0,.29,.07,.38,.19,.1,.11,.14,.26,.11,.41l-2.34,12.31c-.05,.25-.28,.42-.53,.4Zm-16.39-1h16l2.15-11.31h-15.46l-2.69,11.31Z"/>
    <polygon id="el4l3irhmsg7i" class="cls-4" points="225.8 310.72 225.22 323.03 242.25 323.03 242.24 310.72 225.8 310.72"/>
    <path id="el60984e22oj8" class="cls-1" d="M242.25,323.53h-17c-.14,0-.27-.05-.36-.15-.1-.1-.15-.23-.14-.37l.58-12.31c.01-.27,.23-.48,.5-.48h16.44c.27,0,.49,.23,.5,.5v12.31c0,.14-.05,.26-.15,.36-.1,.1-.23,.15-.37,.14Zm-16.51-1h16v-11.31h-15.47l-.53,11.31Z"/>
    <polygon id="elurckludx3d" class="cls-4" points="209.35 310.72 208.19 323.03 225.22 323.03 225.8 310.72 209.35 310.72"/>
    <path id="elsfgk2dcep8" class="cls-1" d="M225.22,323.53h-17c-.14,0-.27-.06-.37-.16-.1-.1-.14-.24-.13-.38l1.17-12.31c.02-.26,.23-.46,.49-.46h16.45c.14,0,.27,.06,.36,.16,.09,.1,.14,.23,.14,.37l-.58,12.31c-.02,.27-.26,.48-.53,.47Zm-16.48-1h16l.53-11.31h-15.46l-1.07,11.31Z"/>
    <polygon id="elcops1wxadwi" class="cls-4" points="192.91 310.72 191.15 323.03 208.19 323.03 209.35 310.72 192.91 310.72"/>
    <path id="elhydsf94t9i4" class="cls-1" d="M208.19,323.53h-17c-.28,0-.5-.22-.5-.5,0-.03,0-.05,0-.07l1.76-12.31c.03-.24,.24-.43,.49-.43h16.44c.14,0,.28,.06,.37,.17,.1,.1,.15,.24,.13,.38l-1.17,12.31c-.02,.27-.25,.47-.52,.45Zm-16.46-1h16l1.07-11.31h-15.45l-1.62,11.31Z"/>
    <polygon id="elg3qbvlqek0n" class="cls-4" points="324.45 310.72 321.69 299.24 305.8 299.24 308.01 310.72 324.45 310.72"/>
    <path id="elbryz06h80t9" class="cls-1" d="M324.45,311.22h-16.43c-.24,0-.45-.16-.49-.4l-2.21-11.49c-.03-.14,0-.29,.1-.41,.1-.12,.24-.18,.39-.18h15.89c.23,0,.43,.16,.49,.38l2.75,11.49c.04,.15,0,.3-.09,.42-.1,.12-.24,.19-.4,.19Zm-16-1h15.39l-2.52-10.48h-14.92l2.05,10.48Z"/>
    <polygon id="elwsipr7ed2jh" class="cls-4" points="134.57 288.5 138.25 277.5 123.4 277.5 119.19 288.5 134.57 288.5"/>
    <path id="el7gb13oodnme" class="cls-1" d="M134.57,289h-15.38c-.28,0-.5-.23-.49-.51,0-.06,.01-.12,.03-.17l4.2-11c.07-.19,.26-.32,.46-.32h14.86c.28,0,.5,.23,.5,.5,0,.05,0,.11-.03,.16l-3.67,11c-.07,.21-.26,.34-.48,.34Zm-14.65-1h14.29l3.34-10h-13.81l-3.82,10Z"/>
    <polygon id="el49nicnyvhm5" class="cls-4" points="119.19 288.5 105 288.5 100.42 299.24 115.09 299.24 119.19 288.5"/>
    <path id="elx8dwy43amv" class="cls-1" d="M115.09,299.74h-14.67c-.17,0-.33-.09-.42-.23-.08-.15-.08-.32,0-.47l4.58-10.74c.08-.18,.26-.3,.46-.3h14.19c.17,0,.32,.08,.42,.21,.07,.14,.07,.32,0,.46l-4.1,10.75c-.08,.19-.26,.31-.46,.32Zm-13.91-1h13.57l3.72-9.74h-13.14l-4.15,9.74Z"/>
    <polygon id="el6h37vvck4qw" class="cls-4" points="123.4 277.5 109.69 277.5 105 288.5 119.19 288.5 123.4 277.5"/>
    <path id="el47bhk8n7z8g" class="cls-1" d="M119.19,289h-14.17c-.17,0-.33-.09-.42-.23-.08-.15-.08-.32,0-.47l4.69-11c.08-.19,.26-.31,.46-.3h13.7c.17,0,.32,.08,.42,.22,.09,.14,.11,.31,.05,.46l-4.2,11c-.08,.22-.3,.35-.53,.32Zm-13.43-1h13.09l3.82-10h-12.65l-4.26,10Z"/>
    <polygon id="elfzpy76aldlq" class="cls-4" points="115.09 299.24 100.42 299.24 95.52 310.72 110.7 310.72 115.09 299.24"/>
    <path id="elnythd0ws9f" class="cls-1" d="M110.7,311.22h-15.18c-.28,0-.5-.23-.5-.5,0-.06,.01-.13,.04-.19l4.9-11.49c.08-.18,.26-.3,.46-.3h14.67c.16,0,.32,.08,.41,.22,.1,.13,.12,.31,.06,.46l-4.39,11.5c-.08,.19-.27,.3-.47,.3Zm-14.42-1h14.08l4-10.48h-13.61l-4.47,10.48Z"/>
    <polygon id="elfux5ny0k74k" class="cls-4" points="110.7 310.72 95.52 310.72 90.28 323.03 106 323.03 110.7 310.72"/>
    <path id="elnq44kmbetu" class="cls-1" d="M106.02,323.53h-15.74c-.27,0-.5-.21-.5-.48,0-.07,.01-.15,.04-.21l5.2-12.31c.08-.19,.26-.31,.46-.31h15.18c.28,0,.51,.24,.5,.52,0,.05-.01,.11-.03,.16l-4.7,12.31c-.07,.17-.23,.3-.41,.32Zm-15-1h14.62l4.38-11.31h-14.17l-4.83,11.31Z"/>
    <polygon id="elz8wyfqblg3i" class="cls-4" points="106 323.03 90.28 323.03 84.64 336.26 100.95 336.26 106 323.03"/>
    <path id="elhchv9y3wddd" class="cls-1" d="M100.95,336.76h-16.31c-.17,0-.33-.09-.42-.23-.08-.15-.08-.32,0-.47l5.64-13.22c.08-.19,.26-.31,.46-.31h15.7c.16,0,.32,.08,.41,.22,.09,.14,.11,.31,.06,.46l-5.06,13.22c-.07,.2-.26,.34-.48,.33Zm-15.55-1h15.2l4.67-12.23h-14.66l-5.21,12.23Z"/>
    <polygon id="elj0ox8md2w" class="cls-4" points="369.37 299.24 373.77 310.72 388.32 310.72 383.42 299.24 369.37 299.24"/>
    <path id="ellnc2nm7946a" class="cls-1" d="M388.32,311.22h-14.54c-.21,0-.4-.12-.47-.32l-4.41-11.48c-.06-.15-.04-.32,.05-.46,.09-.14,.25-.22,.41-.22h14.06c.2,0,.38,.12,.46,.3l4.9,11.49c.08,.15,.08,.32,0,.47-.1,.15-.28,.23-.46,.22Zm-14.2-1h13.44l-4.47-10.48h-13l4.03,10.48Z"/>
    <polygon id="elprxsq65z6i" class="cls-4" points="378.5 323.03 393.57 323.03 388.32 310.72 373.77 310.72 378.5 323.03"/>
    <path id="eltkpn48mjx1" class="cls-1" d="M393.57,323.53h-15.07c-.21,0-.39-.13-.47-.32l-4.72-12.29c-.1-.26,.03-.55,.29-.65,.06-.02,.12-.03,.18-.03h14.54c.2,0,.38,.12,.46,.31l5.24,12.29c.1,.26-.02,.55-.27,.65-.06,.02-.12,.04-.19,.04h0Zm-14.73-1h14l-4.82-11.31h-13.52l4.34,11.31Z"/>
    <polygon id="elr7cta3xhfr" class="cls-4" points="383.58 336.26 399.2 336.26 393.57 323.03 378.5 323.03 383.58 336.26"/>
    <path id="elfooe8432kou" class="cls-1" d="M399.2,336.76h-15.62c-.21,0-.4-.13-.47-.32l-5.09-13.23c-.09-.27,.05-.56,.31-.65,.05-.02,.1-.03,.16-.03h15.07c.2,0,.38,.12,.46,.31l5.63,13.22c.08,.15,.08,.32,0,.47-.1,.15-.27,.24-.45,.23Zm-15.28-1h14.53l-5.21-12.23h-14l4.68,12.23Z"/>
    <polygon id="ele2qa0q15gp" class="cls-4" points="257.59 288.5 257.06 277.5 242.21 277.5 242.22 288.5 257.59 288.5"/>
    <path id="el9hxgnx37b1d" class="cls-1" d="M257.6,289h-15.38c-.28,0-.5-.22-.5-.5v-11c0-.13,.05-.26,.14-.35,.09-.1,.22-.15,.36-.15h14.8c.27,0,.49,.21,.5,.48l.53,11c0,.14-.04,.27-.13,.37-.09,.09-.2,.14-.32,.15Zm-14.88-1h14.35l-.49-10h-13.87v10Z"/>
    <polygon id="ell2e9wq6pf87" class="cls-4" points="369.37 299.24 383.42 299.24 378.84 288.5 365.24 288.5 369.37 299.24"/>
    <path id="el6gujrafa0ns" class="cls-1" d="M383.42,299.74h-14.06c-.2,0-.39-.13-.46-.32l-4.12-10.75c-.1-.25,.02-.54,.28-.64,.06-.02,.12-.03,.18-.03h13.61c.2,0,.38,.12,.46,.3l4.57,10.74c.08,.15,.08,.32,0,.47-.1,.16-.28,.24-.46,.23Zm-13.71-1h13l-4.15-9.74h-12.54l3.69,9.74Z"/>
    <polygon id="elgh9ncui5pv7" class="cls-4" points="361.47 323.03 378.5 323.03 373.77 310.72 357.33 310.72 361.47 323.03"/>
    <path id="elop6x5fhy7wo" class="cls-1" d="M378.5,323.53h-17c-.22,0-.41-.13-.48-.34l-4.16-12.27c-.09-.26,.05-.55,.31-.63,.05-.02,.1-.03,.16-.03h16.45c.2,0,.39,.13,.46,.32l4.78,12.27c.06,.16,.03,.33-.06,.47-.11,.15-.28,.23-.46,.21Zm-16.67-1h15.94l-4.34-11.31h-15.41l3.81,11.31Z"/>
    <polygon id="eltl5dkdlo40f" class="cls-4" points="149.95 288.5 153.1 277.5 138.25 277.5 134.57 288.5 149.95 288.5"/>
    <path id="el6ealovop2f4" class="cls-1" d="M149.95,289h-15.38c-.28,0-.5-.23-.5-.5,0-.05,0-.11,.03-.16l3.67-11c.07-.2,.26-.34,.48-.34h14.85c.16,0,.3,.08,.4,.2,.09,.13,.12,.29,.08,.44l-3.15,11c-.06,.21-.26,.36-.48,.36Zm-14.68-1h14.3l2.86-10h-13.82l-3.34,10Z"/>
    <polygon id="elskik1u5pwl" class="cls-4" points="349.86 288.5 353.47 299.24 369.37 299.24 365.24 288.5 349.86 288.5"/>
    <path id="elq6jd7fyjjcn" class="cls-1" d="M369.36,299.74h-15.89c-.21,0-.4-.14-.47-.34l-3.61-10.74c-.05-.16-.03-.33,.07-.46,.09-.13,.24-.2,.4-.2h15.38c.21,0,.4,.13,.47,.32l4.12,10.74c.06,.15,.04,.32-.05,.46-.1,.14-.25,.22-.42,.22Zm-15.53-1h14.81l-3.74-9.74h-14.34l3.27,9.74Z"/>
    <polygon id="el92j2qipkax5" class="cls-4" points="378.84 288.5 374.16 277.5 361.02 277.5 365.24 288.5 378.84 288.5"/>
    <path id="el23ip6heb8x5" class="cls-1" d="M378.85,289h-13.61c-.21,0-.39-.13-.46-.32l-4.23-11c-.06-.15-.03-.33,.06-.46,.09-.14,.25-.22,.41-.22h13.14c.2,0,.38,.12,.46,.3l4.69,11c.07,.15,.05,.33-.05,.47-.09,.14-.24,.23-.41,.23Zm-13.26-1h12.5l-4.26-10h-12.08l3.84,10Z"/>
    <polygon id="elsx81adbpfdd" class="cls-4" points="365.24 288.5 361.02 277.5 346.17 277.5 349.86 288.5 365.24 288.5"/>
    <path id="elx0nmiwi9ct" class="cls-1" d="M365.24,289h-15.38c-.21,0-.4-.14-.47-.34l-3.7-11c-.05-.15-.02-.32,.07-.45,.1-.13,.25-.21,.41-.21h14.85c.21,0,.39,.13,.47,.32l4.22,11c.09,.27-.05,.56-.31,.65-.05,.02-.1,.03-.16,.03Zm-15-1h14.29l-3.83-10h-13.84l3.38,10Z"/>
    <polygon id="el3fqhimgl7rf" class="cls-4" points="310.38 323.03 312.92 336.26 330.58 336.26 327.41 323.03 310.38 323.03"/>
    <path id="elngfy7n9hopd" class="cls-1" d="M330.58,336.76h-17.66c-.24,0-.45-.17-.49-.41l-2.55-13.22c-.02-.15,.02-.3,.11-.42,.09-.11,.23-.18,.38-.18h17c.23,0,.43,.16,.48,.39l3.18,13.22c.04,.15,0,.31-.09,.43-.09,.11-.22,.18-.36,.19Zm-17.25-1h16.62l-2.93-12.23h-16l2.31,12.23Z"/>
    <polygon id="ellqjeorj3ule" class="cls-4" points="365.91 336.26 383.58 336.26 378.5 323.03 361.47 323.03 365.91 336.26"/>
    <path id="elq7z8cff0lom" class="cls-1" d="M383.58,336.76h-17.67c-.21,0-.4-.14-.47-.34l-4.42-13.23c-.05-.15-.02-.32,.07-.45,.1-.13,.25-.21,.41-.21h17c.21,0,.39,.13,.47,.32l5.05,13.23c.07,.14,.07,.32,0,.46-.1,.14-.27,.23-.44,.22Zm-17.31-1h16.58l-4.69-12.23h-16l4.11,12.23Z"/>
    <polygon id="elxbihx8131gs" class="cls-4" points="349.86 288.5 346.17 277.5 331.32 277.5 334.48 288.5 349.86 288.5"/>
    <path id="elvhkh2rr4y5" class="cls-1" d="M349.86,289h-15.38c-.22,0-.42-.15-.48-.37l-3.16-11c-.05-.15-.02-.32,.08-.44,.1-.12,.24-.2,.4-.2h14.85c.21,0,.4,.14,.47,.34l3.7,11c.05,.15,.02,.32-.07,.45-.09,.14-.25,.22-.41,.22Zm-15-1h14.31l-3.36-10h-13.79l2.84,10Z"/>
    <polygon id="elj7riinkc2v8" class="cls-4" points="344.44 323.03 348.25 336.26 365.91 336.26 361.47 323.03 344.44 323.03"/>
    <path id="elxet2x9weo1" class="cls-1" d="M365.91,336.76h-17.66c-.23,0-.42-.15-.48-.37l-3.81-13.22c-.05-.15-.02-.32,.08-.44,.1-.12,.24-.2,.4-.2h17c.21,0,.4,.14,.47,.34l4.45,13.23c.05,.15,.02,.32-.07,.45-.09,.12-.23,.2-.38,.21Zm-17.29-1h16.6l-4.11-12.23h-16l3.51,12.23Z"/>
    <polygon id="el8co2yx6w4tj" class="cls-4" points="327.41 323.03 330.58 336.26 348.25 336.26 344.44 323.03 327.41 323.03"/>
    <path id="el69pvc230uda" class="cls-1" d="M348.25,336.76h-17.67c-.23,0-.43-.16-.48-.39l-3.18-13.22c-.04-.15,0-.31,.09-.43,.1-.12,.24-.19,.4-.19h17c.22,0,.42,.15,.48,.36l3.81,13.23c.04,.15,.01,.31-.08,.44-.09,.11-.22,.19-.37,.2Zm-17.27-1h16.6l-3.56-12.23h-16l2.96,12.23Z"/>
    <polygon id="elgfpz0hfqty6" class="cls-4" points="357.33 310.72 373.77 310.72 369.37 299.24 353.47 299.24 357.33 310.72"/>
    <path id="el8kw0e37wi8r" class="cls-1" d="M373.78,311.22h-16.45c-.21,0-.4-.14-.47-.34l-3.84-11.48c-.09-.26,.05-.55,.31-.63,.05-.02,.1-.03,.16-.03h15.89c.21,0,.4,.13,.47,.32l4.41,11.48c.1,.25-.01,.54-.26,.64-.06,.03-.13,.04-.2,.04h-.02Zm-16.09-1h15.33l-4-10.48h-14.85l3.52,10.48Z"/>
    <polygon id="eli6avd9uwp5n" class="cls-4" points="211.46 288.5 212.5 277.5 197.65 277.5 196.08 288.5 211.46 288.5"/>
    <path id="el8fnq68fwb37" class="cls-1" d="M211.46,289h-15.38c-.14,0-.28-.07-.37-.18-.1-.1-.14-.25-.12-.39l1.57-11c.03-.25,.24-.43,.49-.43h14.85c.14,0,.27,.06,.37,.16,.1,.1,.15,.25,.13,.39l-1,11c-.03,.27-.27,.47-.54,.45Zm-14.8-1h14.36l.94-10h-13.87l-1.43,10Z"/>
    <polygon id="elyu3ttn436c" class="cls-4" points="334.48 288.5 331.32 277.5 316.47 277.5 319.11 288.5 334.48 288.5"/>
    <path id="eluujsxv4k8b" class="cls-1" d="M334.48,289h-15.37c-.23,0-.44-.16-.49-.39l-2.64-11c-.04-.15,0-.31,.09-.43,.1-.12,.24-.19,.4-.19h14.85c.22,0,.42,.15,.48,.36l3.17,11c.07,.27-.09,.55-.36,.62-.04,.01-.08,.02-.13,.02h0Zm-15-.99h14.34l-2.88-10h-13.84l2.38,10Z"/>
    <polygon id="el1dcxdmvan55" class="cls-4" points="196.08 288.5 197.65 277.5 182.8 277.5 180.71 288.5 196.08 288.5"/>
    <path id="elu15jyjt5ag" class="cls-1" d="M196.08,289h-15.37c-.15,0-.29-.07-.39-.19-.09-.12-.13-.26-.11-.41l2.1-11c.04-.24,.25-.41,.49-.41h14.85c.15,0,.28,.06,.38,.17,.1,.11,.14,.26,.12,.4l-1.57,11c-.03,.25-.25,.44-.5,.44Zm-14.77-1h14.34l1.43-10h-13.87l-1.9,10Z"/>
    <polygon id="elco1ai6zyvdj" class="cls-4" points="242.22 288.5 242.21 277.5 227.36 277.5 226.84 288.5 242.22 288.5"/>
    <path id="elly56e2mqq8f" class="cls-1" d="M242.22,289h-15.38c-.14,0-.27-.06-.36-.16-.1-.1-.15-.23-.14-.37l.52-11c.01-.27,.23-.48,.5-.48h14.85c.28,0,.5,.22,.5,.5v11c0,.27-.23,.49-.5,.5h.01Zm-14.86-.99h14.36v-10h-13.89l-.47,10Z"/>
    <polygon id="elbemkxywees6" class="cls-4" points="180.71 288.5 182.8 277.5 167.95 277.5 165.33 288.5 180.71 288.5"/>
    <path id="el95yrfgqjg5w" class="cls-1" d="M180.71,289h-15.38c-.16,0-.3-.07-.4-.19-.09-.12-.12-.28-.09-.43l2.62-11c.06-.22,.26-.38,.49-.38h14.85c.15,0,.29,.07,.39,.18,.09,.12,.13,.27,.1,.41l-2.09,11c-.04,.24-.25,.41-.49,.41Zm-14.75-1h14.33l1.91-10h-13.86l-2.38,10Z"/>
    <polygon id="elq8ud1ctzf6g" class="cls-4" points="165.33 288.5 167.95 277.5 153.1 277.5 149.95 288.5 165.33 288.5"/>
    <path id="elnl19j3xnxn8" class="cls-1" d="M165.33,289h-15.38c-.16,0-.3-.08-.4-.2-.09-.13-.12-.29-.08-.44l3.15-11c.06-.21,.26-.36,.48-.36h14.85c.15,0,.3,.07,.39,.19,.1,.12,.13,.28,.1,.43l-2.63,11c-.05,.22-.25,.38-.48,.38Zm-14.72-1h14.32l2.39-10h-13.85l-2.86,10Z"/>
    <polygon id="elnr2k0uq6ia" class="cls-4" points="226.84 288.5 227.36 277.5 212.5 277.5 211.46 288.5 226.84 288.5"/>
    <path id="elye8id14ynbo" class="cls-1" d="M226.84,289h-15.38c-.14,0-.28-.06-.37-.17-.09-.1-.14-.24-.13-.38l1.05-11c.03-.25,.24-.45,.49-.45h14.86c.14,0,.27,.06,.36,.16,.09,.1,.14,.23,.14,.36l-.52,11c-.01,.27-.23,.48-.5,.48Zm-14.83-1h14.35l.47-10h-13.87l-.95,10Z"/>
    <polygon id="els09mxnm8q9" class="cls-4" points="319.11 288.5 316.47 277.5 301.61 277.5 303.73 288.5 319.11 288.5"/>
    <path id="elvxpwxvr6zn" class="cls-1" d="M319.11,289h-15.38c-.24,0-.45-.17-.49-.41l-2.12-11c-.05-.28,.13-.54,.41-.59,.03,0,.05,0,.08,0h14.86c.23,0,.43,.16,.48,.38l2.64,11c.07,.27-.1,.54-.37,.61-.04,0-.08,.01-.11,.01h0Zm-15-.99h14.33l-2.4-10h-13.82l1.89,10Z"/>
    <polygon id="elic2ari69jxa" class="cls-4" points="303.73 288.5 301.61 277.5 286.76 277.5 288.35 288.5 303.73 288.5"/>
    <path id="elgban3040cfi" class="cls-1" d="M303.73,289h-15.38c-.25,0-.46-.19-.49-.43l-1.59-11c-.02-.14,.02-.29,.11-.4,.1-.11,.24-.17,.38-.17h14.85c.24,0,.45,.17,.5,.41l2.11,11c.03,.15-.01,.3-.11,.41-.09,.12-.23,.18-.38,.18Zm-14.95-1h14.34l-1.92-10h-13.86l1.44,10Z"/>
    <polygon id="elj71str80ws" class="cls-4" points="272.97 288.5 271.91 277.5 257.06 277.5 257.59 288.5 272.97 288.5"/>
    <path id="elfy9dbn6fgbt" class="cls-1" d="M273.02,289h-15.42c-.27,0-.49-.21-.5-.48l-.54-11c-.01-.14,.04-.27,.14-.37,.09-.1,.22-.16,.36-.16h14.85c.26,0,.47,.2,.5,.45l1.06,11c.02,.28-.19,.53-.47,.55-.01,0-.02,0-.03,0h.05Zm-14.9-.99h14.3l-1-10h-13.84l.54,10Z"/>
    <polygon id="elfvlmmraensd" class="cls-4" points="310.38 323.03 293.34 323.03 276.31 323.03 259.28 323.03 242.25 323.03 225.22 323.03 208.19 323.03 191.15 323.03 174.12 323.03 157.09 323.03 140.06 323.03 136.27 336.26 153.94 336.26 171.6 336.26 189.27 336.26 206.93 336.26 224.6 336.26 242.26 336.26 259.93 336.26 277.59 336.26 295.25 336.26 312.92 336.26 310.38 323.03"/>
    <path id="el0uuzbd7dyoca" class="cls-1" d="M312.92,336.76H136.28c-.16,0-.3-.08-.4-.2-.1-.12-.13-.29-.08-.44l3.78-13.2c.06-.21,.26-.36,.48-.36h170.31c.24,0,.45,.17,.5,.41l2.54,13.22c.03,.14,0,.3-.1,.41-.1,.11-.24,.17-.39,.16Zm-176-1h175.39l-2.35-12.23H140.44l-3.52,12.23Z"/>
    <polygon id="elbdyrhknk46" class="cls-4" points="288.35 288.5 286.76 277.5 271.91 277.5 272.97 288.5 288.35 288.5"/>
    <path id="elr3i2mwuszrh" class="cls-1" d="M288.35,289h-15.33c-.26,0-.47-.2-.49-.46l-1.07-11c0-.14,.04-.28,.13-.38,.09-.11,.23-.17,.37-.17h14.85c.25,0,.46,.18,.5,.43l1.59,11c.02,.14-.03,.29-.12,.4-.11,.13-.27,.19-.43,.18Zm-14.92-1h14.34l-1.44-10h-13.87l.97,10Z"/>
    <rect id="elzsmvx6w3ymb" class="cls-4" x="49.3" y="359.49" width="378.52" height="5.37"/>
    <path id="elblofm8nkdv9" class="cls-4" d="M427.82,365.36H49.3c-.28,0-.5-.22-.5-.5v-5.37c0-.28,.22-.5,.5-.5H427.82c.28,0,.5,.22,.5,.5v5.37c0,.28-.22,.5-.5,.5Zm-378-1H427.32v-4.37H49.8l.02,4.37Z"/>
    <path id="elzr3jupbuawj" class="cls-4" d="M143.57,102.44h-16.5c-.83,0-1.5-.67-1.5-1.5s.67-1.5,1.5-1.5h16.5c.83,0,1.5,.67,1.5,1.5s-.67,1.5-1.5,1.5Z"/>
    <path id="elfllinl338nn" class="cls-1" d="M189.02,110.92h-62c-.83,0-1.5-.67-1.5-1.5s.67-1.5,1.5-1.5h62c.83,0,1.5,.67,1.5,1.5s-.67,1.5-1.5,1.5Z"/>
    <path id="elxay3fjr12uh" class="cls-1" d="M284.85,110.92h-61.95c-.83,0-1.5-.67-1.5-1.5s.67-1.5,1.5-1.5h61.95c.83,0,1.5,.67,1.5,1.5s-.67,1.5-1.5,1.5h0Z"/>
    <path id="el4lb8kgtgrgj" class="cls-4" d="M217.55,110.92h-24.53c-.83,0-1.5-.67-1.5-1.5s.67-1.5,1.5-1.5h24.51c.83,0,1.5,.67,1.5,1.5s-.67,1.5-1.5,1.5h.02Z"/>
    <path id="el2ytrbkikp14" class="cls-4" d="M162.73,119.38h-35.66c-.83,0-1.5-.67-1.5-1.5s.67-1.5,1.5-1.5h35.66c.83,0,1.5,.67,1.5,1.5s-.67,1.5-1.5,1.5Z"/>
    <path id="elycer1o6it1" class="cls-4" d="M202.84,119.38h-35.65c-.83,0-1.5-.67-1.5-1.5s.67-1.5,1.5-1.5h35.65c.83,0,1.5,.67,1.5,1.5s-.67,1.5-1.5,1.5Z"/>
    <path id="ell9cufp30d4q" class="cls-4" d="M242.95,119.38h-35.65c-.83,0-1.5-.67-1.5-1.5s.67-1.5,1.5-1.5h35.65c.83,0,1.5,.67,1.5,1.5s-.67,1.5-1.5,1.5Z"/>
    <path id="el7vh3mo9dh24" class="cls-4" d="M262.56,119.38h-15.15c-.83,0-1.5-.67-1.5-1.5s.67-1.5,1.5-1.5h15.15c.83,0,1.5,.67,1.5,1.5s-.67,1.5-1.5,1.5Z"/>
    <path id="elh28mf5zjymp" class="cls-4" d="M164.51,102.44h-16.49c-.83,0-1.5-.67-1.5-1.5s.67-1.5,1.5-1.5h16.49c.83,0,1.5,.67,1.5,1.5s-.67,1.5-1.5,1.5Z"/>
    <path id="elgbjdgta8468" class="cls-4" d="M262.56,102.44h-16.49c-.83,0-1.5-.67-1.5-1.5s.67-1.5,1.5-1.5h16.49c.83,0,1.5,.67,1.5,1.5s-.67,1.5-1.5,1.5h0Z"/>
    <path id="elj0eobqthfn8" class="cls-1" d="M240.72,102.44h-16.49c-.83,0-1.5-.67-1.5-1.5s.67-1.5,1.5-1.5h16.49c.83,0,1.5,.67,1.5,1.5s-.67,1.5-1.5,1.5Z"/>
    <path id="el0pe79m93sl6" class="cls-4" d="M217.1,102.44h-48.08c-.83,0-1.5-.67-1.5-1.5s.67-1.5,1.5-1.5h48.13c.83,0,1.5,.67,1.5,1.5s-.67,1.5-1.5,1.5h-.05Z"/>
    <path id="elxyyw9ocy6k8" class="cls-4" d="M143.57,154.14h-16.5c-.83,0-1.5-.67-1.5-1.5s.67-1.5,1.5-1.5h16.5c.83,0,1.5,.67,1.5,1.5s-.67,1.5-1.5,1.5Z"/>
    <path id="elbxb11yqyh44" class="cls-1" d="M189.02,162.61h-62c-.83,0-1.5-.67-1.5-1.5s.67-1.5,1.5-1.5h62c.83,0,1.5,.67,1.5,1.5s-.67,1.5-1.5,1.5Z"/>
    <path id="el0sloj8puc9n" class="cls-4" d="M284.85,162.61h-61.95c-.83,0-1.5-.67-1.5-1.5s.67-1.5,1.5-1.5h61.95c.83,0,1.5,.67,1.5,1.5s-.67,1.5-1.5,1.5h0Z"/>
    <path id="elgmw1g0va5ma" class="cls-4" d="M217.55,162.61h-24.53c-.83,0-1.5-.67-1.5-1.5s.67-1.5,1.5-1.5h24.51c.83,0,1.5,.67,1.5,1.5s-.67,1.5-1.5,1.5h.02Z"/>
    <path id="el3ccqswvfuut" class="cls-4" d="M162.73,171.08h-35.66c-.83,0-1.5-.67-1.5-1.5s.67-1.5,1.5-1.5h35.66c.83,0,1.5,.67,1.5,1.5s-.67,1.5-1.5,1.5Z"/>
    <path id="el757tuhw3mr" class="cls-4" d="M202.84,171.08h-35.65c-.83,0-1.5-.67-1.5-1.5s.67-1.5,1.5-1.5h35.65c.83,0,1.5,.67,1.5,1.5s-.67,1.5-1.5,1.5Z"/>
    <path id="elukh2laq81xd" class="cls-1" d="M242.95,171.08h-35.65c-.83,0-1.5-.67-1.5-1.5s.67-1.5,1.5-1.5h35.65c.83,0,1.5,.67,1.5,1.5s-.67,1.5-1.5,1.5Z"/>
    <path id="el33z1o8a7lue" class="cls-4" d="M262.56,171.08h-15.15c-.83,0-1.5-.67-1.5-1.5s.67-1.5,1.5-1.5h15.15c.83,0,1.5,.67,1.5,1.5s-.67,1.5-1.5,1.5Z"/>
    <path id="el6mrtzvs64ur" class="cls-4" d="M164.51,154.14h-16.49c-.83,0-1.5-.67-1.5-1.5s.67-1.5,1.5-1.5h16.49c.83,0,1.5,.67,1.5,1.5s-.67,1.5-1.5,1.5Z"/>
    <path id="elooglltpmd3b" class="cls-4" d="M262.56,154.14h-16.49c-.83,0-1.5-.67-1.5-1.5s.67-1.5,1.5-1.5h16.49c.83,0,1.5,.67,1.5,1.5s-.67,1.5-1.5,1.5h0Z"/>
    <path id="elhrcyrp6ouoq" class="cls-1" d="M240.72,154.14h-16.49c-.83,0-1.5-.67-1.5-1.5s.67-1.5,1.5-1.5h16.49c.83,0,1.5,.67,1.5,1.5s-.67,1.5-1.5,1.5Z"/>
    <path id="elivt6ytlwhs" class="cls-4" d="M217.1,154.14h-48.08c-.83,0-1.5-.67-1.5-1.5s.67-1.5,1.5-1.5h48.13c.83,0,1.5,.67,1.5,1.5s-.67,1.5-1.5,1.5h-.05Z"/>
    <path id="el64bmf0zdyr4" class="cls-4" d="M143.57,230.35h-16.5c-.83,0-1.5-.67-1.5-1.5s.67-1.5,1.5-1.5h16.5c.83,0,1.5,.67,1.5,1.5s-.67,1.5-1.5,1.5Z"/>
    <path id="els6b6xcmi75k" class="cls-1" d="M189.02,238.82h-62c-.83,0-1.5-.67-1.5-1.5s.67-1.5,1.5-1.5h62c.83,0,1.5,.67,1.5,1.5s-.67,1.5-1.5,1.5Z"/>
    <path id="el9x657rjve6u" class="cls-4" d="M284.85,238.82h-61.95c-.83,0-1.5-.67-1.5-1.5s.67-1.5,1.5-1.5h61.95c.83,0,1.5,.67,1.5,1.5s-.67,1.5-1.5,1.5h0Z"/>
    <path id="el04li8bqms2bv" class="cls-4" d="M217.55,238.82h-24.53c-.83,0-1.5-.67-1.5-1.5s.67-1.5,1.5-1.5h24.51c.83,0,1.5,.67,1.5,1.5s-.67,1.5-1.5,1.5h.02Z"/>
    <path id="els287s3vqkcq" class="cls-4" d="M162.73,247.29h-35.66c-.83,0-1.5-.67-1.5-1.5s.67-1.5,1.5-1.5h35.66c.83,0,1.5,.67,1.5,1.5s-.67,1.5-1.5,1.5Z"/>
    <path id="elmlvnjun0yt" class="cls-4" d="M202.84,247.29h-35.65c-.83,0-1.5-.67-1.5-1.5s.67-1.5,1.5-1.5h35.65c.83,0,1.5,.67,1.5,1.5s-.67,1.5-1.5,1.5Z"/>
    <path id="elgk0nty0oxuc" class="cls-1" d="M242.95,247.29h-35.65c-.83,0-1.5-.67-1.5-1.5s.67-1.5,1.5-1.5h35.65c.83,0,1.5,.67,1.5,1.5s-.67,1.5-1.5,1.5Z"/>
    <path id="el0gkgsaot83ye" class="cls-4" d="M262.56,247.29h-15.15c-.83,0-1.5-.67-1.5-1.5s.67-1.5,1.5-1.5h15.15c.83,0,1.5,.67,1.5,1.5s-.67,1.5-1.5,1.5Z"/>
    <path id="elc9xr7w1sv6g" class="cls-4" d="M164.51,230.35h-16.49c-.83,0-1.5-.67-1.5-1.5s.67-1.5,1.5-1.5h16.49c.83,0,1.5,.67,1.5,1.5s-.67,1.5-1.5,1.5Z"/>
    <path id="elhpu96k5grtc" class="cls-4" d="M262.56,230.35h-16.49c-.83,0-1.5-.67-1.5-1.5s.67-1.5,1.5-1.5h16.49c.83,0,1.5,.67,1.5,1.5s-.67,1.5-1.5,1.5h0Z"/>
    <path id="elojqgvturtw" class="cls-1" d="M240.72,230.35h-16.49c-.83,0-1.5-.67-1.5-1.5s.67-1.5,1.5-1.5h16.49c.83,0,1.5,.67,1.5,1.5s-.67,1.5-1.5,1.5Z"/>
    <path id="elkbzltlp8j8" class="cls-4" d="M217.1,230.35h-48.08c-.83,0-1.5-.67-1.5-1.5s.67-1.5,1.5-1.5h48.13c.83,0,1.5,.67,1.5,1.5s-.67,1.5-1.5,1.5h-.05Z"/>
    <path id="el0wz61pftsdmh" class="cls-4" d="M236.27,128.29h-16.49c-.83,0-1.5-.67-1.5-1.5s.67-1.5,1.5-1.5h16.49c.83,0,1.5,.67,1.5,1.5s-.67,1.5-1.5,1.5Z"/>
    <path id="elnm46h7cp8f" class="cls-4" d="M214.43,128.29h-16.49c-.83,0-1.5-.67-1.5-1.5s.67-1.5,1.5-1.5h16.49c.83,0,1.5,.67,1.5,1.5s-.67,1.5-1.5,1.5Z"/>
    <path id="elpvaw4n9mrb" class="cls-4" d="M190.81,128.29h-48.14c-.83,0-1.5-.67-1.5-1.5s.67-1.5,1.5-1.5h48.14c.83,0,1.5,.67,1.5,1.5s-.67,1.5-1.5,1.5Z"/>
    <path id="el7bk6vru6pev" class="cls-4" d="M236.27,143.44h-16.49c-.83,0-1.5-.67-1.5-1.5s.67-1.5,1.5-1.5h16.49c.83,0,1.5,.67,1.5,1.5s-.67,1.5-1.5,1.5Z"/>
    <path id="el2kppmxb9nol" class="cls-4" d="M214.43,143.44h-16.49c-.83,0-1.5-.67-1.5-1.5s.67-1.5,1.5-1.5h16.49c.83,0,1.5,.67,1.5,1.5s-.67,1.5-1.5,1.5Z"/>
    <path id="elm9gxvjfmd9r" class="cls-1" d="M190.81,143.44h-48.14c-.83,0-1.5-.67-1.5-1.5s.67-1.5,1.5-1.5h48.14c.83,0,1.5,.67,1.5,1.5s-.67,1.5-1.5,1.5Z"/>
    <path id="el2nmniaixlu5" class="cls-4" d="M159.16,135.92h-16.49c-.83,0-1.5-.67-1.5-1.5s.67-1.5,1.5-1.5h16.49c.83,0,1.5,.67,1.5,1.5s-.67,1.5-1.5,1.5Z"/>
    <path id="elyid9p80tm" class="cls-4" d="M181.02,135.92h-16.51c-.83,0-1.5-.67-1.5-1.5s.67-1.5,1.5-1.5h16.51c.83,0,1.5,.67,1.5,1.5s-.67,1.5-1.5,1.5Z"/>
    <path id="elizq53i6ehz" class="cls-1" d="M236.27,135.92h-48.14c-.83,0-1.5-.67-1.5-1.5s.67-1.5,1.5-1.5h48.14c.83,0,1.5,.67,1.5,1.5s-.67,1.5-1.5,1.5Z"/>
    <path id="elm9nksb1qd8s" class="cls-4" d="M236.27,181.33h-16.49c-.83,0-1.5-.67-1.5-1.5s.67-1.5,1.5-1.5h16.49c.83,0,1.5,.67,1.5,1.5s-.67,1.5-1.5,1.5Z"/>
    <path id="eld1dmrbbilto" class="cls-4" d="M214.43,181.33h-16.49c-.83,0-1.5-.67-1.5-1.5s.67-1.5,1.5-1.5h16.49c.83,0,1.5,.67,1.5,1.5s-.67,1.5-1.5,1.5Z"/>
    <path id="eligngzpme64b" class="cls-4" d="M190.81,181.33h-48.14c-.83,0-1.5-.67-1.5-1.5s.67-1.5,1.5-1.5h48.14c.83,0,1.5,.67,1.5,1.5s-.67,1.5-1.5,1.5Z"/>
    <path id="elter17ufuuzi" class="cls-4" d="M236.27,196.48h-16.49c-.83,0-1.5-.67-1.5-1.5s.67-1.5,1.5-1.5h16.49c.83,0,1.5,.67,1.5,1.5s-.67,1.5-1.5,1.5Z"/>
    <path id="elz3ll69b4tyc" class="cls-4" d="M214.43,196.48h-16.49c-.83,0-1.5-.67-1.5-1.5s.67-1.5,1.5-1.5h16.49c.83,0,1.5,.67,1.5,1.5s-.67,1.5-1.5,1.5Z"/>
    <path id="elcpg6r8yyszg" class="cls-1" d="M190.81,196.48h-48.14c-.83,0-1.5-.67-1.5-1.5s.67-1.5,1.5-1.5h48.14c.83,0,1.5,.67,1.5,1.5s-.67,1.5-1.5,1.5Z"/>
    <path id="elih4guts10x" class="cls-4" d="M159.16,188.92h-16.49c-.83,0-1.5-.67-1.5-1.5s.67-1.5,1.5-1.5h16.49c.83,0,1.5,.67,1.5,1.5s-.67,1.5-1.5,1.5Z"/>
    <path id="eliccsbxbkg6g" class="cls-4" d="M181.02,188.92h-16.51c-.83,0-1.5-.67-1.5-1.5s.67-1.5,1.5-1.5h16.51c.83,0,1.5,.67,1.5,1.5s-.67,1.5-1.5,1.5Z"/>
    <path id="elx33uuw8p4m" class="cls-1" d="M236.27,188.92h-48.14c-.83,0-1.5-.67-1.5-1.5s.67-1.5,1.5-1.5h48.14c.83,0,1.5,.67,1.5,1.5s-.67,1.5-1.5,1.5Z"/>
    <path id="elwrxamo7w1ig" class="cls-4" d="M159.16,205.4h-16.49c-.83,0-1.5-.67-1.5-1.5s.67-1.5,1.5-1.5h16.49c.83,0,1.5,.67,1.5,1.5s-.67,1.5-1.5,1.5Z"/>
    <path id="elz3a96c8rpgc" class="cls-4" d="M181.02,205.4h-16.51c-.83,0-1.5-.67-1.5-1.5s.67-1.5,1.5-1.5h16.51c.83,0,1.5,.67,1.5,1.5s-.67,1.5-1.5,1.5Z"/>
    <path id="el7yfvxi61jyq" class="cls-1" d="M236.27,205.4h-48.14c-.83,0-1.5-.67-1.5-1.5s.67-1.5,1.5-1.5h48.14c.83,0,1.5,.67,1.5,1.5s-.67,1.5-1.5,1.5Z"/>
    <path id="el0hk8tmyu3fuu" class="cls-4" d="M159.16,220.55h-16.49c-.83,0-1.5-.67-1.5-1.5s.67-1.5,1.5-1.5h16.49c.83,0,1.5,.67,1.5,1.5s-.67,1.5-1.5,1.5Z"/>
    <path id="el4z5gafsi3jt" class="cls-4" d="M181.02,220.55h-16.51c-.83,0-1.5-.67-1.5-1.5s.67-1.5,1.5-1.5h16.51c.83,0,1.5,.67,1.5,1.5s-.67,1.5-1.5,1.5Z"/>
    <path id="elpudu35tvcu" class="cls-1" d="M236.27,220.55h-48.14c-.83,0-1.5-.67-1.5-1.5s.67-1.5,1.5-1.5h48.14c.83,0,1.5,.67,1.5,1.5s-.67,1.5-1.5,1.5Z"/>
    <path id="el2o3wl7xfryg" class="cls-4" d="M236.27,212.97h-16.49c-.83,0-1.5-.67-1.5-1.5s.67-1.5,1.5-1.5h16.49c.83,0,1.5,.67,1.5,1.5s-.67,1.5-1.5,1.5Z"/>
    <path id="elut9ocjbgj7" class="cls-4" d="M214.43,212.97h-16.49c-.83,0-1.5-.67-1.5-1.5s.67-1.5,1.5-1.5h16.49c.83,0,1.5,.67,1.5,1.5s-.67,1.5-1.5,1.5Z"/>
    <path id="elvh6uflwoesj" class="cls-1" d="M190.81,212.97h-48.14c-.83,0-1.5-.67-1.5-1.5s.67-1.5,1.5-1.5h48.14c.83,0,1.5,.67,1.5,1.5s-.67,1.5-1.5,1.5Z"/>
    <rect id="elggyku3r42rs" class="cls-4" x="115.69" y="98" width="5.27" height="5.2"/>
    <rect id="elny80qhwyelq" class="cls-4" x="115.69" y="106.54" width="5.27" height="5.2"/>
    <rect id="el9lyu8cu591v" class="cls-4" x="115.69" y="115.09" width="5.27" height="5.2"/>
    <rect id="elhhm6n4de41" class="cls-4" x="115.69" y="123.63" width="5.27" height="5.2"/>
    <rect id="elcmpmqpgwzzj" class="cls-4" x="115.69" y="132.17" width="5.27" height="5.2"/>
    <rect id="elr236tz0y2m" class="cls-4" x="115.69" y="140.72" width="5.27" height="5.2"/>
    <rect id="el4je0kqo65h" class="cls-4" x="115.69" y="149.26" width="5.27" height="5.2"/>
    <rect id="elfo9m47vh2qe" class="cls-4" x="115.69" y="157.8" width="5.27" height="5.2"/>
    <rect id="el33nbo2iyp" class="cls-4" x="115.69" y="166.35" width="5.27" height="5.2"/>
    <rect id="elvkas2wmp3ge" class="cls-4" x="115.69" y="174.89" width="5.27" height="5.2"/>
    <rect id="elwwvy07eo8j" class="cls-4" x="115.69" y="183.43" width="5.27" height="5.2"/>
    <rect id="ellyh2z5knxgg" class="cls-4" x="115.69" y="191.98" width="5.27" height="5.2"/>
    <rect id="elbxjj0zv9ivi" class="cls-4" x="115.69" y="200.52" width="5.27" height="5.2"/>
    <rect id="elil92mo14qw" class="cls-4" x="115.69" y="209.06" width="5.27" height="5.2"/>
    <rect id="elfl02zc62epo" class="cls-4" x="115.69" y="217.61" width="5.27" height="5.2"/>
    <rect id="el84x4j91msz4" class="cls-4" x="115.69" y="226.15" width="5.27" height="5.2"/>
    <rect id="elk773c0ld4g" class="cls-4" x="115.69" y="234.69" width="5.27" height="5.2"/>
    <rect id="eleecn1u9oin" class="cls-4" x="115.69" y="243.24" width="5.27" height="5.2"/>
  </g>
  <g id="freepik--speech-bubble--inject-107">
    <path id="el19f6yxzj2e8" class="cls-4" d="M366.02,4.58c-31.58,0-57.18,25.59-57.19,57.17,0,15.61,6.38,30.55,17.67,41.34l-8.14,15.2,20-6.48c27.64,15.29,62.44,5.29,77.73-22.35,15.29-27.64,5.29-62.44-22.35-77.73-8.48-4.69-18.02-7.15-27.72-7.15Z"/>
    <path id="elul7t0ts4wlc" class="cls-4" d="M366.02,119.47c-9.7,0-19.25-2.45-27.75-7.12l-19.76,6.41c-.19,.06-.4,0-.54-.15-.13-.16-.15-.38-.05-.56l8-14.86c-22.88-22.17-23.46-58.69-1.3-81.58,22.17-22.88,58.69-23.46,81.58-1.3,11.22,10.87,17.55,25.83,17.55,41.45-.03,31.86-25.87,57.68-57.73,57.7Zm-27.7-8.16c.09,0,.17,.02,.24,.07,27.39,15.17,61.9,5.26,77.07-22.13,15.17-27.39,5.26-61.9-22.13-77.07-27.39-15.17-61.9-5.26-77.07,22.13-4.65,8.4-7.1,17.85-7.1,27.46-.06,15.5,6.27,30.33,17.51,41,.16,.16,.2,.4,.1,.6l-7.55,14.1,18.77-6.09,.16-.07Z"/>
    <path id="elb6ha8o4kz5o" class="cls-1" d="M363.33,.5c-31.58,0-57.18,25.59-57.19,57.17,0,15.61,6.38,30.55,17.67,41.34l-8.14,15.19,20-6.47c27.64,15.29,62.44,5.29,77.73-22.35,15.29-27.64,5.29-62.44-22.35-77.73-8.48-4.69-18.02-7.15-27.72-7.15Z"/>
    <path id="elrf8jc7bqh8f" class="cls-4" d="M363.33,115.38c-9.7,0-19.24-2.45-27.75-7.11l-19.75,6.41c-.2,.06-.41,0-.54-.16-.13-.16-.15-.38-.06-.56l8-14.85c-22.88-22.18-23.44-58.7-1.26-81.58,22.18-22.88,58.7-23.44,81.58-1.26s23.44,58.7,1.26,81.58c-10.87,11.21-25.82,17.54-41.44,17.53h-.04Zm-27.69-8.15c.08,0,.17,.02,.24,.06,27.44,15.23,62.03,5.34,77.26-22.1,15.23-27.44,5.34-62.03-22.1-77.26-27.44-15.23-62.03-5.34-77.26,22.1-12.53,22.57-8.27,50.76,10.38,68.62,.16,.15,.2,.4,.09,.59l-7.55,14.1,18.78-6.09,.16-.02Z"/>
    <g id="freepik--Code--inject-107">
      <path id="elxhzj3ov26td" class="cls-5" d="M344.18,81.26l-22-15.52v-8.23l22-15.67v8.3l-15.75,11.45,15.75,11.45v8.22Z"/>
      <path id="elpbgw1fwcl7" class="cls-5" d="M350.87,84.03l16.75-62.25h7.15l-16.83,62.25h-7.07Z"/>
      <path id="elgljkhbcffr" class="cls-5" d="M381.45,81.26v-8.22l15.83-11.53-15.83-11.37v-8.3l22.06,15.6v8.22l-22.06,15.6Z"/>
      <path id="elvol2gbloz4j" class="cls-4" d="M346.91,77.85l-22-15.52v-8.22l22-15.68v8.3l-15.76,11.45,15.76,11.45v8.22Z"/>
      <path id="elk5yvsdntl9s" class="cls-4" d="M353.59,80.62l16.75-62.24h7.15l-16.83,62.24h-7.07Z"/>
      <path id="elpu3bifsewr8" class="cls-4" d="M384.17,77.85v-8.22l15.85-11.52-15.85-11.38v-8.3l22.06,15.6v8.23l-22.06,15.59Z"/>
    </g>
  </g>
  <g id="freepik--hand-2--inject-107">
    <path id="elptis0q0qnk" class="cls-4" d="M319.85,365.45l34.63,28.59c1.74,4.15,4.03,8.04,6.81,11.57,4.77,6.13,60.6,29.28,60.6,29.28l9.53,2.72-104.17-78.3-7.4,6.14Z"/>
    <path id="el7j08s368gve" class="cls-4" d="M431.42,438.11s-.09,0-.14,0l-9.53-2.72c-2.34-1-56.06-23.29-60.85-29.45-2.79-3.53-5.09-7.43-6.83-11.58l-34.53-28.5c-.12-.1-.19-.24-.19-.39,0-.15,.07-.29,.18-.39l7.4-6.13c.18-.14,.44-.14,.62,0l104.17,78.3c.19,.15,.26,.41,.15,.63-.1,.15-.27,.24-.45,.23Zm-110.78-72.66l34.16,28.2c.07,.06,.12,.13,.15,.21,1.72,4.1,3.99,7.96,6.74,11.45,4.63,5.95,59.83,28.89,60.39,29.12l6.88,2-101.7-76.51-6.62,5.53Z"/>
    <path id="eldpo2l54ftn" class="cls-1" d="M387.3,342.74s-9.29-11.36-13.42-18.58-10-24.09-14.46-34.07-11-13.07-18.92-16.17-11-2.41-11-.34,3.1,5.85,3.1,5.85l-13.42,2.41s-5.51-3.1-8.95-2.07-10,7.57-10,7.57c0,0-6.88-2.41-11-1.38s-15.48,6.54-20.3,8.95-10,2.75-9.64,4.82,5.17,5.5,9.64,4.82,12-3.45,16.86-3.45,7.22,1,9.63,2.76,12.39,15.83,13.77,17.55,2.75,8.6,2.75,8.6c0,0-6.07-2.59-9.85-6s-9.2-11.51-15.4-12.19-12.94,4.81-9.5,7.56,6.88,4.47,9.29,7.57,6.19,12.39,12.73,22.37,20.64,16.17,20.64,16.17l29.25,12s7.57-17.89,21.68-22.71,18.24-6.86,18.24-6.86l-1.72-5.18Z"/>
    <path id="eljejvgsyjvn" class="cls-4" d="M349.1,377.99c-.06,0-.13,0-.19,0l-29.25-12.07c-.15-.07-14.33-6.37-20.87-16.36-3.18-4.95-6.09-10.06-8.72-15.32-1.17-2.42-2.5-4.76-4-7-1.68-1.95-3.64-3.64-5.82-5-1.1-.77-2.24-1.57-3.39-2.49-1.07-.77-1.43-2.2-.85-3.39,1.14-2.76,6.08-5.58,10.73-5.06s9.07,5.23,12.49,9c1.15,1.26,2.23,2.45,3.18,3.31,2.68,2.23,5.65,4.1,8.83,5.54-.51-2.29-1.54-6.28-2.45-7.42-.34-.42-1.16-1.53-2.28-3.07-3.37-4.59-9.62-13.13-11.39-14.39-2.36-1.68-4.64-2.66-9.34-2.66-2.92,0-7,1.07-10.58,2-2.3,.6-4.47,1.16-6.21,1.43-4.59,.7-9.79-2.79-10.2-5.23-.28-1.7,1.78-2.37,4.63-3.31,1.81-.53,3.57-1.2,5.27-2,2.6-1.29,15.77-7.82,20.41-9,3.78-.95,9.61,.83,11,1.29,1.19-1.17,6.77-6.52,10-7.48s8.21,1.51,9.17,2l12.43-2.23c-.92-1.23-2.69-3.79-2.69-5.5-.02-.68,.31-1.33,.88-1.71,1.61-1.1,5.35-.55,10.81,1.59,8.13,3.18,14.71,6.41,19.2,16.43,1.76,3.92,3.68,8.77,5.71,13.91,3.06,7.74,6.23,15.74,8.72,20.11,4.06,7.11,13.28,18.4,13.37,18.51,.04,.05,.07,.1,.09,.16l1.72,5.16c.08,.24-.03,.5-.25,.61-.17,.08-4.32,2.13-18.3,6.91-13.73,4.68-21.3,22.25-21.38,22.43-.08,.19-.27,.31-.48,.3Zm-63.48-65.77c-3.85,0-7.77,2.3-8.68,4.5-.4,.78-.16,1.73,.56,2.23,1.12,.9,2.25,1.69,3.34,2.45,2.25,1.42,4.27,3.18,6,5.2,1.53,2.29,2.9,4.68,4.08,7.17,2.63,5.22,5.52,10.31,8.68,15.23,6.38,9.74,20.29,15.93,20.43,16l28.78,11.86c1.31-2.84,8.89-18.14,21.78-22.54,11.58-4,16.46-6.07,17.78-6.67l-1.55-4.66c-.8-1-9.48-11.69-13.41-18.57-2.53-4.43-5.71-12.47-8.78-20.24-2-5.13-3.95-10-5.69-13.87-4.35-9.7-10.47-12.71-18.65-15.91-7.09-2.78-9.28-2.11-9.89-1.69-.29,.2-.46,.53-.44,.88,0,1.54,2.15,4.51,3,5.53,.18,.21,.14,.53-.07,.7-.07,.05-.15,.09-.23,.11l-13.42,2.41c-.11,.02-.23,0-.33-.06,0,0-5.36-3-8.56-2s-9.7,7.38-9.77,7.44c-.13,.14-.33,.19-.51,.12-.07,0-6.79-2.34-10.73-1.36-3.52,.88-13.08,5.35-20.2,8.91-1.75,.83-3.56,1.53-5.41,2.09-2.2,.72-4.1,1.34-4,2.2,.29,1.76,4.87,5,9.06,4.4,1.68-.26,3.83-.82,6.1-1.41,3.66-1,7.8-2,10.84-2,5,0,7.46,1.09,9.92,2.85,1.75,1.25,6.91,8.19,11.61,14.61,1.08,1.47,1.93,2.63,2.26,3,1.43,1.8,2.79,8.53,2.85,8.82,.04,.18-.03,.37-.17,.49-.15,.11-.35,.14-.52,.07-3.6-1.57-6.97-3.63-10-6.13-1-.89-2.08-2.1-3.25-3.38-3.31-3.65-7.44-8.2-11.86-8.69-.27-.07-.61-.09-.95-.09Z"/>
    <path id="eltvj6s84yzq" class="cls-4" d="M259.29,300.23c-.28,.03-.53-.16-.56-.44s.16-.53,.44-.56c0,0,3.35-.85,4.29-1.16,.7-.3,1.35-.7,1.92-1.2,.21-.18,.53-.15,.71,.06,.18,.2,.16,.51-.05,.69,0,0,0,0-.01,0-.67,.58-1.44,1.05-2.26,1.39-1,.32-4.22,1.15-4.35,1.18l-.13,.03Z"/>
    <path id="els1nxrz0q6s" class="cls-4" d="M332.9,314.92c-.12,0-.24-.04-.33-.13-2.34-2.35-4.05-5.26-4.95-8.45-1.19-4-4.91-6-6.9-7l-.39-.21c-4.43-2.38-20.18-11.18-20.33-11.27-.24-.14-.33-.44-.2-.68,.13-.24,.44-.33,.68-.2,0,0,0,0,0,0,.16,.09,15.9,8.9,20.32,11.27l.39,.21c2,1,6.08,3.21,7.39,7.63,.86,3.01,2.46,5.76,4.66,8,.2,.19,.22,.5,.03,.71-.1,.11-.23,.16-.37,.16v-.04Z"/>
    <path id="elwzmd6ag21h" class="cls-4" d="M345.66,305.05c-.19,0-.36-.11-.45-.28,0,0-1.73-3.47-3.43-6.52-1.33-2.39-4-3-5.5-3.36-.32-.07-.58-.13-.76-.19-1.06-.36-14.06-10.45-16.66-12.47-.23-.15-.29-.47-.13-.69,.15-.23,.47-.29,.69-.13,.02,.01,.03,.02,.05,.04,5.89,4.58,15.54,12,16.38,12.31,.15,.05,.38,.1,.66,.17,1.49,.34,4.6,1.06,6.15,3.84,1.7,3.08,3.43,6.53,3.45,6.56,.12,.25,.02,.55-.23,.67,0,0,0,0,0,0-.07,.04-.14,.06-.22,.06Z"/>
    <path id="elfcw00v69tuk" class="cls-4" d="M351.17,297.13c-.15,0-.29-.06-.38-.17-.36-.41-9-10.07-11.08-14.21-1.87-3.74-7-2.84-7-2.83-.27,.05-.53-.13-.59-.4-.05-.27,.13-.53,.4-.58,.06,0,5.91-1.06,8.11,3.36,2,4,10.85,13.9,10.94,14,.19,.19,.19,.51,0,.7-.11,.1-.25,.15-.4,.13Z"/>
    <path id="eltgawxy9zaao" class="cls-4" d="M283.38,324.31c-.19,0-.36-.1-.45-.27-.12-.25-.02-.55,.23-.67,0,0,0,0,0,0,1.03-.52,1.84-1.4,2.29-2.46,.17-.7,.01-1.43-.42-2-1.89-2.83-5.74-2.87-5.78-2.87-.28,0-.5-.22-.5-.5s.22-.5,.5-.5c.18,0,4.42,0,6.61,3.32,.6,.8,.8,1.82,.56,2.79-.52,1.35-1.53,2.45-2.82,3.09-.07,.04-.14,.07-.22,.07Z"/>
    <path id="elh63i1mmykm" class="cls-5" d="M386.61,338.27s-18.58,4.81-30.28,17.89-11.7,24.09-10.67,25.81,23.36,13.76,23.36,13.76c0,0,13.76-26.5,23.4-33s16.6-8.29,16.6-8.29c0,0-17.2-11-17.89-12.39s-2.11-4.82-4.52-3.78Z"/>
    <path id="elqbc4yn744f" class="cls-4" d="M369.02,396.23c-.08,0-.17-.02-.24-.06-3.75-2-22.54-12.2-23.59-13.95s-1.2-13.07,10.72-26.39c11.42-12.76,29.55-17.78,30.49-18,2.61-1.08,4.16,2.1,4.9,3.64l.19,.4c.6,1,11.18,8,17.71,12.19,.17,.11,.26,.3,.23,.5-.03,.2-.18,.36-.38,.4-.06,0-6.92,1.79-16.35,8.19s-23.1,32.59-23.24,32.85c-.06,.12-.16,.21-.29,.25l-.15-.02Zm18.4-57.65c-.23,0-.45,.05-.66,.15h-.07c-.18,.05-18.57,4.94-30,17.74s-11.59,23.59-10.61,25.22c.72,1.17,14.15,8.69,22.76,13.34,1.92-3.63,14.27-26.62,23.33-32.77,4.81-3.37,10.06-6.07,15.6-8-4.23-2.72-16.49-10.68-17.15-12l-.2-.41c-.76-1.6-1.69-3.27-2.96-3.27h-.04Zm-.85-.31h0Z"/>
    <path id="elak78nppzc7w" class="cls-5" d="M438.91,441.84s-18.93-9.64-23.4-12.05l-35.1-18.87c-2-.54-3.95-1.23-5.85-2.06-2.06-1-5.16-.69-6.53-7.92s2.06-21.68,17.55-36.13,25.11-13.76,25.11-13.76c0,0,6.54-.69,8.26,.69s2.07,5.5,3.79,6.19,49.33,15,49.33,15"/>
    <path id="elzerc5t2y3k" class="cls-4" d="M438.91,442.34c-.08,0-.16-.02-.23-.06-.19-.09-19-9.66-23.41-12l-35-18.9c-2.01-.54-3.98-1.24-5.89-2.09-.36-.17-.73-.31-1.11-.44-2-.71-4.51-1.58-5.69-7.83s1.16-21.15,17.69-36.58c15.48-14.44,25.11-13.92,25.5-13.9,.6-.07,6.71-.67,8.53,.8,.93,.94,1.62,2.09,2,3.35,.48,1.22,1,2.48,1.69,2.77,1.68,.67,48.82,14.8,49.29,14.94,.28,.08,.44,.36,.36,.64-.08,.28-.36,.44-.64,.36-2-.59-47.66-14.29-49.38-15-1.1-.44-1.66-1.84-2.25-3.32-.32-1.09-.89-2.1-1.66-2.94-1.28-1-6.13-.77-7.89-.58-.19,0-9.74-.46-24.83,13.63-16.22,15.13-18.57,29.54-17.4,35.67,1.08,5.67,3.18,6.41,5,7.07,.42,.13,.83,.3,1.23,.49,1.87,.81,3.79,1.48,5.76,2h.1l35.1,18.92c4.41,2.38,23.2,11.95,23.39,12,.24,.13,.34,.42,.22,.67-.07,.2-.27,.33-.48,.33Z"/>
    <path id="elwdrnaxptfkc" class="cls-4" d="M387.64,408.27c-.18,0-.35-.1-.44-.25-4.85-8.67-2.89-18.84-2.8-19.27,.05-.27,.31-.44,.57-.39,0,0,0,0,0,0,.27,.05,.45,.31,.4,.58,0,0,0,0,0,0,0,.1-2,10.24,2.7,18.58,.13,.24,.04,.55-.2,.68-.07,.04-.16,.06-.24,.06h0Z"/>
    <path id="eljvz19ry6gfl" class="cls-4" d="M393.15,412.4c-.18,0-.34-.09-.43-.24-3.05-4.95-4.32-8.21-3.77-9.7,.09-.3,.31-.55,.6-.67,.26-.08,.54,.06,.63,.32,.08,.23-.03,.49-.25,.6-.07,.12-.86,1.61,3.64,8.93,.15,.23,.08,.54-.16,.69,0,0,0,0,0,0-.08,.05-.17,.07-.26,.07Zm-3.28-9.66h0Z"/>
  </g>
  <g id="freepik--hand-1--inject-107">
    <path id="elarnv3765kze" class="cls-4" d="M177.67,335.08s-22.68,27-29.49,32.4c-4.08,3.27-8.41,6.23-12.94,8.85l-24.51,24.52s.68,3.4-6.12,7.49-20.43,8.85-23.83,10.21-40.86,18.37-40.86,18.37l137.75-101.84Z"/>
    <path id="el3gh4ipb3ip1" class="cls-4" d="M39.92,437.43c-.17,0-.34-.09-.43-.24-.13-.22-.07-.51,.14-.66l137.74-101.85c.21-.17,.53-.14,.7,.07,.16,.19,.15,.47-.02,.66-.93,1.1-22.79,27.05-29.56,32.46-4.09,3.27-8.42,6.23-12.94,8.87l-24.3,24.3c0,.95-.4,4.13-6.39,7.72-5.57,3.35-15.62,7.13-21,9.16-1.25,.46-2.24,.84-2.88,1.09-3.35,1.34-40.46,18.21-40.83,18.38-.07,.03-.15,.04-.23,.04Zm134.57-99.38L44.02,434.52c10-4.53,33.84-15.35,36.56-16.44l2.89-1.1c5.38-2,15.38-5.78,20.87-9.07,6.35-3.81,5.9-6.94,5.89-7-.02-.16,.03-.33,.14-.45l24.51-24.51,.14-.03c4.5-2.62,8.8-5.56,12.87-8.81,5.25-4.19,20.32-21.69,26.6-29.06Z"/>
    <path id="el6t38xm7e1kc" class="cls-1" d="M210.57,293.83c-2.38,.72-11,.24-11,.24,0,0-5.24-4-7.86-6.44s-9.3-16.45-12.64-17.17-17.41,7.4-17.41,7.4c0,0-11.44-5-14.3-4.53s-12.17,8.82-12.17,8.82c0,0-12.87-1.91-15.26,1.91s-6.2,16-10,23.6-17.65,27.9-17.65,27.9l-1.9,2.62s2.86,1,11.68,5.49,22.89,26,22.89,26c0,0,19.55-9.06,30.52-14.07s19.79-16,22.18-20.51,6.44-8.82,11.44-12.87,14.31-5.73,16.46-8.59-1.44-7.15-1.44-7.15c1.32-.71,2.6-1.51,3.82-2.39,1.19-1,6-3.57,6.44-6.43s-1.41-4.54-3.8-3.83Zm-36.72,22.89l4.53-13.8c1.91,1.43,10.26,4.53,10.26,4.53-5.49,1.4-14.79,9.27-14.79,9.27Z"/>
    <path id="el8yww1318zws" class="cls-4" d="M125.02,370.16c-.17,0-.33-.09-.42-.23-.14-.21-14.09-21.4-22.7-25.82s-11.58-5.44-11.61-5.45c-.26-.09-.41-.37-.32-.63,.01-.04,.03-.08,.05-.11l1.91-2.62c.13-.19,13.85-20.32,17.6-27.83,1.88-3.75,3.78-8.68,5.46-13,1.8-4.65,3.35-8.66,4.58-10.63,2.37-3.8,13.69-2.42,15.52-2.17,1.55-1.37,9.45-8.32,12.24-8.79s12.42,3.63,14.36,4.47c2.22-1.27,14.25-8,17.54-7.33,2.09,.45,4.84,4.76,8.5,10.79,1.75,2.89,3.41,5.62,4.37,6.5,2.36,2.14,6.91,5.69,7.72,6.32,1.16,.06,8.54,.4,10.64-.23h0c1.15-.4,2.43-.18,3.37,.6,1,.98,1.41,2.42,1.08,3.78-.42,2.52-3.67,4.72-5.61,6-.43,.29-.78,.53-1,.71-1.08,.79-2.21,1.51-3.38,2.15,.91,1.25,3,4.71,1.09,7.29-1.15,1.54-4,2.67-7.31,4s-6.77,2.69-9.23,4.68c-5.42,4.39-9.12,8.55-11.32,12.73s-11.13,15.58-22.45,20.7c-10.84,4.95-30.32,14-30.52,14.07-.05,.02-.1,.04-.16,.05Zm-33.83-32.24c1.25,.49,4.51,1.88,11.12,5.27,8.31,4.27,20.89,22.87,22.84,25.8,2.82-1.3,20.14-9.32,30.13-13.89,11.1-5.06,19.72-16,22-20.28s6-8.56,11.57-13c2.58-2.09,6.25-3.55,9.49-4.84,3-1.21,5.89-2.35,6.88-3.66,1.88-2.51-1.39-6.49-1.42-6.53-.09-.11-.13-.26-.11-.41,.03-.15,.12-.28,.26-.35,1.29-.7,2.54-1.48,3.74-2.34,.24-.19,.61-.44,1.07-.75,1.69-1.15,4.84-3.28,5.18-5.38,.27-1.02-.01-2.1-.75-2.86-.68-.55-1.6-.7-2.42-.39h0c-2.44,.73-10.79,.28-11.14,.26-.1,0-.2-.04-.28-.1-.05-.05-5.29-4.1-7.9-6.47-1.07-1-2.69-3.64-4.56-6.72-2.54-4.19-6-9.94-7.85-10.33-2.57-.57-13.18,5.11-17.05,7.34-.14,.07-.31,.07-.45,0-3.14-1.37-11.8-4.86-14-4.49s-9.35,6.41-11.91,8.7c-.11,.1-.26,.15-.41,.12-3.49-.51-12.95-1.22-14.76,1.68-1.18,1.89-2.79,6.05-4.5,10.46s-3.6,9.32-5.49,13.1c-3.79,7.58-17.54,27.76-17.68,28l-1.6,2.06Zm119.38-44.12h0Zm-36.72,23.42c-.1,0-.2-.03-.28-.08-.18-.13-.26-.36-.19-.57l4.53-13.83c.04-.15,.17-.28,.32-.32,.15-.05,.32-.02,.45,.07,1.83,1.37,10.05,4.43,10.13,4.46,.28,0,.5,.22,.5,.5s-.22,.5-.5,.5c-5.31,1.38-14.49,9.12-14.59,9.19-.11,.08-.24,.11-.37,.08Zm4.81-13.55l-3.8,11.58c2.51-2,8-6.21,12.28-7.86-2.9-1.07-5.73-2.31-8.48-3.72Z"/>
    <path id="elpxoscc2casm" class="cls-4" d="M126.16,298.38c-.24,0-.45-.17-.49-.41-.07-.43-.72-4.22-.22-5.73s7.93-9,9.42-10.45c.2-.2,.51-.2,.71,0,.2,.2,.2,.51,0,.71-3.38,3.38-8.86,9.1-9.18,10.06s.06,4.15,.26,5.24c.04,.27-.14,.53-.41,.58h-.09Z"/>
    <path id="elbyrt8j9dtcn" class="cls-4" d="M133.79,303.15s-.09,0-.14,0c-.26-.07-.41-.33-.34-.59,0-.01,0-.02,0-.03l1.9-6.2c.03-.1,.1-.2,.19-.26l26-18.6c.22-.16,.54-.11,.7,.12,0,0,0,0,0,0,.16,.22,.11,.53-.11,.68,0,0,0,0,0,0l-25.85,18.5-1.86,6c-.05,.23-.26,.38-.49,.37Z"/>
    <path id="el6oztf63ubva" class="cls-4" d="M146.67,307.68h-.08c-.27-.05-.45-.3-.41-.57,.16-1,1.05-6.21,2.32-7.23s9-2.84,10.34-3.17c2.53-2.18,14-12,16.44-12,1,0,3.68,1.16,8.33,3.21,5.63,2.49,13.34,5.89,15.94,5.61,.28-.03,.52,.17,.55,.45,.03,.28-.17,.52-.44,.55-2.87,.31-10.09-2.88-16.45-5.69-3.49-1.54-7.09-3.13-7.93-3.13-1.6,0-10.59,7.24-15.88,11.8-.07,.05-.14,.09-.22,.11-3.46,.82-9.25,2.36-10,3s-1.58,4.21-2,6.6c-.02,.27-.24,.47-.51,.46Z"/>
    <path id="elqnh8gav5iq" class="cls-4" d="M208.9,298.58c-1.3,.09-2.57-.39-3.48-1.31-.57-.66-.75-1.25-.52-1.76,.42-.93,2-1,2.33-1h0c.28,0,.5,.22,.5,.5,0,.27-.21,.49-.48,.5,0,0,0,0-.01,0-.58,0-1.33,.18-1.43,.4,0,.07,0,.29,.36,.69,1.51,1.73,5.07,.71,6.41,.33,.25-.08,.52,.06,.6,.31,0,0,0,.02,0,.03,.08,.26-.06,.53-.32,.61,0,0-.01,0-.02,0-1.28,.41-2.61,.64-3.95,.69Z"/>
    <path id="elx1u0b3c5x2g" class="cls-4" d="M188.64,307.92c-.28,0-.5-.22-.5-.5,0-.18,.09-.34,.24-.43,.36-.21,8.92-5.11,16-.95,.24,.13,.32,.43,.19,.67,0,0,0,0,0,.01-.14,.24-.45,.32-.69,.18-6.57-3.86-14.91,.91-15,.95-.07,.04-.15,.07-.23,.07Z"/>
    <path id="el4viouocdvfr" class="cls-4" d="M199.6,316.75c-.24,0-.45-.18-.49-.42l-.24-1.43c-.54-1.76-1.24-3.48-2.1-5.11-.06-.13-.06-.28,0-.41,.05-.13,.16-.23,.29-.28l4.77-1.67c.25-.11,.55,0,.66,.25,.11,.25,0,.55-.25,.66-.03,.01-.05,.02-.08,.03l-4.23,1.49c.8,1.56,1.45,3.19,1.94,4.87l.24,1.43c.04,.27-.14,.53-.41,.58h-.1Z"/>
    <path id="eljvn9j8g3rhr" class="cls-4" d="M169.56,326.76c-.07,.02-.13,.02-.2,0-.26-.11-.37-.41-.26-.67l4.3-9.53c.11-.25,.39-.36,.64-.26,0,0,.01,0,.02,0,.25,.11,.36,.41,.25,.66l-4.29,9.49c-.08,.18-.26,.3-.46,.3Z"/>
    <path id="elmwietleaee" class="cls-5" d="M60.59,353.68s15-9.77,20.51-13.83,8.34-3.34,11.2-4.29,17.17,3.36,26.72,15.26,8.58,20.74,7.39,23.13-31.23,20.51-31.23,20.51c0,0-4.3-17.17-16.93-27.43s-17.66-13.35-17.66-13.35Z"/>
    <path id="el2pwkra98c74" class="cls-4" d="M95.17,394.92c-.06,.01-.13,.01-.19,0-.15-.06-.26-.19-.3-.34,0-.17-4.4-17.13-16.76-27.16s-17.54-13.28-17.59-13.31c-.15-.09-.24-.25-.24-.42,0-.17,.09-.33,.23-.43,.15-.1,15.07-9.81,20.48-13.81,2.6-2.07,5.71-3.39,9-3.84,.81-.11,1.6-.29,2.38-.52,3.4-1.14,17.94,3.78,27.25,15.42,9.73,12.16,8.68,21.21,7.45,23.66s-28.37,18.85-31.46,20.75c-.08,.02-.17,.02-.25,0Zm-33.66-41.24c1.73,1.16,7,4.83,17,13,11.23,9.11,16,23.79,16.92,27,11.6-7,29.68-18.35,30.48-20,1.15-2.3,2.08-10.84-7.33-22.6-9.57-12-23.78-15.89-26.16-15.1-.82,.26-1.67,.45-2.52,.57-3.13,.42-6.08,1.68-8.54,3.65-4.75,3.59-16.92,11.57-19.85,13.48Z"/>
    <path id="elei3bbokgsvc" class="cls-5" d="M.5,382.21s27.83-17,32.47-19.8,10-6.6,10-6.6c0,0,1.46-7.36,8.54-7.61,7.08-.25,13.92,2.54,23.19,7.61s20.75,23.61,22,31,3.66,9.64,1.71,14.46-9.28,5.08-10.74,5.08-4.88,3.05-4.88,3.05l-52.24,34"/>
    <path id="elsj8kw4ip5y8" class="cls-4" d="M30.53,443.92c-.17,0-.33-.09-.42-.23-.15-.22-.09-.53,.13-.68,0,0,.01,0,.02-.01l52.23-34c.54-.49,3.58-3.13,5.16-3.13,1.39,0,8.44-.23,10.28-4.76,1.21-3,.66-4.89-.26-8-.63-2.02-1.12-4.09-1.48-6.18-1.23-7.38-12.64-25.64-21.72-30.61-8.87-4.85-15.8-7.82-22.93-7.55-6.61,.23-8.06,7.14-8.07,7.21-.03,.12-.1,.24-.2,.31-.06,0-5.44,3.85-10,6.62S1.02,382.46,.76,382.63c-.23,.14-.53,.08-.68-.15,0,0,0,0,0,0-.15-.23-.08-.54,.16-.69,0,0,0,0,0,0,.28-.17,27.89-17,32.47-19.8,4.14-2.49,8.92-5.83,9.83-6.47,.31-1.22,2.25-7.57,9-7.81,7.37-.27,14.43,2.74,23.45,7.67,9.29,5.09,21,23.77,22.22,31.32,.36,2.05,.84,4.07,1.46,6.06,.91,3.11,1.57,5.36,.22,8.68-2.07,5.13-9.69,5.39-11.2,5.39-.93,0-3.28,1.79-4.55,2.92l-52.3,34.06c-.09,.07-.2,.11-.31,.12Z"/>
    <path id="el4pf7cxspk2e" class="cls-4" d="M84.67,402.33c-.1,0-.19-.03-.27-.08-.23-.14-.3-.44-.16-.67,0,0,0-.01,.01-.02,4-6.19,2.3-7.76,2.29-7.77-.21-.18-.24-.49-.07-.7,.16-.21,.46-.26,.67-.1,0,0,0,0,0,0,.26,.19,2.43,2.1-2.06,9.1-.09,.14-.25,.23-.42,.23Z"/>
    <path id="elrovz0lq1wqj" class="cls-4" d="M76.87,410.76c-.13,0-.26-.05-.36-.14-.2-.19-.2-.51,0-.71,0,0,0,0,0,0,3.71-3.52,6.09-8.21,6.71-13.29,0-.28,.22-.5,.5-.5s.5,.22,.5,.5c0,.3-.4,7.41-7,14-.09,.09-.22,.14-.35,.14Z"/>
  </g>
</svg>