<svg width="800" height="1000" xmlns="http://www.w3.org/2000/svg">
 <g>
  <title>Layer 1</title>
  <polyline fill="none" stroke="#000" opacity="NaN" points="399,174 " id="svg_8" stroke-linecap="round"/>
  <polyline fill="none" stroke="#000" opacity="NaN" points="479,190 " id="svg_9" stroke-linecap="round"/>
  <polyline fill="none" stroke="#000" opacity="NaN" points="628,181 " id="svg_10" stroke-linecap="round"/>
  <polyline fill="none" stroke="#000" opacity="NaN" points="845,429 " id="svg_11" stroke-linecap="round"/>
  <polyline fill="none" stroke="#000" opacity="NaN" points="445,187 " id="svg_12" stroke-linecap="round"/>
  <polyline fill="none" stroke="#000" opacity="NaN" points="892,245 " id="svg_13" stroke-linecap="round"/>
  <polyline fill="none" stroke="#fff" opacity="NaN" points="512,323 " id="svg_14" stroke-linecap="round"/>
  <polyline fill="none" stroke="#fff" opacity="NaN" points="839,304 " id="svg_15" stroke-linecap="round"/>
  <polyline fill="none" stroke="#fff" opacity="NaN" points="1049,306 " id="svg_16" stroke-linecap="round"/>
  <polyline stroke-linecap="round" id="svg_7" points="582,268 583,268 583,268 " stroke="#000" fill="none"/>
  <path d="m1143,311c0,0 -1,0 -1,-1l0,0" id="svg_17" stroke="#000" fill="none"/>
  <polyline stroke-linecap="round" id="svg_18" points="362,275 362,275 " stroke="#000" fill="none"/>
  <path d="m3.33424,83.33195c0,1.66666 0,1.66666 1.66666,3.33333c1.66666,1.66666 1.66666,1.66666 1.66666,1.66666c1.66666,1.66666 2.69552,3.46019 3.33333,4.99998c0.90199,2.1776 1.82981,3.04071 4.99999,4.99998c1.41775,0.87621 2.69552,1.79353 3.33333,3.33333c0.90199,2.1776 3.46019,2.69553 4.99999,3.33333c2.1776,0.90199 3.82148,2.15482 4.99999,3.33333c1.1785,1.1785 3.33332,1.66666 4.99999,3.33332c1.66666,1.66666 2.82239,4.098 4.99999,4.99999c1.53979,0.6378 4.99999,1.66666 6.66665,3.33332c1.66667,1.66666 5.12686,2.69553 6.66665,3.33333c2.1776,0.90199 3.64333,2.82092 6.66665,4.99999c1.91211,1.37817 3.91031,2.84242 6.66665,6.66664c2.17908,3.02332 4.52353,5.35278 8.33332,9.99998c1.49432,1.82277 3.89581,8.84999 6.66665,13.3333c2.47832,4.00999 5.57697,7.84241 8.33331,11.66664c4.35817,6.04663 5.69315,11.26843 8.33331,16.66663c2.31558,4.73454 5.94916,11.88831 8.33331,18.3333c2.58598,6.99057 4.59219,13.5533 8.33332,19.99995c3.0162,5.19745 5.31712,11.46918 8.33331,16.66663c3.74113,6.44664 9.99998,14.99997 13.33331,18.33328c3.33334,3.33334 6.97665,6.15424 9.99997,8.33331c3.82423,2.75635 4.99998,3.33334 8.33331,5c3.33333,1.66666 5.13074,1.31638 9.99998,3.33331c3.4431,1.42618 9.99997,1.66669 19.99995,1.66669c4.99998,0 14.99997,0 23.33328,0c8.33331,0 10.14299,-0.70074 13.3333,-1.66669c5.75139,-1.74136 8.48253,-4.78635 13.3333,-8.33331c8.6145,-6.29907 11.15422,-10.30997 13.33331,-13.3333c4.13452,-5.73633 8.46788,-11.64085 9.99997,-19.99995c1.82767,-9.9718 1.66666,-18.33328 1.66666,-26.6666c0,-9.99998 -1.50565,-13.36148 -3.33331,-23.33328c-1.53209,-8.3591 -6.37436,-21.76886 -9.99998,-31.6666c-3.08711,-8.42763 -6.32611,-18.4852 -11.66664,-29.99993c-3.13606,-6.76168 -4.99997,-9.99998 -6.66664,-13.33331c-1.66667,-3.33333 -3.76083,-6.32831 -5,-8.33331c-2.77084,-4.48331 -3.33331,-8.33331 -3.33331,-9.99998c0,-3.33332 -1.66667,-4.99998 -1.66667,-8.33331c0,-1.66666 0,-3.33333 0,-4.99999c0,-1.66666 1.66667,-3.33332 1.66667,-4.99998c0,-1.66666 -0.51094,-4.098 1.66666,-4.99998c1.53979,-0.6378 4.99998,-3.33332 6.66666,-4.99999c1.66666,-1.66666 4.70624,-2.47709 8.33331,-3.33332c1.62207,-0.38292 3.33333,-1.66666 4.99998,-1.66666c1.66666,0 3.33333,0 6.66666,0c4.99998,0 16.71658,-0.81455 23.33328,0c6.82034,0.83962 9.8902,1.90715 13.33328,3.33332c4.86926,2.01692 9.70624,4.14375 13.33331,4.99999c3.24414,0.76584 6.55688,1.90715 9.99997,3.33332c4.86926,2.01691 8.33331,4.99999 11.66666,6.66666c3.33331,1.66666 6.95514,3.08788 8.33331,4.99998c2.17908,3.02332 5.34467,4.68774 8.33331,8.33331c3.80978,4.64719 8.45319,9.9221 11.66663,14.99997c5.19681,8.21201 7.79016,14.41177 10,19.99995c3.72809,9.42754 3.33331,16.66663 3.33331,24.99994c0,8.33331 0,16.66663 0,23.33328c0,6.66666 -0.37366,9.83801 -1.66666,13.3333c-2.38416,6.44499 -5,11.66664 -6.66666,16.66663c-1.66666,5 -7.3526,10.67332 -13.33331,18.3333c-2.90106,3.71562 -10.28412,11.39778 -14.99997,16.66663c-7.11728,7.95189 -11.66663,13.33331 -16.66663,18.3333c-1.66666,1.66666 -6.35443,5.3447 -9.99997,8.33331c-4.64722,3.80978 -13.19714,11.85355 -19.99994,16.66663c-4.90558,3.47076 -13.02994,10.37811 -23.3333,18.33328c-11.34825,8.76196 -26.4915,20.24411 -44.99989,33.33325c-26.4213,18.68512 -38.41348,28.23083 -53.33321,39.99994c-8.37877,6.60941 -23.71471,19.54932 -31.6666,26.6666c-12.29395,11.0036 -19.06735,17.64954 -28.33327,28.33325c-5.46,6.29544 -10.24762,14.9097 -14.99996,28.33328c-1.75893,4.96829 -3.33333,9.99997 -3.33333,14.99997c0,3.33331 0.00001,8.33331 1.66666,13.33328c1.66667,5 5.48096,11.44714 8.33331,18.33331c2.01691,4.86923 3.33335,6.66663 6.66666,9.99994c1.66667,1.66669 3.33334,3.33337 4.99998,5c1.66668,1.66669 3.33334,3.33337 4.99999,5c1.66667,1.66669 3.03958,2.47711 6.66665,3.33331c1.62208,0.38293 3.33333,1.66669 4.99998,3.33337c0,0 2.15485,0.48816 3.33333,1.66663c2.35702,2.35699 3.03957,0.81042 6.66665,1.66669c1.62208,0.38293 6.92038,-1.27557 9.99998,0c2.17758,0.90198 8.27303,-0.19312 13.3333,-1.66669c6.59778,-1.92126 11.51295,-4.16034 18.3333,-5c3.30833,-0.40729 6.66664,-1.66663 8.33331,-1.66663c0,0 1.15572,-0.76471 3.33333,-1.66669c3.07957,-1.27563 6.92038,-0.39099 9.99997,-1.66663c2.17761,-0.90198 4.48904,-2.4314 6.66666,-3.33337c1.53979,-0.63782 2.8224,-0.76465 4.99998,-1.66663c3.07961,-1.27557 5.04303,-1.13275 8.33331,-1.66669c5.20239,-0.84424 7.58189,-4.92526 13.3333,-6.66666c1.59515,-0.48297 3.64334,0.51242 6.66666,-1.66666c1.91211,-1.37817 3.33333,-1.66666 4.99998,-1.66666c1.66667,0 2.8224,-0.76468 5,-1.66666c3.07959,-1.2756 4.99998,0 6.66664,0c1.66667,0 3.03958,-0.81042 6.66666,-1.66666c1.62207,-0.3829 3.33333,0 6.66664,0c1.66666,0 2.82242,0.76468 5,1.66666c1.53979,0.63779 3.33331,0 5,0c1.66666,0 3.03955,0.81042 6.66663,1.66666c1.6221,0.38293 3.33334,0 5,0c0,0 1.71124,1.28375 3.33331,1.66666c3.62711,0.85623 5.12686,1.02884 6.66666,1.66666c2.17761,0.90201 1.15573,2.43137 3.33334,3.33334c1.53979,0.63782 1.66666,0 1.66666,0c1.66666,0 1.66666,1.66663 3.33331,3.33331c1.66666,1.66669 4.70737,0.16315 6.66666,3.33331c0.87622,1.41779 2.15485,3.82153 3.33334,5c1.1785,1.17853 3.46017,1.02887 4.99997,1.66669c2.17758,0.90198 4.70737,3.49646 6.66666,6.66663c1.75244,2.83545 3.33331,5 5,6.66669c1.66666,1.66663 1.8298,4.70734 4.99997,6.66663c1.41776,0.87622 4.12378,3.58221 5,5c1.95929,3.17017 5.12683,4.36218 6.66666,5c2.17758,0.90198 2.82239,4.09796 4.99997,4.99994c1.53983,0.63782 4.75455,1.9552 6.66666,3.33337c3.02332,2.17908 6.66666,3.33331 9.99997,4.99994c3.33334,1.66669 8.03958,4.1438 11.66666,5c1.62207,0.38293 3.42249,0.90088 6.66666,1.66669c3.62704,0.8562 6.66666,3.33331 9.99997,3.33331c3.33331,0 5,1.66669 9.99997,1.66669c1.66666,0 8.33331,0 9.99997,0c5,0 6.70969,0.53394 10,0c5.20239,-0.84424 8.13089,-2.48914 13.33328,-3.33337c1.64517,-0.26697 6.72681,-1.03625 10,-1.66663c8.81329,-1.69727 14.88492,-3.72955 19.99994,-5c9.83896,-2.44379 14.89658,-4.16382 24.99994,-5c6.64395,-0.54987 9.99997,-1.66663 14.99997,-1.66663c1.66666,0 3.33334,0 5,0c0,0 0.04459,-0.38293 1.66666,0c3.62711,0.8562 11.22763,7.62854 24.99997,13.33325c4.8692,2.01691 8.33331,3.33337 9.99994,5c0,0 1.02887,0.12689 1.66669,1.66669c0.90198,2.17755 3.33331,3.33331 3.33331,5c0,1.66663 1.02887,3.46021 1.66669,5c0.90198,2.17755 1.66663,4.99994 1.66663,6.66663c0,1.66669 1.71918,4.02014 -1.66663,10c-1.16132,2.05109 -1.1543,6.97662 -3.33337,9.99994c-1.37817,1.91211 -1.15417,3.64331 -3.33331,6.66669c-1.37811,1.91205 -1.66663,4.99994 -3.33331,6.66663c-1.66669,1.66669 -3.62183,3.08783 -5,5c-2.17908,3.02332 -4.99994,6.66663 -6.66663,8.33331c-1.66669,1.66669 -4.48761,3.64331 -6.66669,6.66663c-1.37817,1.91211 -3.46021,2.6955 -4.99994,3.33331c-2.17761,0.90198 -3.33337,3.33337 -6.66669,5c-3.33331,1.66669 -4.99997,3.33331 -8.33331,5c-3.33331,1.66669 -5,1.66669 -8.33331,3.33331c-3.33331,1.66669 -5.13074,2.98309 -9.99997,5c-3.44312,1.42621 -8.33331,1.66663 -11.66666,3.33331c-3.33334,1.66669 -5.08914,2.56757 -8.33331,3.33337c-3.62704,0.8562 -6.79736,2.98303 -11.66663,4.99994c-3.44312,1.42615 -8.55499,2.61584 -14.99997,5c-3.49527,1.29297 -9.48901,4.09802 -11.66663,5c-3.07959,1.27563 -6.37292,2.47711 -10,3.33331c-4.86621,1.14874 -13.43884,2.95691 -19.99994,5c-13.59607,4.2337 -21.33734,7.38806 -31.6666,11.66663c-4.86926,2.01691 -8.03955,4.14374 -11.66666,5c-3.24414,0.76587 -5.04456,1.28375 -6.66663,1.66669c-3.62708,0.8562 -6.37292,4.14374 -10,4.99994c-1.62207,0.38293 -3.08786,1.9552 -4.99997,3.33337c-3.02332,2.17908 -5,3.33331 -6.66666,4.99994c-1.66669,1.66669 -3.58224,2.45715 -5,3.33337c-3.17017,1.95929 -3.08786,5.28845 -4.99997,6.66663c-3.02332,2.17914 -3.33334,3.33331 -5,5c-1.66666,1.66669 -4.09799,2.82239 -5,5c-0.63779,1.53973 -1.28372,3.37787 -1.66666,5c-0.85623,3.62708 -2.43134,4.48901 -3.33331,6.66663c-0.63782,1.53979 0,3.33331 0,5c0,3.33331 1.02884,3.46021 1.66666,5c0.90198,2.17755 2.6955,5.12683 3.33331,6.66663c0.90201,2.17761 4.03146,4.03143 6.66666,6.66663c2.63525,2.63525 3.03958,5.81042 6.66666,6.66669c1.62207,0.38293 3.08786,1.95514 5,3.33331c3.02332,2.17908 4.99997,3.33331 8.33331,3.33331c1.66666,0 6.1557,2.43134 8.33331,3.33331c6.15921,2.55115 12.9837,3.31708 24.99994,5c6.60223,0.92468 13.58701,1.27557 16.66663,0c2.17758,-0.90198 6.97668,-1.15424 9.99997,-3.33331c1.91211,-1.37817 6.37402,-3.49646 8.33331,-6.66663c0.87622,-1.41779 1.66666,-3.33337 3.33334,-6.66669c1.66666,-3.33331 2.43134,-7.82239 3.33331,-9.99994c1.27563,-3.07965 0,-5 0,-8.33331c0,-1.66669 0,-5 0,-5c-1.66666,-3.33331 -1.95514,-4.75458 -3.33331,-6.66669c-2.17908,-3.02332 -2.43137,-6.1557 -3.33334,-8.33331c-0.63779,-1.53979 -1.79352,-2.6955 -3.33331,-3.33331c-2.17758,-0.90198 -1.66666,-3.33331 -3.33334,-5c-1.66666,-1.66663 -3.46017,-2.6955 -4.99997,-3.33331c-2.17761,-0.90198 -3.82147,-3.82147 -5,-5c-2.35699,-2.35699 -5,0 -6.66666,0c-3.33331,0 -9.99997,0 -14.99997,0c-4.99997,0 -8.33331,-1.66663 -9.99997,-1.66663c-1.66666,0 -5.01245,-0.20361 -6.66666,0c-6.82034,0.8396 -14.77417,4.42194 -28.33325,6.66663c-19.7998,3.27783 -35.39725,2.68378 -51.66656,6.66669c-8.7178,2.13422 -21.6666,4.99994 -29.99992,8.33331c-8.3333,3.33331 -16.50108,7.02063 -23.33328,9.99994c-13.0529,5.69196 -18.43552,8.04095 -28.33327,11.66663c-8.42764,3.08716 -12.01944,4.5235 -16.66663,8.33331c-3.64558,2.98871 -6.97665,4.48761 -9.99997,6.66669c-1.91209,1.37817 -3.33331,3.33331 -5,5c-1.66664,1.66663 -3.33334,3.33331 -4.99998,4.99994c-1.66667,1.66669 -3.33334,3.33337 -4.99998,5c-1.66669,1.66669 -3.44333,3.12939 -6.66666,5c-5.19743,3.01617 -8.33327,6.66669 -14.99996,13.33331c-1.66665,1.66663 -5.30999,2.82092 -8.33331,5c-1.91209,1.37817 -4.03143,2.36475 -6.66666,5c-2.63522,2.63519 -5.31,4.48755 -8.33331,6.66663c-5.73633,4.13452 -8.64331,7.82092 -11.66664,10c-1.91209,1.37817 -5.49782,3.2475 -8.33331,4.99994c-3.17021,1.95929 -3.33331,5 -4.99998,6.66669c-1.66665,1.66663 -4.12376,3.58221 -4.99999,5c-1.95929,3.17017 -5.12685,2.6955 -6.66665,3.33331c-2.17758,0.90198 -2.82238,2.43134 -4.99999,3.33331c-3.07959,1.27563 -5,1.66669 -8.33332,3.33331c-3.33334,1.66669 -6.15573,2.43134 -8.33331,3.33331c-3.0796,1.27557 -4.70623,2.47711 -8.33331,3.33337c-1.62208,0.38293 -4.48907,0.76465 -6.66665,1.66663c-1.5398,0.63782 -2.82238,0.76471 -4.99999,1.66669c-3.07959,1.27563 -4.99999,0 -6.66665,0c0,0 -3.46019,-0.63782 -4.99999,0c-2.17758,0.90198 -3.33333,1.66663 -6.66665,1.66663c-1.66666,0 -3.58705,1.27557 -6.66665,0c-2.17758,-0.90198 -3.97812,-3.19598 -8.33331,-4.99994c-1.5398,-0.63782 -3.64332,-1.1543 -6.66665,-3.33337c-1.91209,-1.37817 -3.33334,-3.33331 -4.99999,-4.99994c-1.66668,-1.66669 -4.48907,-7.43134 -6.66665,-8.33331c-3.0796,-1.27557 -3.50566,-1.51056 -4.99999,-3.33337c-3.80976,-4.64716 -14.99997,-19.99994 -33.33326,-44.99988l-19.99995,-24.99994l-19.99995,-21.66663" id="svg_44" stroke-width="5" stroke="#000" fill="none"/>
 </g>

</svg>