<?xml version="1.0" encoding="UTF-8"?><svg id="Calque_2" xmlns="http://www.w3.org/2000/svg" viewBox="0 0 601.47 5921.42"><g id="Calque_1-2"><path d="m540.57.42c-1.63,3.39-5.16,11.95-2.66,21.82,2.93,11.55,12.33,17.78,16.63,20.62,10.87,7.19,16.81,4.74,29.93,11.97,7.47,4.12,12.72,8.86,15.8,11.97" style="fill:none; stroke:#fabeb3; stroke-miterlimit:10;"/><path d="m501.33.42c15.73,10.06,22.25,20.6,25.27,28.47,2.89,7.5,1.9,10.75,5.99,19.29,2.62,5.49,8.32,17.4,19.95,23.28,10.81,5.47,16.27.42,32.59,5.99,6.67,2.28,11.8,5.18,15.13,7.32" style="fill:none; stroke:#fabeb3; stroke-miterlimit:10;"/><path d="m4.98,123.99c24.69,7,38.27,18.3,46.08,27.27,8.24,9.46,8.62,14.66,21.95,33.92,6.11,8.83,15.5,22.4,26.6,33.25,14.11,13.79,26.41,18.7,59.86,33.25,62.69,27.28,56.05,25.93,64.51,28.6,40.67,12.83,59.86,1.6,125.04-2.66,42.95-2.81,95.54-6.25,149.64,9.98,45.47,13.64,79.24,37.33,101.59,56.53" style="fill:none; stroke:#fabeb3; stroke-miterlimit:10;"/><path d="m600.26,648.08c-27.92,12.54-69.52,27.12-120.88,29.26-31.97,1.33-37.17-3.43-97.1-9.31-94.26-9.26-142.17-13.47-180.24,6.65-14.53,7.68-5.97,6.44-71.83,55.2-33.52,24.82-52.53,37.57-79.14,39.9-19.44,1.7-35.72-2.79-46.08-6.65" style="fill:none; stroke:#fabeb3; stroke-miterlimit:10;"/><path d="m600.26,668.03c-12.05,4.57-20.52,10.41-25.77,14.63-24.48,19.65-44.18,56.16-36.58,79.81,1.17,3.64,4.53,11.78,3.33,22.61-.89,8-3.85,13.69-4.66,15.3-7.18,14.27-13.62,42.08-21.28,75.15-12,51.79,16.94,63.82,15.96,148.31-.39,33.43-4.99,38.27,0,56.53,10.42,38.11,42.93,62.56,69,77.32" style="fill:none; stroke:#fabeb3; stroke-miterlimit:10;"/><path d="m4.98,863.57c9.89,86.47,37.05,129.56,61.38,152.97,5.25,5.06,17.83,16.37,37.24,35.91,33.54,33.77,50.49,51.05,59.86,70.5,16.13,33.52,4.09,45.29,17.29,69.17,17.18,31.07,46.71,24.88,94.44,50.55,58.59,31.5,45.7,55.4,103.75,89.12,20,11.62,66.77,35.06,129.03,34.58,40.25-.31,72.35-10.51,92.28-18.62" style="fill:none; stroke:#fabeb3; stroke-miterlimit:10;"/><path d="m4.98,1278.58c22.24,15.71,62.84,49.48,78.67,102.42,4.68,15.64,8.76,29.94,3.99,46.56-7.88,27.47-30.55,28.63-47.89,62.52-4.66,9.1-15.15,29.61-11.97,54.54,1.66,13.01,10.44,29.24,27.93,61.19,8.34,15.22,10.41,18.01,17.29,30.59,14.57,26.64,19.01,39.25,26.6,54.54,24.78,49.9,40.72,45.55,58.53,87.79,7.41,17.57,16,37.95,13.3,63.85-3.79,36.46-27.53,60.54-43.9,77.15-42.62,43.25-94.06,58.17-122.57,63.85" style="fill:none; stroke:#fabeb3; stroke-miterlimit:10;"/><path d="m600.26,1515.35c-14.53,12.09-33.51,31.97-44.39,61.19-21.08,56.58-2.94,124.35,44.39,176.91" style="fill:none; stroke:#fabeb3; stroke-miterlimit:10;"/><path d="m533.83,680.66c-3.93-.07-13.46.22-23.4,5.8-4.29,2.41-9.03,5.07-8.8,8.2.29,3.86,8.06,6.68,13.6,7.4,17.16,2.22,35.15-12.85,33.4-18.2-.96-2.94-7.94-3.07-14.8-3.2Z" style="fill:none; stroke:#fabeb3; stroke-miterlimit:10;"/><path d="m70.99,1043.97c-6.09,2.08-8.97,19.48-1.15,29.84,3.88,5.13,11.42,9.92,15.88,7.65,5.61-2.85,5.25-16.32.38-25.44-3.26-6.1-10.36-13.67-15.11-12.05Z" style="fill:none; stroke:#fabeb3; stroke-miterlimit:10;"/><path d="m594.44,1267.94c-14.37,3.03-25.59,13.17-27.93,25.27-3.27,16.88,10.82,36.94,33.75,39.9" style="fill:none; stroke:#fabeb3; stroke-miterlimit:10;"/><path d="m56.8,1492.63c-5.47,1.39-4.18,21.47-4.04,23.67.13,1.99,1.86,26.15,10.97,27.71,4.35.74,9.26-3.86,11.54-8.08,8.83-16.28-11.42-45.09-18.47-43.29Z" style="fill:#fabeb3; stroke:#fabeb3; stroke-miterlimit:10;"/><path d="m585.1,1862.71c-16.23-8.54-47.68,7.13-49.63,25.27-1.46,13.54,13.85,25.42,25.27,34.29,10.42,8.09,18.08,14.04,24.36,11.73,15.27-5.62,21.71-59.87,0-71.29Z" style="fill:none; stroke:#fabeb3; stroke-miterlimit:10;"/><path d="m57.77,1915.6c-4.03,7.96-10.69,21.13-4.66,27.93,5.07,5.71,17.13,4.75,24.61-.67,11.97-8.67,8.17-25.83,7.98-26.6-1.53-6.41-6.47-16.5-13.3-16.63-6.49-.12-11.01,8.81-14.63,15.96Z" style="fill:none; stroke:#fabeb3; stroke-miterlimit:10;"/><path d="m4.98,302.57c10.36,11.68,25.42,31.62,35.11,59.86,14.86,43.32,8.48,81.04,5.99,94.77-7.27,40.06-19.78,38.91-24.94,77.81-4.29,32.34,3.2,41.77,0,77.81-2.59,29.21-10.14,52.58-16.16,67.84" style="fill:none; stroke:#fabeb3; stroke-miterlimit:10;"/><path d="m4.98,2068.36c17.49,8.12,43.66,23.47,61.05,51.88,25.82,42.19,7.63,72.98,34.92,114.73,10.66,16.31,12.12,9.6,69.83,56.86,46.46,38.05,69.98,57.59,83.8,82.8,19.18,34.98,8.42,45.78,26.94,69.83,23.21,30.17,56.76,34.8,97.77,46.89,79.42,23.41,84.27,50.29,146.65,66.84,30.76,8.16,56.98,10.92,74.32,11.97" style="fill:none; stroke:#fabeb3; stroke-miterlimit:10;"/><path d="m600.26,2636.01c-22.6,16.96-56.16,46.14-85.3,90.78-15.44,23.66-78.65,120.53-53.87,222.47,17.62,72.48,59.61,64.76,73.82,129.69,17.88,81.66-46.94,101.17-62.85,242.42-6.53,57.94-14.18,125.85,20.95,182.57,10.1,16.31,25.59,34.68,40.9,70.83,13.36,31.56,13.64,46.07,25.94,79.81,7.39,20.27,19.65,48.91,40.4,81.8" style="fill:none; stroke:#fabeb3; stroke-miterlimit:10;"/><path d="m4.98,2427.51c19.56,14.8,51.26,42.88,74.02,87.79,40.14,79.19,24.51,155.53,17.96,187.55-18.06,88.24-68,145.45-91.98,169.6" style="fill:none; stroke:#fabeb3; stroke-miterlimit:10;"/><path d="m4.98,3437.1c18.71,11.27,44.75,28.94,72.02,54.87,42.69,40.59,77.8,73.96,85.8,122.71,8.14,49.59-19.2,69.87-2,124.7,6.17,19.66,14.63,32.83,24.94,48.88,39.72,61.83,72.95,64.38,87.79,96.77,25.84,56.38-32.63,140.8-75.82,181.57-73.58,69.45-166.15,72.04-192.74,71.83" style="fill:none; stroke:#fabeb3; stroke-miterlimit:10;"/><path d="m600.26,4048.64c-78.41,38.56-111.1,84.02-126.2,119.71-30.04,71.03,5.93,111.99-30.93,194.54-7.18,16.08-41.84,93.72-108.74,109.74-40.26,9.64-49.91-13.15-107.74-13.97-57.14-.81-142.55,20.1-166.6,73.82-17.31,38.66,11.2,62.93-5.99,118.72-11.02,35.76-33.4,60.44-49.08,74.82" style="fill:none; stroke:#fabeb3; stroke-miterlimit:10;"/><path d="m4.98,4812.82c26.57,23.11,65.45,61.08,101.95,115.72,42.52,63.65,92.27,138.1,68.84,199.52-19.05,49.95-67.33,41.02-92.78,100.76-12.02,28.2-2.86,33.97-3.99,127.7-1.49,123.39-17.86,155.64-36.91,175.58-14.67,15.36-31.06,23.55-41.9,27.93" style="fill:none; stroke:#fabeb3; stroke-miterlimit:10;"/><path d="m600.26,4764.94c-13.97,52.96-39.79,130.83-90.28,216.48-27.52,46.68-33.2,46.19-47.89,76.82-36.12,75.32-55.86,191.08-6.98,302.28,41.28,93.92,113.46,143.54,145.15,162.61" style="fill:none; stroke:#fabeb3; stroke-miterlimit:10;"/><path d="m601.26,5587.98c-40.66,18.93-98.49,50.87-156.13,103.75-95.67,87.78-104.62,154.19-175.58,197.53-47.36,28.92-126.37,50.02-263.57,7.98" style="fill:none; stroke:#fabeb3; stroke-miterlimit:10;"/><path d="m13.12,2532.2c-8.07,1.58-11.28,36.39,2,53.87,2.71,3.56,4.34,4.09,5.49,3.99,5.92-.52,11.69-18.99,7.98-34.92-2.5-10.74-10.16-23.99-15.46-22.95Z" style="fill:none; stroke:#fabeb3; stroke-miterlimit:10;"/><path d="m42.03,3421.69c-1.35,8.42,5.1,9.38,22.44,41.14,9.2,16.86,12.06,25.16,19.45,26.18,7.28,1.01,14.95-5.61,18.7-11.97,6.07-10.3,1.14-18.74,0-38.9-1.6-28.21,6.67-35.91.75-41.89-11.66-11.76-57.86,3.78-61.34,25.43Z" style="fill:none; stroke:#fabeb3; stroke-miterlimit:10;"/><path d="m528.89,4128.2c-8.2-2.5-20.18,8.81-22.13,20.97-1.45,9.02,2.24,20.79,9.32,22.72,8.3,2.26,19.75-9.46,21.55-21.55,1.27-8.54-1.85-20.03-8.74-22.13Z" style="fill:#fabeb3; stroke:#fabeb3; stroke-miterlimit:10;"/><path d="m101.96,4077.04c-2.97,5.46.9,14.19,5.99,18.46,9.61,8.06,25.66,1.93,35.91-2,7.64-2.92,19.38-7.41,18.95-11.97-.88-9.38-53.2-18.59-60.86-4.49Z" style="fill:none; stroke:#fabeb3; stroke-miterlimit:10;"/><path d="m136.56,5031.94c-8.3.76-18.9,45.95-1.5,57.86,4.26,2.92,11.69,4.86,15.96,1.5,12.26-9.68-5.46-60.19-14.47-59.36Z" style="fill:none; stroke:#fabeb3; stroke-miterlimit:10;"/><path d="m512.89,5657c-37.27,26.91-42.84,28.92-42.68,35.45.31,13.09,23.2,27.5,44.13,25.32,23.9-2.49,38.8-25.92,41.23-44.85,1.49-11.55-.61-29.58-10.13-33.28-6.09-2.37-11.87,2.43-32.55,17.36Z" style="fill:#fabeb3; stroke:#fabeb3; stroke-miterlimit:10;"/><path d="m499.1,2872.53c-8.77,1.88-7.51,34.83-7.41,37.07.5,11.39,1.37,31.38,12.51,35.68,6.85,2.64,16.6-1.03,21.31-7.41,14.34-19.43-15.16-67.75-26.41-65.33Z" style="fill:#fabeb3; stroke:#fabeb3; stroke-miterlimit:10;"/></g></svg>