<svg width="602" height="5922" viewBox="0 0 602 5922" fill="none" xmlns="http://www.w3.org/2000/svg">
<g clip-path="url(#clip0_643_2)">
<path opacity="0.3" d="M540.57 0.419922C538.94 3.80992 535.41 12.3699 537.91 22.2399C540.84 33.7899 550.24 40.0199 554.54 42.8599C565.41 50.0499 571.35 47.5999 584.47 54.8299C591.94 58.9499 597.19 63.6899 600.27 66.7999" stroke="#FABEB3" stroke-opacity="0.5" stroke-miterlimit="10"/>
<path d="M501.33 0.419922C517.06 10.4799 523.58 21.0199 526.6 28.8899C529.49 36.3899 528.5 39.6399 532.59 48.1799C535.21 53.6699 540.91 65.5799 552.54 71.4599C563.35 76.9299 568.81 71.8799 585.13 77.4499C591.8 79.7299 596.93 82.6299 600.26 84.7699" stroke="#FABEB3" stroke-opacity="0.5" stroke-miterlimit="10"/>
<path d="M4.97998 123.99C29.67 130.99 43.25 142.29 51.06 151.26C59.3 160.72 59.68 165.92 73.01 185.18C79.12 194.01 88.51 207.58 99.61 218.43C113.72 232.22 126.02 237.13 159.47 251.68C222.16 278.96 215.52 277.61 223.98 280.28C264.65 293.11 283.84 281.88 349.02 277.62C391.97 274.81 444.56 271.37 498.66 287.6C544.13 301.24 577.9 324.93 600.25 344.13" stroke="#FABEB3" stroke-opacity="0.5" stroke-miterlimit="10"/>
<path d="M600.26 648.08C572.34 660.62 530.74 675.2 479.38 677.34C447.41 678.67 442.21 673.91 382.28 668.03C288.02 658.77 240.11 654.56 202.04 674.68C187.51 682.36 196.07 681.12 130.21 729.88C96.6898 754.7 77.6797 767.45 51.0697 769.78C31.6297 771.48 15.3497 766.99 4.98975 763.13" stroke="#FABEB3" stroke-opacity="0.5" stroke-miterlimit="10"/>
<path d="M600.26 668.03C588.21 672.6 579.74 678.44 574.49 682.66C550.01 702.31 530.31 738.82 537.91 762.47C539.08 766.11 542.44 774.25 541.24 785.08C540.35 793.08 537.39 798.77 536.58 800.38C529.4 814.65 522.96 842.46 515.3 875.53C503.3 927.32 532.24 939.35 531.26 1023.84C530.87 1057.27 526.27 1062.11 531.26 1080.37C541.68 1118.48 574.19 1142.93 600.26 1157.69" stroke="#FABEB3" stroke-opacity="0.5" stroke-miterlimit="10"/>
<path d="M4.97998 863.57C14.87 950.04 42.03 993.13 66.36 1016.54C71.61 1021.6 84.19 1032.91 103.6 1052.45C137.14 1086.22 154.09 1103.5 163.46 1122.95C179.59 1156.47 167.55 1168.24 180.75 1192.12C197.93 1223.19 227.46 1217 275.19 1242.67C333.78 1274.17 320.89 1298.07 378.94 1331.79C398.94 1343.41 445.71 1366.85 507.97 1366.37C548.22 1366.06 580.32 1355.86 600.25 1347.75" stroke="#FABEB3" stroke-opacity="0.5" stroke-miterlimit="10"/>
<path d="M4.97996 1278.58C27.22 1294.29 67.82 1328.06 83.65 1381C88.33 1396.64 92.41 1410.94 87.64 1427.56C79.76 1455.03 57.09 1456.19 39.75 1490.08C35.09 1499.18 24.6 1519.69 27.78 1544.62C29.44 1557.63 38.22 1573.86 55.71 1605.81C64.05 1621.03 66.12 1623.82 73 1636.4C87.57 1663.04 92.01 1675.65 99.6 1690.94C124.38 1740.84 140.32 1736.49 158.13 1778.73C165.54 1796.3 174.13 1816.68 171.43 1842.58C167.64 1879.04 143.9 1903.12 127.53 1919.73C84.91 1962.98 33.47 1977.9 4.95996 1983.58" stroke="#FABEB3" stroke-opacity="0.5" stroke-miterlimit="10"/>
<path d="M600.26 1515.35C585.73 1527.44 566.75 1547.32 555.87 1576.54C534.79 1633.12 552.93 1700.89 600.26 1753.45" stroke="#FABEB3" stroke-opacity="0.5" stroke-miterlimit="10"/>
<path d="M533.83 680.66C529.9 680.59 520.37 680.88 510.43 686.46C506.14 688.87 501.4 691.53 501.63 694.66C501.92 698.52 509.69 701.34 515.23 702.06C532.39 704.28 550.38 689.21 548.63 683.86C547.67 680.92 540.69 680.79 533.83 680.66Z" stroke="#FABEB3" stroke-opacity="0.5" stroke-miterlimit="10"/>
<path d="M70.9898 1043.97C64.8998 1046.05 62.0198 1063.45 69.8398 1073.81C73.7198 1078.94 81.2598 1083.73 85.7198 1081.46C91.3298 1078.61 90.9698 1065.14 86.0998 1056.02C82.8398 1049.92 75.7398 1042.35 70.9898 1043.97Z" stroke="#FABEB3" stroke-opacity="0.5" stroke-miterlimit="10"/>
<path d="M594.44 1267.94C580.07 1270.97 568.85 1281.11 566.51 1293.21C563.24 1310.09 577.33 1330.15 600.26 1333.11" stroke="#FABEB3" stroke-opacity="0.5" stroke-miterlimit="10"/>
<path d="M56.8001 1492.63C51.3301 1494.02 52.62 1514.1 52.76 1516.3C52.89 1518.29 54.6201 1542.45 63.7301 1544.01C68.0801 1544.75 72.99 1540.15 75.27 1535.93C84.1 1519.65 63.8501 1490.84 56.8001 1492.64V1492.63Z" fill="#FABEB3" fill-opacity="0.5" stroke="#FABEB3" stroke-opacity="0.5" stroke-miterlimit="10"/>
<path d="M585.1 1862.71C568.87 1854.17 537.42 1869.84 535.47 1887.98C534.01 1901.52 549.32 1913.4 560.74 1922.27C571.16 1930.36 578.82 1936.31 585.1 1934C600.37 1928.38 606.81 1874.13 585.1 1862.71Z" stroke="#FABEB3" stroke-opacity="0.5" stroke-miterlimit="10"/>
<path d="M57.7701 1915.6C53.7401 1923.56 47.0801 1936.73 53.1101 1943.53C58.1801 1949.24 70.2401 1948.28 77.7201 1942.86C89.6901 1934.19 85.8901 1917.03 85.7001 1916.26C84.1701 1909.85 79.2301 1899.76 72.4001 1899.63C65.9101 1899.51 61.3901 1908.44 57.7701 1915.59V1915.6Z" stroke="#FABEB3" stroke-opacity="0.5" stroke-miterlimit="10"/>
<path d="M4.97998 302.57C15.34 314.25 30.4 334.19 40.09 362.43C54.95 405.75 48.57 443.47 46.08 457.2C38.81 497.26 26.3 496.11 21.14 535.01C16.85 567.35 24.34 576.78 21.14 612.82C18.55 642.03 11 665.4 4.97998 680.66" stroke="#FABEB3" stroke-opacity="0.5" stroke-miterlimit="10"/>
<path d="M4.97998 2068.36C22.47 2076.48 48.64 2091.83 66.03 2120.24C91.85 2162.43 73.66 2193.22 100.95 2234.97C111.61 2251.28 113.07 2244.57 170.78 2291.83C217.24 2329.88 240.76 2349.42 254.58 2374.63C273.76 2409.61 263 2420.41 281.52 2444.46C304.73 2474.63 338.28 2479.26 379.29 2491.35C458.71 2514.76 463.56 2541.64 525.94 2558.19C556.7 2566.35 582.92 2569.11 600.26 2570.16" stroke="#FABEB3" stroke-opacity="0.5" stroke-miterlimit="10"/>
<path d="M600.26 2636.01C577.66 2652.97 544.1 2682.15 514.96 2726.79C499.52 2750.45 436.31 2847.32 461.09 2949.26C478.71 3021.74 520.7 3014.02 534.91 3078.95C552.79 3160.61 487.97 3180.12 472.06 3321.37C465.53 3379.31 457.88 3447.22 493.01 3503.94C503.11 3520.25 518.6 3538.62 533.91 3574.77C547.27 3606.33 547.55 3620.84 559.85 3654.58C567.24 3674.85 579.5 3703.49 600.25 3736.38" stroke="#FABEB3" stroke-opacity="0.5" stroke-miterlimit="10"/>
<path d="M4.97998 2427.51C24.54 2442.31 56.24 2470.39 79 2515.3C119.14 2594.49 103.51 2670.83 96.96 2702.85C78.9 2791.09 28.96 2848.3 4.97998 2872.45" stroke="#FABEB3" stroke-opacity="0.5" stroke-miterlimit="10"/>
<path d="M4.97973 3437.1C23.6897 3448.37 49.7297 3466.04 76.9997 3491.97C119.69 3532.56 154.8 3565.93 162.8 3614.68C170.94 3664.27 143.6 3684.55 160.8 3739.38C166.97 3759.04 175.43 3772.21 185.74 3788.26C225.46 3850.09 258.69 3852.64 273.53 3885.03C299.37 3941.41 240.9 4025.83 197.71 4066.6C124.13 4136.05 31.5597 4138.64 4.96973 4138.43" stroke="#FABEB3" stroke-opacity="0.5" stroke-miterlimit="10"/>
<path d="M600.26 4048.64C521.85 4087.2 489.16 4132.66 474.06 4168.35C444.02 4239.38 479.99 4280.34 443.13 4362.89C435.95 4378.97 401.29 4456.61 334.39 4472.63C294.13 4482.27 284.48 4459.48 226.65 4458.66C169.51 4457.85 84.1 4478.76 60.05 4532.48C42.74 4571.14 71.25 4595.41 54.06 4651.2C43.04 4686.96 20.66 4711.64 4.97998 4726.02" stroke="#FABEB3" stroke-opacity="0.5" stroke-miterlimit="10"/>
<path d="M4.97994 4812.82C31.5499 4835.93 70.4299 4873.9 106.93 4928.54C149.45 4992.19 199.2 5066.64 175.77 5128.06C156.72 5178.01 108.44 5169.08 82.9899 5228.82C70.9699 5257.02 80.1299 5262.79 78.9999 5356.52C77.5099 5479.91 61.1399 5512.16 42.0899 5532.1C27.4199 5547.46 11.0299 5555.65 0.189941 5560.03" stroke="#FABEB3" stroke-opacity="0.5" stroke-miterlimit="10"/>
<path d="M600.26 4764.94C586.29 4817.9 560.47 4895.77 509.98 4981.42C482.46 5028.1 476.78 5027.61 462.09 5058.24C425.97 5133.56 406.23 5249.32 455.11 5360.52C496.39 5454.44 568.57 5504.06 600.26 5523.13" stroke="#FABEB3" stroke-opacity="0.5" stroke-miterlimit="10"/>
<path d="M601.26 5587.98C560.6 5606.91 502.77 5638.85 445.13 5691.73C349.46 5779.51 340.51 5845.92 269.55 5889.26C222.19 5918.18 143.18 5939.28 5.97998 5897.24" stroke="#FABEB3" stroke-opacity="0.5" stroke-miterlimit="10"/>
<path d="M13.1201 2532.2C5.05007 2533.78 1.84007 2568.59 15.1201 2586.07C17.8301 2589.63 19.4601 2590.16 20.6101 2590.06C26.5301 2589.54 32.3001 2571.07 28.5901 2555.14C26.0901 2544.4 18.4301 2531.15 13.1301 2532.19L13.1201 2532.2Z" stroke="#FABEB3" stroke-opacity="0.5" stroke-miterlimit="10"/>
<path d="M42.0297 3421.69C40.6797 3430.11 47.1297 3431.07 64.4697 3462.83C73.6697 3479.69 76.5297 3487.99 83.9197 3489.01C91.1997 3490.02 98.8697 3483.4 102.62 3477.04C108.69 3466.74 103.76 3458.3 102.62 3438.14C101.02 3409.93 109.29 3402.23 103.37 3396.25C91.7097 3384.49 45.5097 3400.03 42.0297 3421.68V3421.69Z" stroke="#FABEB3" stroke-opacity="0.5" stroke-miterlimit="10"/>
<path d="M528.89 4128.2C520.69 4125.7 508.71 4137.01 506.76 4149.17C505.31 4158.19 509 4169.96 516.08 4171.89C524.38 4174.15 535.83 4162.43 537.63 4150.34C538.9 4141.8 535.78 4130.31 528.89 4128.21V4128.2Z" fill="#FABEB3" fill-opacity="0.5" stroke="#FABEB3" stroke-opacity="0.5" stroke-miterlimit="10"/>
<path d="M101.96 4077.04C98.9899 4082.5 102.86 4091.23 107.95 4095.5C117.56 4103.56 133.61 4097.43 143.86 4093.5C151.5 4090.58 163.24 4086.09 162.81 4081.53C161.93 4072.15 109.61 4062.94 101.95 4077.04H101.96Z" stroke="#FABEB3" stroke-opacity="0.5" stroke-miterlimit="10"/>
<path d="M136.56 5031.94C128.26 5032.7 117.66 5077.89 135.06 5089.8C139.32 5092.72 146.75 5094.66 151.02 5091.3C163.28 5081.62 145.56 5031.11 136.55 5031.94H136.56Z" stroke="#FABEB3" stroke-opacity="0.5" stroke-miterlimit="10"/>
<path d="M512.89 5657C475.62 5683.91 470.05 5685.92 470.21 5692.45C470.52 5705.54 493.41 5719.95 514.34 5717.77C538.24 5715.28 553.14 5691.85 555.57 5672.92C557.06 5661.37 554.96 5643.34 545.44 5639.64C539.35 5637.27 533.57 5642.07 512.89 5657Z" fill="#FABEB3" fill-opacity="0.5" stroke="#FABEB3" stroke-opacity="0.5" stroke-miterlimit="10"/>
<path d="M499.1 2872.53C490.33 2874.41 491.59 2907.36 491.69 2909.6C492.19 2920.99 493.06 2940.98 504.2 2945.28C511.05 2947.92 520.8 2944.25 525.51 2937.87C539.85 2918.44 510.35 2870.12 499.1 2872.54V2872.53Z" fill="#FABEB3" fill-opacity="0.5" stroke="#FABEB3" stroke-opacity="0.5" stroke-miterlimit="10"/>
</g>
<defs>
<clipPath id="clip0_643_2">
<rect width="601.47" height="5921.42" fill="white"/>
</clipPath>
</defs>
</svg>
