<!--?xml version="1.0" standalone="no"?-->
              <svg id="sw-js-blob-svg" viewBox="0 0 100 100" xmlns="http://www.w3.org/2000/svg" version="1.1">
                    <defs> 
                        <linearGradient id="sw-gradient" x1="0" x2="1" y1="1" y2="0">
                            <stop id="stop1" stop-color="rgba(27, 59, 111, 1)" offset="0%"></stop>
                            <stop id="stop2" stop-color="rgba(27, 59, 111, 1)" offset="100%"></stop>
                        </linearGradient>
                    </defs>
                <path fill="url(#sw-gradient)" d="M19,-28.7C26,-28.8,34,-26.5,36.4,-21.3C38.7,-16.2,35.5,-8.1,32.9,-1.5C30.3,5.1,28.3,10.1,26.2,15.8C24.1,21.5,21.9,27.8,17.5,29.9C13.1,32,6.5,30,-0.4,30.7C-7.4,31.5,-14.8,35,-21.3,34.1C-27.7,33.1,-33.2,27.7,-34.3,21.3C-35.4,14.9,-32.1,7.4,-32.5,-0.2C-32.9,-7.9,-37,-15.8,-34.9,-20.5C-32.8,-25.1,-24.5,-26.6,-17.6,-26.5C-10.8,-26.4,-5.4,-24.9,0.3,-25.4C6,-25.9,12,-28.5,19,-28.7Z" width="100%" height="100%" transform="translate(50 50)" stroke-width="0" style="transition: all 0.3s ease 0s;" stroke="url(#sw-gradient)"></path>
              </svg>