<!--?xml version="1.0" standalone="no"?-->
              <svg id="sw-js-blob-svg" viewBox="0 0 100 100" xmlns="http://www.w3.org/2000/svg" version="1.1">
                    <defs> 
                        <linearGradient id="sw-gradient" x1="0" x2="1" y1="1" y2="0">
                            <stop id="stop1" stop-color="rgba(27, 59, 111, 1)" offset="0%"></stop>
                            <stop id="stop2" stop-color="rgba(27, 59, 111, 1)" offset="100%"></stop>
                        </linearGradient>
                    </defs>
                <path fill="url(#sw-gradient)" d="M19.8,-34.5C24.4,-31.7,25.9,-23.8,26,-17.2C26.1,-10.6,24.8,-5.3,26.6,1.1C28.5,7.4,33.6,14.9,32.1,19C30.6,23.2,22.5,24,16,28C9.6,32,4.8,39.1,0.2,38.8C-4.4,38.5,-8.8,30.7,-15.9,27.1C-23,23.5,-32.7,24,-37.1,20.1C-41.5,16.3,-40.6,8.2,-39.1,0.9C-37.6,-6.4,-35.5,-12.9,-30.7,-15.9C-25.8,-19,-18.2,-18.7,-12.6,-20.9C-7.1,-23.1,-3.5,-27.7,2,-31.3C7.6,-34.8,15.2,-37.2,19.8,-34.5Z" width="100%" height="100%" transform="translate(50 50)" stroke-width="0" style="transition: all 0.3s ease 0s;" stroke="url(#sw-gradient)"></path>
              </svg>