<?xml version="1.0" encoding="UTF-8"?><svg id="Calque_2" xmlns="http://www.w3.org/2000/svg" viewBox="0 0 601.47 5921.42"><g id="Calque_1-2"><path d="m540.57.42c-1.63,3.39-5.16,11.95-2.66,21.82,2.93,11.55,12.33,17.78,16.63,20.62,10.87,7.19,16.81,4.74,29.93,11.97,7.47,4.12,12.72,8.86,15.8,11.97" style="fill:none; stroke:#f6989a; stroke-miterlimit:10;"/><path d="m501.33.42c15.73,10.06,22.25,20.6,25.27,28.47,2.89,7.5,1.9,10.75,5.99,19.29,2.62,5.49,8.32,17.4,19.95,23.28,10.81,5.47,16.27.42,32.59,5.99,6.67,2.28,11.8,5.18,15.13,7.32" style="fill:none; stroke:#f6989a; stroke-miterlimit:10;"/><path d="m4.98,123.99c24.69,7,38.27,18.3,46.08,27.27,8.24,9.46,8.62,14.66,21.95,33.92,6.11,8.83,15.5,22.4,26.6,33.25,14.11,13.79,26.41,18.7,59.86,33.25,62.69,27.28,56.05,25.93,64.51,28.6,40.67,12.83,59.86,1.6,125.04-2.66,42.95-2.81,95.54-6.25,149.64,9.98,45.47,13.64,79.24,37.33,101.59,56.53" style="fill:none; stroke:#f6989a; stroke-miterlimit:10;"/><path d="m600.26,648.08c-27.92,12.54-69.52,27.12-120.88,29.26-31.97,1.33-37.17-3.43-97.1-9.31-94.26-9.26-142.17-13.47-180.24,6.65-14.53,7.68-5.97,6.44-71.83,55.2-33.52,24.82-52.53,37.57-79.14,39.9-19.44,1.7-35.72-2.79-46.08-6.65" style="fill:none; stroke:#f6989a; stroke-miterlimit:10;"/><path d="m600.26,668.03c-12.05,4.57-20.52,10.41-25.77,14.63-24.48,19.65-44.18,56.16-36.58,79.81,1.17,3.64,4.53,11.78,3.33,22.61-.89,8-3.85,13.69-4.66,15.3-7.18,14.27-13.62,42.08-21.28,75.15-12,51.79,16.94,63.82,15.96,148.31-.39,33.43-4.99,38.27,0,56.53,10.42,38.11,42.93,62.56,69,77.32" style="fill:none; stroke:#f6989a; stroke-miterlimit:10;"/><path d="m4.98,863.57c9.89,86.47,37.05,129.56,61.38,152.97,5.25,5.06,17.83,16.37,37.24,35.91,33.54,33.77,50.49,51.05,59.86,70.5,16.13,33.52,4.09,45.29,17.29,69.17,17.18,31.07,46.71,24.88,94.44,50.55,58.59,31.5,45.7,55.4,103.75,89.12,20,11.62,66.77,35.06,129.03,34.58,40.25-.31,72.35-10.51,92.28-18.62" style="fill:none; stroke:#f6989a; stroke-miterlimit:10;"/><path d="m4.98,1278.58c22.24,15.71,62.84,49.48,78.67,102.42,4.68,15.64,8.76,29.94,3.99,46.56-7.88,27.47-30.55,28.63-47.89,62.52-4.66,9.1-15.15,29.61-11.97,54.54,1.66,13.01,10.44,29.24,27.93,61.19,8.34,15.22,10.41,18.01,17.29,30.59,14.57,26.64,19.01,39.25,26.6,54.54,24.78,49.9,40.72,45.55,58.53,87.79,7.41,17.57,16,37.95,13.3,63.85-3.79,36.46-27.53,60.54-43.9,77.15-42.62,43.25-94.06,58.17-122.57,63.85" style="fill:none; stroke:#f6989a; stroke-miterlimit:10;"/><path d="m600.26,1515.35c-14.53,12.09-33.51,31.97-44.39,61.19-21.08,56.58-2.94,124.35,44.39,176.91" style="fill:none; stroke:#f6989a; stroke-miterlimit:10;"/><path d="m150.5,198.82c-8.77,9.41-2.45,29.11,8.65,39.24,9.05,8.27,24.88,13.44,32.26,7.32,10.16-8.44,5.29-39.19-12.97-48.55-8.4-4.31-21.41-5-27.93,2Z" style="fill:#f6989a; stroke:#f6989a; stroke-miterlimit:10;"/><path d="m523.94,680.67c-6.54-.12-22.38.36-38.91,9.64-7.13,4-15.02,8.44-14.63,13.63.48,6.43,13.41,11.11,22.61,12.3,28.54,3.7,58.45-21.37,55.53-30.26-1.6-4.89-13.21-5.11-24.61-5.32Z" style="fill:none; stroke:#f6989a; stroke-miterlimit:10;"/><path d="m75.34,1044.13c-10.59,3.61-15.59,33.87-2,51.88,6.74,8.92,19.85,17.24,27.6,13.3,9.75-4.96,9.13-28.38.67-44.23-5.66-10.6-18.01-23.77-26.27-20.95Z" style="fill:none; stroke:#f6989a; stroke-miterlimit:10;"/><path d="m594.44,1267.94c-14.37,3.03-25.59,13.17-27.93,25.27-3.27,16.88,10.82,36.94,33.75,39.9" style="fill:none; stroke:#f6989a; stroke-miterlimit:10;"/><path d="m62.37,1492.73c-12.6,3.21-9.64,49.48-9.31,54.54.29,4.6,4.28,60.26,25.27,63.85,10.03,1.71,21.33-8.9,26.6-18.62,20.35-37.53-26.31-103.9-42.57-99.76Z" style="fill:#f6989a; stroke:#f6989a; stroke-miterlimit:10;"/><path d="m578.48,1863.85c-23.93-12.59-70.28,10.51-73.16,37.24-2.15,19.95,20.41,37.47,37.24,50.55,15.36,11.93,26.66,20.7,35.91,17.29,22.51-8.29,31.99-88.25,0-105.08Z" style="fill:none; stroke:#f6989a; stroke-miterlimit:10;"/><path d="m29.12,1883.8c-8.06,15.93-21.39,42.25-9.31,55.87,10.14,11.43,34.26,9.5,49.22-1.33,23.94-17.34,16.33-51.66,15.96-53.21-3.05-12.81-12.93-33-26.6-33.25-12.98-.24-22.02,17.61-29.26,31.92Z" style="fill:none; stroke:#f6989a; stroke-miterlimit:10;"/><path d="m4.98,302.57c10.36,11.68,25.42,31.62,35.11,59.86,14.86,43.32,8.48,81.04,5.99,94.77-7.27,40.06-19.78,38.91-24.94,77.81-4.29,32.34,3.2,41.77,0,77.81-2.59,29.21-10.14,52.58-16.16,67.84" style="fill:none; stroke:#f6989a; stroke-miterlimit:10;"/><path d="m4.98,2068.36c17.49,8.12,43.66,23.47,61.05,51.88,25.82,42.19,7.63,72.98,34.92,114.73,10.66,16.31,12.12,9.6,69.83,56.86,46.46,38.05,69.98,57.59,83.8,82.8,19.18,34.98,8.42,45.78,26.94,69.83,23.21,30.17,56.76,34.8,97.77,46.89,79.42,23.41,84.27,50.29,146.65,66.84,30.76,8.16,56.98,10.92,74.32,11.97" style="fill:none; stroke:#f6989a; stroke-miterlimit:10;"/><path d="m600.26,2636.01c-22.6,16.96-56.16,46.14-85.3,90.78-15.44,23.66-78.65,120.53-53.87,222.47,17.62,72.48,59.61,64.76,73.82,129.69,17.88,81.66-46.94,101.17-62.85,242.42-6.53,57.94-14.18,125.85,20.95,182.57,10.1,16.31,25.59,34.68,40.9,70.83,13.36,31.56,13.64,46.07,25.94,79.81,7.39,20.27,19.65,48.91,40.4,81.8" style="fill:none; stroke:#f6989a; stroke-miterlimit:10;"/><path d="m4.98,2427.51c19.56,14.8,51.26,42.88,74.02,87.79,40.14,79.19,24.51,155.53,17.96,187.55-18.06,88.24-68,145.45-91.98,169.6" style="fill:none; stroke:#f6989a; stroke-miterlimit:10;"/><path d="m4.98,3437.1c18.71,11.27,44.75,28.94,72.02,54.87,42.69,40.59,77.8,73.96,85.8,122.71,8.14,49.59-19.2,69.87-2,124.7,6.17,19.66,14.63,32.83,24.94,48.88,39.72,61.83,72.95,64.38,87.79,96.77,25.84,56.38-32.63,140.8-75.82,181.57-73.58,69.45-166.15,72.04-192.74,71.83" style="fill:none; stroke:#f6989a; stroke-miterlimit:10;"/><path d="m600.26,4048.64c-78.41,38.56-111.1,84.02-126.2,119.71-30.04,71.03,5.93,111.99-30.93,194.54-7.18,16.08-41.84,93.72-108.74,109.74-40.26,9.64-49.91-13.15-107.74-13.97-57.14-.81-142.55,20.1-166.6,73.82-17.31,38.66,11.2,62.93-5.99,118.72-11.02,35.76-33.4,60.44-49.08,74.82" style="fill:none; stroke:#f6989a; stroke-miterlimit:10;"/><path d="m4.98,4812.82c26.57,23.11,65.45,61.08,101.95,115.72,42.52,63.65,92.27,138.1,68.84,199.52-19.05,49.95-67.33,41.02-92.78,100.76-12.02,28.2-2.86,33.97-3.99,127.7-1.49,123.39-17.86,155.64-36.91,175.58-14.67,15.36-31.06,23.55-41.9,27.93" style="fill:none; stroke:#f6989a; stroke-miterlimit:10;"/><path d="m600.26,4764.94c-13.97,52.96-39.79,130.83-90.28,216.48-27.52,46.68-33.2,46.19-47.89,76.82-36.12,75.32-55.86,191.08-6.98,302.28,41.28,93.92,113.46,143.54,145.15,162.61" style="fill:none; stroke:#f6989a; stroke-miterlimit:10;"/><path d="m601.26,5587.98c-40.66,18.93-98.49,50.87-156.13,103.75-95.67,87.78-104.62,154.19-175.58,197.53-47.36,28.92-126.37,50.02-263.57,7.98" style="fill:none; stroke:#f6989a; stroke-miterlimit:10;"/><path d="m20.14,2532.26c-16.15,3.17-22.57,72.79,3.99,107.74,5.41,7.12,8.68,8.18,10.97,7.98,11.84-1.04,23.37-37.99,15.96-69.83-5-21.48-20.32-47.97-30.93-45.89Z" style="fill:none; stroke:#f6989a; stroke-miterlimit:10;"/><path d="m42.09,3399.19c-1.81,11.24,6.81,12.52,29.93,54.87,12.27,22.48,16.09,33.56,25.94,34.92,9.7,1.34,19.94-7.48,24.94-15.96,8.1-13.73,1.53-24.99,0-51.88-2.14-37.62,8.9-47.9,1-55.87-15.55-15.69-77.16,5.04-81.81,33.92Z" style="fill:none; stroke:#f6989a; stroke-miterlimit:10;"/><path d="m544.89,4128.45c-14.05-4.29-34.56,15.09-37.91,35.91-2.48,15.44,3.84,35.61,15.96,38.91,14.22,3.87,33.82-16.2,36.91-36.91,2.18-14.63-3.17-34.31-14.96-37.91Z" style="fill:#f6989a; stroke:#f6989a; stroke-miterlimit:10;"/><path d="m41.09,4054.63c-5.94,10.93,1.8,28.38,11.97,36.91,19.23,16.12,51.32,3.85,71.83-3.99,15.29-5.85,38.77-14.82,37.91-23.94-1.77-18.75-106.39-37.18-121.71-8.98Z" style="fill:none; stroke:#f6989a; stroke-miterlimit:10;"/><path d="m117.91,5001.37c-16.59,1.53-37.8,91.9-2.99,115.72,8.52,5.83,23.39,9.73,31.92,2.99,24.52-19.35-10.91-120.37-28.93-118.72Z" style="fill:none; stroke:#f6989a; stroke-miterlimit:10;"/><path d="m526.93,5653.82c-51.39,37.1-59.07,39.88-58.86,48.88.43,18.05,31.99,37.92,60.86,34.92,32.96-3.43,53.5-35.75,56.86-61.85,2.05-15.93-.85-40.79-13.97-45.89-8.39-3.26-16.36,3.35-44.89,23.94Z" style="fill:#f6989a; stroke:#f6989a; stroke-miterlimit:10;"/><path d="m501.99,2820.57c-18.88,4.06-16.17,75.01-15.96,79.81,1.07,24.52,2.95,67.56,26.94,76.82,14.75,5.69,35.74-2.22,45.89-15.96,30.88-41.83-32.64-145.87-56.86-140.66Z" style="fill:#f6989a; stroke:#f6989a; stroke-miterlimit:10;"/></g></svg>