<svg width="2000" height="1000" xmlns="http://www.w3.org/2000/svg">
 <g>
  <title>Layer 1</title>
  <polyline fill="none" stroke="#000" opacity="NaN" points="399,174 " id="svg_8" stroke-linecap="round"/>
  <polyline fill="none" stroke="#000" opacity="NaN" points="479,190 " id="svg_9" stroke-linecap="round"/>
  <polyline fill="none" stroke="#000" opacity="NaN" points="628,181 " id="svg_10" stroke-linecap="round"/>
  <polyline fill="none" stroke="#000" opacity="NaN" points="845,429 " id="svg_11" stroke-linecap="round"/>
  <polyline fill="none" stroke="#000" opacity="NaN" points="445,187 " id="svg_12" stroke-linecap="round"/>
  <polyline fill="none" stroke="#000" opacity="NaN" points="892,245 " id="svg_13" stroke-linecap="round"/>
  <polyline fill="none" stroke="#fff" opacity="NaN" points="512,323 " id="svg_14" stroke-linecap="round"/>
  <polyline fill="none" stroke="#fff" opacity="NaN" points="839,304 " id="svg_15" stroke-linecap="round"/>
  <polyline fill="none" stroke="#fff" opacity="NaN" points="1049,306 " id="svg_16" stroke-linecap="round"/>
  <polyline stroke-linecap="round" id="svg_7" points="582,268 583,268 583,268 " stroke="#000" fill="none"/>
  <path d="m1143,311c0,0 -1,0 -1,-1l0,0" id="svg_17" stroke="#000" fill="none"/>
  <polyline stroke-linecap="round" id="svg_18" points="362,275 362,275 " stroke="#000" fill="none"/>
  <polyline stroke-linecap="round" id="svg_38" points="-5.002327977137895,133.33185153884017 -5.002327977137895,133.33185153884017 -3.3356652099304256,133.33185153884017 -3.3356652099304256,134.99851430604764 -3.3356652099304256,134.99851430604764 -1.6690024427229562,133.33185153884017 4.997648626106923,129.99852600442523 13.33096246214427,126.66520047001029 23.330939065389146,124.99853770280282 33.33091566863396,121.66521216838787 38.33090397025643,118.3318866339729 41.66422950467137,114.99856109955795 43.33089227187878,113.33189833235048 46.66421780629372,109.99857279793554 49.99754334070877,104.99858449631313 53.33086887512371,101.66525896189819 56.664194409538645,98.33193342748325 59.997519943953584,93.33194512586078 63.33084547836852,88.33195682423838 68.330833779991,83.33196852261597 73.33082208161335,74.99865468657856 78.33081038323581,68.33200361774868 81.66413591765075,64.99867808333374 88.33078698648063,59.99868978171134 91.66411252089557,56.6653642472964 94.99743805531051,53.3320387128814 101.66408912414039,49.99871317846646 104.99741465855533,48.33205041125899 106.66407742576286,46.66538764405152 108.33074019297027,46.66538764405152 109.99740296017781,44.99872487684405 109.99740296017781,44.99872487684405 111.6640657273853,44.99872487684405 111.6640657273853,44.99872487684405 113.33072849459273,44.99872487684405 114.99739126180026,44.99872487684405 114.99739126180026,44.99872487684405 119.99737956342261,44.99872487684405 121.66404233063014,44.99872487684405 124.99736786504506,44.99872487684405 126.66403063225249,44.99872487684405 126.66403063225249,44.99872487684405 128.33069339946002,44.99872487684405 129.99735616666743,46.66538764405152 129.99735616666743,48.33205041125899 129.99735616666743,53.3320387128814 133.33068170108248,58.332027014503865 133.33068170108248,64.99867808333374 133.33068170108248,73.33199191937109 134.9973444682899,83.33196852261597 134.9973444682899,86.6652940570309 133.33068170108248,91.66528235865331 133.33068170108248,94.99860789306825 133.33068170108248,96.66527066027572 133.33068170108248,99.99859619469072 133.33068170108248,101.66525896189819 131.66401893387496,104.99858449631313 131.66401893387496,106.6652472635206 129.99735616666743,109.99857279793554 128.33069339946002,114.99856109955795 126.66403063225249,118.3318866339729 124.99736786504506,123.33187493559535 123.33070509783755,129.99852600442523 121.66404233063014,136.6651770732551 118.33071679621519,139.9985026076701 116.66405402900769,144.9984909092925 113.33072849459273,151.6651419781224 109.99740296017781,154.99846751253733 108.33074019297027,161.66511858136727 104.99741465855533,164.9984441157822 103.33075189134792,169.99843241740462 101.66408912414039,174.99842071902702 99.99742635693298,181.6650717878569 98.33076358972545,186.66506008947937 96.66410082251804,189.9983856238943 94.99743805531051,194.99837392551672 94.99743805531051,199.99836222713913 94.99743805531051,201.6650249943466 94.99743805531051,203.33168776155406 94.99743805531051,206.66501329596906 94.99743805531051,208.33167606317653 96.66410082251804,209.998338830384 96.66410082251804,214.9983271320064 98.33076358972545,218.33165266642132 101.66408912414039,223.33164096804373 103.33075189134792,226.66496650245875 104.99741465855533,231.6649548040812 106.66407742576286,233.33161757128863 109.99740296017781,234.9982803384961 111.6640657273853,236.6649431057036 113.33072849459273,238.33160587291104 114.99739126180026,238.33160587291104 114.99739126180026,238.33160587291104 116.66405402900769,239.9982686401185 118.33071679621519,239.9982686401185 121.66404233063014,239.9982686401185 131.66401893387496,243.33159417453345 139.99733276991236,246.6649197089484 148.33064660594965,248.33158247615592 149.99730937315718,249.99824524336339 153.33063490757212,249.99824524336339 154.99729767477965,251.66490801057083 158.33062320919458,251.66490801057083 159.997285976402,251.66490801057083 159.997285976402,251.66490801057083 163.33061151081694,251.66490801057083 164.99727427802446,251.66490801057083 169.99726257964682,251.66490801057083 173.33058811406175,251.66490801057083 174.99725088126928,249.99824524336339 179.99723918289175,248.33158247615592 186.66389025172163,244.99825694174095 189.99721578613656,243.33159417453345 194.99720408775892,241.66493140732595 196.66386685496644,241.66493140732595 199.99719238938138,239.9982686401185 203.33051792379632,236.6649431057036 204.99718069100385,234.9982803384961 206.66384345821126,234.9982803384961 208.3305062254188,231.6649548040812 209.9971689926262,229.9982920368737 211.66383175983373,228.3316292696662 211.66383175983373,226.66496650245875 211.66383175983373,223.33164096804373 211.66383175983373,221.66497820083632 211.66383175983373,219.99831543362882 213.33049452704114,214.9983271320064 213.33049452704114,211.66500159759147 213.33049452704114,209.998338830384 213.33049452704114,206.66501329596906 213.33049452704114,203.33168776155406 213.33049452704114,199.99836222713913 211.66383175983373,196.6650366927242 211.66383175983373,193.33171115830925 211.66383175983373,191.66504839110178 211.66383175983373,188.33172285668684 209.9971689926262,186.66506008947937 209.9971689926262,183.33173455506443 209.9971689926262,183.33173455506443 209.9971689926262,181.6650717878569 209.9971689926262,179.99840902064943 208.3305062254188,178.33174625344196 208.3305062254188,174.99842071902702 206.66384345821126,174.99842071902702 206.66384345821126,173.33175795181955 206.66384345821126,171.66509518461208 204.99718069100385,169.99843241740462 204.99718069100385,169.99843241740462 204.99718069100385,168.33176965019715 203.33051792379632,168.33176965019715 203.33051792379632,168.33176965019715 203.33051792379632,166.66510688298968 203.33051792379632,166.66510688298968 203.33051792379632,166.66510688298968 203.33051792379632,164.9984441157822 201.6638551565889,164.9984441157822 201.6638551565889,164.9984441157822 201.6638551565889,164.9984441157822 201.6638551565889,164.9984441157822 199.99719238938138,164.9984441157822 199.99719238938138,163.33178134857474 198.33052962217397,163.33178134857474 198.33052962217397,163.33178134857474 198.33052962217397,163.33178134857474 196.66386685496644,163.33178134857474 196.66386685496644,161.66511858136727 196.66386685496644,161.66511858136727 196.66386685496644,161.66511858136727 194.99720408775892,161.66511858136727 194.99720408775892,159.99845581415974 194.99720408775892,159.99845581415974 193.3305413205515,158.33179304695227 193.3305413205515,158.33179304695227 193.3305413205515,158.33179304695227 191.66387855334398,158.33179304695227 191.66387855334398,158.33179304695227 191.66387855334398,156.6651302797448 189.99721578613656,154.99846751253733 189.99721578613656,154.99846751253733 189.99721578613656,153.33180474532986 188.33055301892904,153.33180474532986 188.33055301892904,151.6651419781224 188.33055301892904,149.99847921091492 188.33055301892904,149.99847921091492 186.66389025172163,148.33181644370745 186.66389025172163,146.66515367649998 186.66389025172163,144.9984909092925 184.9972274845141,143.33182814208504 184.9972274845141,141.66516537487757 184.9972274845141,139.9985026076701 184.9972274845141,136.6651770732551 184.9972274845141,134.99851430604764 184.9972274845141,133.33185153884017 184.9972274845141,131.6651887716327 184.9972274845141,129.99852600442523 184.9972274845141,129.99852600442523 184.9972274845141,129.99852600442523 184.9972274845141,128.33186323721776 184.9972274845141,126.66520047001029 186.66389025172163,124.99853770280282 186.66389025172163,124.99853770280282 188.33055301892904,123.33187493559535 191.66387855334398,121.66521216838787 193.3305413205515,119.99854940118041 194.99720408775892,118.3318866339729 196.66386685496644,118.3318866339729 198.33052962217397,118.3318866339729 199.99719238938138,116.66522386676542 201.6638551565889,116.66522386676542 203.33051792379632,116.66522386676542 204.99718069100385,114.99856109955795 206.66384345821126,114.99856109955795 206.66384345821126,114.99856109955795 208.3305062254188,114.99856109955795 209.9971689926262,114.99856109955795 211.66383175983373,114.99856109955795 216.66382006145608,114.99856109955795 218.33048282866363,114.99856109955795 221.66380836307854,116.66522386676542 221.66380836307854,116.66522386676542 223.33047113028607,116.66522386676542 224.99713389749348,118.3318866339729 228.3304594319084,118.3318866339729 229.99712219911595,119.99854940118041 233.33044773353086,121.66521216838787 234.9971105007383,121.66521216838787 236.66377326794583,121.66521216838787 238.33043603515324,123.33187493559535 239.99709880236077,124.99853770280282 241.6637615695683,124.99853770280282 243.3304243367757,124.99853770280282 244.99708710398323,126.66520047001029 244.99708710398323,128.33186323721776 246.66374987119067,128.33186323721776 249.99707540560559,131.6651887716327 251.66373817281314,131.6651887716327 251.66373817281314,133.33185153884017 253.33040094002052,134.99851430604764 254.99706370722805,136.6651770732551 256.66372647443546,136.6651770732551 258.330389241643,138.33183984046258 258.330389241643,139.9985026076701 259.9970520088505,143.33182814208504 261.66371477605793,146.66515367649998 264.99704031047287,151.6651419781224 268.3303658448878,158.33179304695227 269.99702861209533,163.33178134857474 273.3303541465103,164.9984441157822 274.9970169137177,169.99843241740462 276.6636796809252,171.66509518461208 276.6636796809252,174.99842071902702 278.3303424481326,174.99842071902702 279.99700521534015,176.6650834862345 279.99700521534015,176.6650834862345 281.6636679825477,178.33174625344196 281.6636679825477,178.33174625344196 283.3303307497551,178.33174625344196 283.3303307497551,179.99840902064943 284.9969935169626,179.99840902064943 284.9969935169626,179.99840902064943 288.33031905137756,181.6650717878569 289.99698181858497,181.6650717878569 293.3303073529999,183.33173455506443 298.3302956546224,184.9983973222719 301.6636211890373,186.66506008947937 306.6636094906598,188.33172285668684 309.9969350250747,188.33172285668684 313.33026055948966,189.9983856238943 314.9969233266971,189.9983856238943 316.6635860939046,189.9983856238943 318.330248861112,189.9983856238943 319.99691162831954,189.9983856238943 321.66357439552695,189.9983856238943 323.3302371627345,188.33172285668684 328.33022546435694,188.33172285668684 331.6635509987719,186.66506008947937 336.66353930039423,184.9983973222719 338.33020206760176,184.9983973222719 339.9968648348092,184.9983973222719 343.3301903692241,184.9983973222719 346.66351590363917,183.33173455506443 348.3301786708466,183.33173455506443 349.9968414380541,181.6650717878569 353.33016697246904,181.6650717878569 354.99682973967646,181.6650717878569 358.3301552740914,179.99840902064943 359.9968180412989,179.99840902064943 361.66348080850634,179.99840902064943 364.9968063429213,178.33174625344196 366.6634691101288,178.33174625344196 368.3301318773363,178.33174625344196 369.99679464454374,178.33174625344196 373.3301201789587,176.6650834862345 374.9967829461662,174.99842071902702 378.33010848058115,174.99842071902702 379.99677124778856,174.99842071902702 381.6634340149961,173.33175795181955 384.996759549411,171.66509518461208 386.66342231661844,169.99843241740462 388.33008508382596,169.99843241740462 389.9967478510335,168.33176965019715 391.6634106182409,166.66510688298968 393.33007338544843,164.9984441157822 394.99673615265584,163.33178134857474 398.3300616870708,161.66511858136727 399.9967244542783,159.99845581415974 401.6633872214857,158.33179304695227 403.33004998869325,156.6651302797448 404.99671275590066,156.6651302797448 406.6633755231082,154.99846751253733 408.3300382903156,153.33180474532986 408.3300382903156,151.6651419781224 409.9967010575231,149.99847921091492 411.66336382473065,148.33181644370745 413.33002659193806,148.33181644370745 416.663352126353,144.9984909092925 418.33001489356053,144.9984909092925 418.33001489356053,143.33182814208504 421.66334042797547,141.66516537487757 423.3300031951829,139.9985026076701 424.9966659623904,138.33183984046258 426.6633287295978,138.33183984046258 428.3299914968053,138.33183984046258 428.3299914968053,136.6651770732551 429.9966542640128,136.6651770732551 431.6633170312203,136.6651770732551 431.6633170312203,136.6651770732551 433.32997979842776,136.6651770732551 434.9966425656353,136.6651770732551 436.66330533284275,136.6651770732551 436.66330533284275,136.6651770732551 438.32996810005017,136.6651770732551 439.99663086725775,138.33183984046258 441.6632936344651,138.33183984046258 443.32995640167263,139.9985026076701 443.32995640167263,141.66516537487757 444.99661916888,141.66516537487757 446.66328193608757,143.33182814208504 446.66328193608757,144.9984909092925 448.329944703295,146.66515367649998 449.99660747050257,148.33181644370745 449.99660747050257,151.6651419781224 449.99660747050257,151.6651419781224 451.6632702377099,154.99846751253733 451.6632702377099,156.6651302797448 453.32993300491745,158.33179304695227 453.32993300491745,159.99845581415974 453.32993300491745,161.66511858136727 453.32993300491745,164.9984441157822 453.32993300491745,166.66510688298968 453.32993300491745,169.99843241740462 453.32993300491745,171.66509518461208 453.32993300491745,173.33175795181955 453.32993300491745,174.99842071902702 451.6632702377099,176.6650834862345 451.6632702377099,179.99840902064943 449.99660747050257,181.6650717878569 448.329944703295,183.33173455506443 446.66328193608757,184.9983973222719 444.99661916888,188.33172285668684 443.32995640167263,189.9983856238943 441.6632936344651,191.66504839110178 438.32996810005017,194.99837392551672 436.66330533284275,198.33169945993166 433.32997979842776,199.99836222713913 431.6633170312203,201.6650249943466 428.3299914968053,203.33168776155406 426.6633287295978,204.9983505287616 424.9966659623904,206.66501329596906 421.66334042797547,209.998338830384 419.99667766076794,209.998338830384 418.33001489356053,211.66500159759147 416.663352126353,213.33166436479894 416.663352126353,214.9983271320064 413.33002659193806,216.66498989921388 411.66336382473065,218.33165266642132 409.9967010575231,219.99831543362882 406.6633755231082,221.66497820083632 404.99671275590066,221.66497820083632 403.33004998869325,223.33164096804373 399.9967244542783,224.99830373525123 396.66339891986337,226.66496650245875 394.99673615265584,228.3316292696662 391.6634106182409,229.9982920368737 389.9967478510335,231.6649548040812 386.66342231661844,231.6649548040812 383.3300967822035,233.33161757128863 381.6634340149961,234.9982803384961 378.33010848058115,236.6649431057036 376.6634457133736,236.6649431057036 373.3301201789587,238.33160587291104 369.99679464454374,239.9982686401185 368.3301318773363,239.9982686401185 363.33014357571386,241.66493140732595 359.9968180412989,243.33159417453345 349.9968414380541,244.99825694174095 343.3301903692241,246.6649197089484 328.33022546435694,249.99824524336339 318.330248861112,253.33157077777832 314.9969233266971,253.33157077777832 309.9969350250747,254.99823354498582 306.6636094906598,256.66489631219326 303.33028395624484,258.33155907940073 298.3302956546224,258.33155907940073 294.99697012020744,259.9982218466082 291.6636445857925,261.6648846138157 288.33031905137756,263.33154738102314 286.66365628417003,264.9982101482306 283.3303307497551,264.9982101482306 279.99700521534015,266.6648729154381 278.3303424481326,268.3315356826456 274.9970169137177,268.3315356826456 273.3303541465103,269.9981984498531 269.99702861209533,269.9981984498531 268.3303658448878,271.66486121706055 264.99704031047287,273.331523984268 263.33037754326546,273.331523984268 259.9970520088505,274.9981867514755 258.330389241643,276.66484951868296 254.99706370722805,276.66484951868296 249.99707540560559,279.9981750530979 244.99708710398323,281.6648378203054 241.6637615695683,281.6648378203054 233.33044773353086,286.6648261219278 224.99713389749348,288.3314888891353 218.33048282866363,289.9981516563427 213.33049452704114,291.66481442355024 209.9971689926262,291.66481442355024 208.3305062254188,293.33147719075765 206.66384345821126,294.9981399579652 204.99718069100385,294.9981399579652 203.33051792379632,294.9981399579652 199.99719238938138,296.6648027251726 198.33052962217397,298.3314654923801 196.66386685496644,299.99812825958753 193.3305413205515,301.66479102679506 191.66387855334398,303.3314537940026 189.99721578613656,303.3314537940026 188.33055301892904,304.99811656121 186.66389025172163,306.6647793284175 184.9972274845141,306.6647793284175 181.66390195009916,308.33144209562494 179.99723918289175,309.99810486283246 178.33057641568422,309.99810486283246 171.66392534685434,313.3314303972474 168.3305998124394,316.66475593166234 164.99727427802446,318.33141869886975 161.66394874360952,319.9980814660773 159.997285976402,319.9980814660773 156.66396044198706,323.3314070004922 153.33063490757212,324.99806976769975 151.6639721403646,326.66473253490716 148.33064660594965,328.3313953021147 146.66398383874224,329.9980580693221 144.9973210715347,331.6647208365296 141.66399553711977,333.33138360373704 139.99733276991236,334.99804637094456 138.33067000270484,336.664709138152 134.9973444682899,338.3313719053595 133.33068170108248,339.9980346725669 129.99735616666743,341.66469743977444 129.99735616666743,343.33136020698197 126.66403063225249,344.9980229741894 124.99736786504506,346.6646857413969 123.33070509783755,348.3313485086043 123.33070509783755,348.3313485086043 121.66404233063014,349.99801127581185 121.66404233063014,351.66467404301926 119.99737956342261,353.3313368102268 119.99737956342261,354.9979995774342 119.99737956342261,356.6646623446417 118.33071679621519,358.33132511184914 118.33071679621519,359.99798787905667 116.66405402900769,361.6646506462641 116.66405402900769,363.3313134134716 116.66405402900769,364.99797618067913 114.99739126180026,366.66463894788654 113.33072849459273,368.33130171509407 111.6640657273853,369.9979644823015 111.6640657273853,373.3312900167164 111.6640657273853,374.99795278392395 111.6640657273853,374.99795278392395 111.6640657273853,376.66461555113136 109.99740296017781,376.66461555113136 109.99740296017781,378.3312783183389 111.6640657273853,378.3312783183389 111.6640657273853,378.3312783183389 111.6640657273853,379.9979410855463 111.6640657273853,379.9979410855463 111.6640657273853,381.6646038527538 113.33072849459273,383.33126661996124 113.33072849459273,384.99792938716877 114.99739126180026,386.6645921543763 114.99739126180026,388.3312549215837 116.66405402900769,389.99791768879123 116.66405402900769,391.66458045599865 116.66405402900769,393.3312432232062 118.33071679621519,394.9979059904136 118.33071679621519,396.6645687576211 119.99737956342261,398.3312315248285 119.99737956342261,399.99789429203605 121.66404233063014,401.66455705924346 121.66404233063014,403.331219826451 123.33070509783755,403.331219826451 123.33070509783755,404.9978825936584 123.33070509783755,404.9978825936584 124.99736786504506,406.66454536086593 124.99736786504506,406.66454536086593 126.66403063225249,408.33120812807346 126.66403063225249,409.99787089528087 128.33069339946002,411.6645336624884 129.99735616666743,413.3311964296958 129.99735616666743,413.3311964296958 131.66401893387496,414.99785919690333 133.33068170108248,416.66452196411075 133.33068170108248,416.66452196411075 134.9973444682899,418.3311847313183 134.9973444682899,419.9978474985257 136.66400723549742,419.9978474985257 138.33067000270484,421.6645102657332 138.33067000270484,421.6645102657332 139.99733276991236,423.3311730329406 141.66399553711977,424.99783580014815 141.66399553711977,426.66449856735557 143.3306583043273,428.3311613345631 143.3306583043273,428.3311613345631 144.9973210715347,428.3311613345631 146.66398383874224,429.9978241017706 146.66398383874224,431.664486868978 148.33064660594965,431.664486868978 149.99730937315718,433.33114963618556 149.99730937315718,434.99781240339297 151.6639721403646,434.99781240339297 151.6639721403646,434.99781240339297 153.33063490757212,436.66447517060044 156.66396044198706,438.33113793780797 159.997285976402,441.66446347222285 161.66394874360952,443.33112623943043 163.33061151081694,443.33112623943043 166.66393704523188,446.66445177384526 168.3305998124394,448.3311145410528 169.99726257964682,449.99777730826025 174.99725088126928,453.33110284267525 178.33057641568422,453.33110284267525 179.99723918289175,454.9977656098827 181.66390195009916,456.66442837709013 181.66390195009916,456.66442837709013 183.3305647173067,458.3310911442977 184.9972274845141,458.3310911442977 184.9972274845141,459.9977539115051 186.66389025172163,459.9977539115051 188.33055301892904,461.6644166787126 189.99721578613656,463.33107944591995 193.3305413205515,464.99774221312754 194.99720408775892,466.66440498033495 198.33052962217397,468.3310677475424 199.99719238938138,469.9977305147499 201.6638551565889,471.6643932819574 204.99718069100385,473.331056049165 206.66384345821126,474.99771881637236 208.3305062254188,474.99771881637236 211.66383175983373,476.6643815835799 213.33049452704114,478.33104435078724 214.99715729424864,478.33104435078724 216.66382006145608,479.9977071179948 218.33048282866363,481.66436988520223 219.9971455958711,481.66436988520223 219.9971455958711,483.3310326524097 221.66380836307854,484.99769541961723 223.33047113028607,484.99769541961723 226.663796664701,486.6643581868247 228.3304594319084,486.6643581868247 229.99712219911595,488.3310209540321 229.99712219911595,488.3310209540321 231.6637849663234,489.9976837212397 233.33044773353086,489.9976837212397 233.33044773353086,489.9976837212397 236.66377326794583,491.66434648844705 238.33043603515324,491.66434648844705 238.33043603515324,493.3310092556546 241.6637615695683,493.3310092556546 243.3304243367757,494.9976720228621 246.66374987119067,496.6643347900695 248.33041263839814,496.6643347900695 249.99707540560559,496.6643347900695 251.66373817281314,498.330997557277 254.99706370722805,499.9976603244845 256.66372647443546,499.9976603244845 259.9970520088505,501.664323091692 261.66371477605793,501.664323091692 263.33037754326546,503.3309858588994 264.99704031047287,504.997648626107 268.3303658448878,504.997648626107 269.99702861209533,506.66431139331434 273.3303541465103,508.33097416052186 274.9970169137177,508.33097416052186 276.6636796809252,508.33097416052186 276.6636796809252,508.33097416052186 278.3303424481326,509.9976369277292 281.6636679825477,511.6642996949368 283.3303307497551,511.6642996949368 284.9969935169626,513.3309624621443 286.66365628417003,513.3309624621443 288.33031905137756,514.9976252293518 291.6636445857925,516.6642879965593 293.3303073529999,518.3309507637666 294.99697012020744,519.9976135309741 296.66363288741485,521.6642762981817 298.3302956546224,523.3309390653892 299.9969584218298,523.3309390653892 299.9969584218298,524.9976018325965 301.6636211890373,526.664264599804 303.33028395624484,528.3309273670116 304.99694672345225,529.9975901342191 306.6636094906598,531.6642529014264 308.3302722578672,533.3309156686339 308.3302722578672,534.9975784358414 309.9969350250747,536.664241203049 309.9969350250747,538.3309039702565 309.9969350250747,539.9975667374638 311.66359779228213,543.3308922718788 311.66359779228213,544.9975550390864 311.66359779228213,546.6642178062937 311.66359779228213,548.3308805735012 311.66359779228213,551.6642061079162 309.9969350250747,551.6642061079162 309.9969350250747,554.9975316423311 308.3302722578672,558.3308571767461 306.6636094906598,559.9975199439536 304.99694672345225,564.997508245576 303.33028395624484,568.3308337799908 301.6636211890373,571.6641593144059 299.9969584218298,573.3308220816134 296.66363288741485,576.6641476160282 294.99697012020744,578.3308103832358 293.3303073529999,581.6641359176508 289.99698181858497,583.3307986848581 288.33031905137756,586.6641242192732 283.3303307497551,589.997449753688 281.6636679825477,593.330775288103 278.3303424481326,594.9974380553106 269.99702861209533,603.330751891348 264.99704031047287,606.6640774257628 256.66372647443546,613.3307284945927 249.99707540560559,619.9973795634226 241.6637615695683,626.6640306322524 236.66377326794583,631.664018933875 229.99712219911595,636.6640072354974 226.663796664701,638.3306700027049 224.99713389749348,641.6639955371197 221.66380836307854,643.3306583043272 221.66380836307854,646.6639838387423 218.33048282866363,648.3306466059496 218.33048282866363,649.9973093731571 216.66382006145608,651.6639721403646 214.99715729424864,653.3306349075722 214.99715729424864,654.9972976747795 213.33049452704114,656.663960441987 211.66383175983373,658.3306232091945 211.66383175983373,659.997285976402 209.9971689926262,663.3306115108169 208.3305062254188,664.9972742780244 206.66384345821126,668.3305998124395 206.66384345821126,669.9972625796468 204.99718069100385,671.6639253468543 204.99718069100385,671.6639253468543 204.99718069100385,673.3305881140618 204.99718069100385,673.3305881140618 204.99718069100385,674.9972508812693 204.99718069100385,674.9972508812693 204.99718069100385,674.9972508812693 204.99718069100385,676.6639136484766 204.99718069100385,676.6639136484766 206.66384345821126,678.3305764156842 206.66384345821126,678.3305764156842 206.66384345821126,678.3305764156842 208.3305062254188,679.9972391828917 208.3305062254188,681.6639019500992 209.9971689926262,683.3305647173065 211.66383175983373,684.997227484514 213.33049452704114,686.6638902517216 214.99715729424864,686.6638902517216 214.99715729424864,688.3305530189291 219.9971455958711,689.9972157861366 223.33047113028607,691.6638785533439 226.663796664701,694.997204087759 234.9971105007383,698.3305296221738 238.33043603515324,698.3305296221738 243.3304243367757,699.9971923893813 244.99708710398323,701.6638551565889 248.33041263839814,701.6638551565889 249.99707540560559,701.6638551565889 251.66373817281314,703.3305179237964 254.99706370722805,703.3305179237964 259.9970520088505,703.3305179237964 261.66371477605793,703.3305179237964 264.99704031047287,703.3305179237964 268.3303658448878,701.6638551565889 269.99702861209533,701.6638551565889 273.3303541465103,699.9971923893813 274.9970169137177,699.9971923893813 278.3303424481326,698.3305296221738 279.99700521534015,696.6638668549665 281.6636679825477,696.6638668549665 283.3303307497551,694.997204087759 284.9969935169626,693.3305413205514 286.66365628417003,691.6638785533439 289.99698181858497,688.3305530189291 293.3303073529999,686.6638902517216 294.99697012020744,684.997227484514 296.66363288741485,681.6639019500992 298.3302956546224,678.3305764156842 299.9969584218298,673.3305881140618 303.33028395624484,668.3305998124395 306.6636094906598,661.6639487436094 313.33026055948966,648.3306466059496 316.6635860939046,639.9973327699122 321.66357439552695,629.9973561666675 323.3302371627345,626.6640306322524 326.6635626971494,616.6640540290077 331.6635509987719,609.9974029601779 334.9968765331868,603.330751891348 336.66353930039423,593.330775288103 339.9968648348092,589.997449753688 341.6635276020167,583.3307986848581 344.99685313643164,579.9974731504433 348.3301786708466,573.3308220816134 351.6635042052615,566.6641710127835 353.33016697246904,563.3308454783685 356.663492506884,558.3308571767461 358.3301552740914,556.6641944095386 361.66348080850634,551.6642061079162 366.6634691101288,544.9975550390864 368.3301318773363,541.6642295046713 371.66345741175127,538.3309039702565 376.6634457133736,534.9975784358414 378.33010848058115,533.3309156686339 388.33008508382596,526.664264599804 394.99673615265584,523.3309390653892 398.3300616870708,519.9976135309741 399.9967244542783,518.3309507637666 403.33004998869325,516.6642879965593 409.9967010575231,513.3309624621443 411.66336382473065,513.3309624621443 419.99667766076794,511.6642996949368 424.9966659623904,508.33097416052186 431.6633170312203,506.66431139331434 434.9966425656353,506.66431139331434 438.32996810005017,506.66431139331434 439.99663086725775,504.997648626107 443.32995640167263,504.997648626107 444.99661916888,504.997648626107 446.66328193608757,506.66431139331434 448.329944703295,506.66431139331434 449.99660747050257,506.66431139331434 453.32993300491745,508.33097416052186 454.99659577212503,509.9976369277292 456.6632585393324,511.6642996949368 458.3299213065399,511.6642996949368 459.9965840737473,514.9976252293518 461.66324684095486,516.6642879965593 463.32990960816227,518.3309507637666 466.66323514257726,524.9976018325965 468.32989790978473,529.9975901342191 469.9965606769921,533.3309156686339 469.9965606769921,539.9975667374638 471.6632234441997,544.9975550390864 471.6632234441997,558.3308571767461 471.6632234441997,563.3308454783685 471.6632234441997,573.3308220816134 471.6632234441997,583.3307986848581 469.9965606769921,589.997449753688 469.9965606769921,596.6641008225179 466.66323514257726,604.9974146585553 464.99657237536974,611.6640657273852 461.66324684095486,621.6640423306301 459.9965840737473,629.9973561666675 458.3299213065399,636.6640072354974 456.6632585393324,641.6639955371197 456.6632585393324,644.9973210715348 454.99659577212503,646.6639838387423 454.99659577212503,649.9973093731571 453.32993300491745,653.3306349075722 451.6632702377099,654.9972976747795 451.6632702377099,656.663960441987 449.99660747050257,659.997285976402 448.329944703295,663.3306115108169 446.66328193608757,664.9972742780244 444.99661916888,668.3305998124395 444.99661916888,671.6639253468543 441.6632936344651,674.9972508812693 441.6632936344651,676.6639136484766 439.99663086725775,679.9972391828917 438.32996810005017,681.6639019500992 436.66330533284275,683.3305647173065 433.32997979842776,686.6638902517216 429.9966542640128,689.9972157861366 426.6633287295978,693.3305413205514 421.66334042797547,698.3305296221738 413.33002659193806,704.9971806910037 409.9967010575231,708.3305062254187 401.6633872214857,714.9971572942486 393.33007338544843,721.6638083630785 388.33008508382596,723.330471130286 383.3300967822035,726.6637966647008 381.6634340149961,729.9971221991159 378.33010848058115,731.6637849663234 373.3301201789587,733.330447733531 369.99679464454374,734.9971105007382 368.3301318773363,736.6637732679458 363.33014357571386,738.3304360351533 359.9968180412989,739.9970988023608 358.3301552740914,741.6637615695681 354.99682973967646,743.3304243367756 346.66351590363917,748.3304126383982 343.3301903692241,749.9970754056055 338.33020206760176,751.663738172813 329.99688823156436,756.6637264744354 324.996899929942,758.3303892416429 319.99691162831954,761.663714776058 314.9969233266971,764.9970403104728 309.9969350250747,766.6637030776803 304.99694672345225,769.9970286120954 303.33028395624484,771.6636913793027 299.9969584218298,774.9970169137177 296.66363288741485,778.3303424481326 296.66363288741485,779.9970052153401 293.3303073529999,781.6636679825476 293.3303073529999,784.9969935169624 291.6636445857925,786.66365628417 289.99698181858497,786.66365628417 289.99698181858497,788.3303190513775 288.33031905137756,789.996981818585 286.66365628417003,791.6636445857923 286.66365628417003,793.3303073529999 286.66365628417003,794.9969701202074 284.9969935169626,796.6636328874149 284.9969935169626,801.6636211890373 284.9969935169626,803.3302839562448 284.9969935169626,804.9969467234521 284.9969935169626,808.3302722578671 284.9969935169626,811.663597792282 284.9969935169626,816.6635860939045 284.9969935169626,818.3302488611121 284.9969935169626,821.6635743955269 284.9969935169626,821.6635743955269 284.9969935169626,823.3302371627344 284.9969935169626,824.996899929942 286.66365628417003,824.996899929942 286.66365628417003,826.6635626971492 286.66365628417003,828.3302254643568 286.66365628417003,829.9968882315643 288.33031905137756,831.6635509987718 289.99698181858497,833.3302137659791 291.6636445857925,834.9968765331867 293.3303073529999,836.6635393003942 293.3303073529999,839.9968648348092 296.66363288741485,841.6635276020165 298.3302956546224,843.330190369224 299.9969584218298,844.9968531364316 303.33028395624484,848.3301786708464 306.6636094906598,848.3301786708464 313.33026055948966,851.6635042052615 318.330248861112,854.9968297396764 323.3302371627345,856.6634925068838 328.33022546435694,858.3301552740915 333.3302137659793,859.9968180412989 339.9968648348092,861.6634808085064 343.3301903692241,863.3301435757136 346.66351590363917,864.9968063429212 349.9968414380541,864.9968063429212 351.6635042052615,866.6634691101287 356.663492506884,866.6634691101287 358.3301552740914,866.6634691101287 363.33014357571386,866.6634691101287 364.9968063429213,866.6634691101287 371.66345741175127,866.6634691101287 374.9967829461662,864.9968063429212 378.33010848058115,864.9968063429212 383.3300967822035,863.3301435757136 388.33008508382596,861.6634808085064 389.9967478510335,859.9968180412989 394.99673615265584,858.3301552740915 396.66339891986337,858.3301552740915 401.6633872214857,854.9968297396764 403.33004998869325,853.330166972469 406.6633755231082,849.9968414380539 409.9967010575231,848.3301786708464 411.66336382473065,846.6635159036391 414.9966893591456,843.330190369224 416.663352126353,841.6635276020165 418.33001489356053,839.9968648348092 421.66334042797547,836.6635393003942 423.3300031951829,833.3302137659791 424.9966659623904,831.6635509987718 426.6633287295978,828.3302254643568 429.9966542640128,824.996899929942 429.9966542640128,823.3302371627344 429.9966542640128,818.3302488611121 431.6633170312203,816.6635860939045 431.6633170312203,811.663597792282 431.6633170312203,808.3302722578671 431.6633170312203,806.6636094906596 431.6633170312203,804.9969467234521 429.9966542640128,803.3302839562448 429.9966542640128,803.3302839562448 429.9966542640128,801.6636211890373 428.3299914968053,799.9969584218297 428.3299914968053,799.9969584218297 428.3299914968053,798.3302956546222 426.6633287295978,798.3302956546222 426.6633287295978,798.3302956546222 426.6633287295978,798.3302956546222 424.9966659623904,798.3302956546222 424.9966659623904,796.6636328874149 421.66334042797547,796.6636328874149 419.99667766076794,794.9969701202074 418.33001489356053,794.9969701202074 414.9966893591456,793.3303073529999 411.66336382473065,791.6636445857923 408.3300382903156,791.6636445857923 406.6633755231082,789.996981818585 404.99671275590066,789.996981818585 403.33004998869325,788.3303190513775 399.9967244542783,788.3303190513775 399.9967244542783,788.3303190513775 398.3300616870708,786.66365628417 396.66339891986337,786.66365628417 393.33007338544843,784.9969935169624 391.6634106182409,784.9969935169624 386.66342231661844,784.9969935169624 383.3300967822035,784.9969935169624 379.99677124778856,784.9969935169624 378.33010848058115,784.9969935169624 373.3301201789587,784.9969935169624 368.3301318773363,784.9969935169624 361.66348080850634,784.9969935169624 353.33016697246904,784.9969935169624 346.66351590363917,784.9969935169624 338.33020206760176,784.9969935169624 334.9968765331868,784.9969935169624 329.99688823156436,784.9969935169624 324.996899929942,784.9969935169624 316.6635860939046,788.3303190513775 306.6636094906598,788.3303190513775 301.6636211890373,791.6636445857923 291.6636445857925,793.3303073529999 283.3303307497551,794.9969701202074 274.9970169137177,798.3302956546222 269.99702861209533,799.9969584218297 264.99704031047287,801.6636211890373 261.66371477605793,804.9969467234521 259.9970520088505,806.6636094906596 258.330389241643,808.3302722578671 254.99706370722805,811.663597792282 254.99706370722805,813.3302605594895 253.33040094002052,814.996923326697 251.66373817281314,818.3302488611121 251.66373817281314,821.6635743955269 251.66373817281314,823.3302371627344 251.66373817281314,826.6635626971492 249.99707540560559,828.3302254643568 249.99707540560559,829.9968882315643 249.99707540560559,831.6635509987718 249.99707540560559,833.3302137659791 251.66373817281314,834.9968765331867 251.66373817281314,836.6635393003942 251.66373817281314,839.9968648348092 251.66373817281314,841.6635276020165 253.33040094002052,843.330190369224 253.33040094002052,844.9968531364316 254.99706370722805,846.6635159036391 256.66372647443546,848.3301786708464 256.66372647443546,849.9968414380539 258.330389241643,851.6635042052615 259.9970520088505,851.6635042052615 259.9970520088505,854.9968297396764 263.33037754326546,856.6634925068838 264.99704031047287,858.3301552740915 266.6637030776804,859.9968180412989 269.99702861209533,861.6634808085064 271.66369137930275,863.3301435757136 273.3303541465103,864.9968063429212 274.9970169137177,866.6634691101287 278.3303424481326,866.6634691101287 279.99700521534015,868.3301318773364 289.99698181858497,871.6634574117511 294.99697012020744,874.9967829461661 301.6636211890373,876.6634457133737 308.3302722578672,878.3301084805809 316.6635860939046,881.663434014996 323.3302371627345,883.3300967822037 329.99688823156436,884.9967595494109 334.9968765331868,886.6634223166184 336.66353930039423,886.6634223166184 341.6635276020167,886.6634223166184 344.99685313643164,888.3300850838258 348.3301786708466,888.3300850838258 351.6635042052615,888.3300850838258 356.663492506884,891.6634106182407 364.9968063429213,891.6634106182407 366.6634691101288,893.3300733854481 369.99679464454374,893.3300733854481 373.3301201789587,894.9967361526558 376.6634457133736,894.9967361526558 379.99677124778856,894.9967361526558 381.6634340149961,896.6633989198633 386.66342231661844,898.330061687071 389.9967478510335,898.330061687071 396.66339891986337,899.9967244542781 403.33004998869325,901.6633872214857 411.66336382473065,906.6633755231081 428.3299914968053,911.6633638247306 449.99660747050257,916.663352126353 463.32990960816227,921.6633404279754 478.32987451302955,924.9966659623904 494.9965021851043,928.3299914968052 514.996455391594,931.6633170312203 523.3297692276315,933.3299797984276 528.3297575292538,933.3299797984276 529.9964202964613,933.3299797984276 531.6630830636686,934.996642565635 533.3297458308762,934.996642565635 533.3297458308762,934.996642565635 536.6630713652912,936.6633053328427 539.996396899706,936.6633053328427 541.6630596669136,936.6633053328427 543.3297224341211,936.6633053328427 544.9963852013284,936.6633053328427 546.6630479685359,936.6633053328427 548.3297107357434,936.6633053328427 549.996373502951,936.6633053328427 553.3296990373658,934.996642565635 554.9963618045733,933.3299797984276 556.6630245717809,931.6633170312203 559.9963501061957,929.9966542640127 561.6630128734032,928.3299914968052 564.9963384078183,926.6633287295979 566.6630011750256,924.9966659623904 569.9963267094406,923.3300031951827 571.6629894766481,919.996677660768 574.996315011063,916.663352126353 578.329640545478,913.3300265919379 579.9963033126853,909.9967010575231 583.3296288471004,908.3300382903154 584.9962916143079,904.9967127559007 588.3296171487227,903.3300499886931 591.6629426831378,896.6633989198633 594.9962682175526,893.3300733854481 598.3295937519676,883.3300967822037 601.6629192863827,874.9967829461661 604.9962448207975,868.3301318773364 606.662907588005,858.3301552740915 608.3295703552126,851.6635042052615 609.9962331224199,841.6635276020165 611.6628958896274,834.9968765331867 609.9962331224199,828.3302254643568 609.9962331224199,823.3302371627344 609.9962331224199,816.6635860939045 609.9962331224199,808.3302722578671 609.9962331224199,801.6636211890373 608.3295703552126,791.6636445857923 606.662907588005,786.66365628417 603.32958205359,773.3303541465102 601.6629192863827,763.3303775432653 598.3295937519676,758.3303892416429 596.6629309847601,748.3304126383982 594.9962682175526,743.3304243367756 591.6629426831378,736.6637732679458 589.9962799159302,731.6637849663234 588.3296171487227,726.6637966647008 586.6629543815154,716.6638200614561 584.9962916143079,708.3305062254187 583.3296288471004,698.3305296221738 578.329640545478,686.6638902517216 574.996315011063,669.9972625796468 569.9963267094406,651.6639721403646 563.3296756406107,634.9973444682898 559.9963501061957,614.9973912618002 554.9963618045733,603.330751891348 549.996373502951,589.997449753688 548.3297107357434,581.6641359176508 543.3297224341211,568.3308337799908 541.6630596669136,563.3308454783685 539.996396899706,556.6641944095386 539.996396899706,549.9975433407087 538.3297341324985,544.9975550390864 538.3297341324985,539.9975667374638 538.3297341324985,534.9975784358414 538.3297341324985,529.9975901342191 538.3297341324985,516.6642879965593 539.996396899706,508.33097416052186 539.996396899706,501.664323091692 541.6630596669136,493.3310092556546 543.3297224341211,483.3310326524097 544.9963852013284,478.33104435078724 546.6630479685359,473.331056049165 548.3297107357434,468.3310677475424 548.3297107357434,464.99774221312754 551.6630362701583,459.9977539115051 553.3296990373658,456.66442837709013 554.9963618045733,453.33110284267525 556.6630245717809,448.3311145410528 558.3296873389882,446.66445177384526 561.6630128734032,443.33112623943043 564.9963384078183,439.99780070501544 568.3296639422331,434.99781240339297 569.9963267094406,433.33114963618556 571.6629894766481,431.664486868978 573.3296522438554,429.9978241017706 574.996315011063,428.3311613345631 576.6629777782705,426.66449856735557 578.329640545478,424.99783580014815 581.6629660798928,423.3311730329406 583.3296288471004,423.3311730329406 586.6629543815154,421.6645102657332 588.3296171487227,421.6645102657332 591.6629426831378,421.6645102657332 593.3296054503453,419.9978474985257 596.6629309847601,419.9978474985257 599.9962565191752,419.9978474985257 603.32958205359,419.9978474985257 606.662907588005,419.9978474985257 616.6628841912498,419.9978474985257 621.6628724928723,421.6645102657332 626.6628607944947,421.6645102657332 631.662849096117,421.6645102657332 634.9961746305321,421.6645102657332 638.3295001649469,421.6645102657332 646.6628140009843,421.6645102657332 649.9961395353994,419.9978474985257 654.9961278370217,418.3311847313183 659.9961161386441,416.66452196411075 663.3294416730591,414.99785919690333 664.9961044402667,414.99785919690333 668.3294299746815,413.3311964296958 669.996092741889,411.6645336624884 673.3294182763041,408.33120812807346 674.9960810435114,406.66454536086593 678.3294065779264,401.66455705924346 683.3293948795488,393.3312432232062 686.6627204139638,379.9979410855463 688.3293831811714,363.3313134134716 688.3293831811714,348.3313485086043 686.6627204139638,338.3313719053595 686.6627204139638,326.66473253490716 683.3293948795488,313.3314303972474 679.996069345134,303.3314537940026 674.9960810435114,291.66481442355024 669.996092741889,278.3315122858904 666.6627672074742,269.9981984498531 663.3294416730591,259.9982218466082 656.6627906042293,248.33158247615592 654.9961278370217,238.33160587291104 651.6628023026069,233.33161757128863 648.3294767681919,223.33164096804373 644.996151233777,216.66498989921388 643.3294884665695,213.33166436479894 639.9961629321544,203.33168776155406 638.3295001649469,198.33169945993166 636.6628373977396,191.66504839110178 636.6628373977396,186.66506008947937 634.9961746305321,181.6650717878569 633.3295118633246,178.33174625344196 633.3295118633246,174.99842071902702 633.3295118633246,171.66509518461208 633.3295118633246,169.99843241740462 633.3295118633246,166.66510688298968 633.3295118633246,164.9984441157822 633.3295118633246,161.66511858136727 633.3295118633246,159.99845581415974 634.9961746305321,158.33179304695227 634.9961746305321,156.6651302797448 636.6628373977396,154.99846751253733 636.6628373977396,153.33180474532986 638.3295001649469,149.99847921091492 638.3295001649469,148.33181644370745 639.9961629321544,146.66515367649998 639.9961629321544,144.9984909092925 639.9961629321544,143.33182814208504 641.662825699362,143.33182814208504 641.662825699362,141.66516537487757 641.662825699362,139.9985026076701 643.3294884665695,138.33183984046258 643.3294884665695,136.6651770732551 644.996151233777,134.99851430604764 644.996151233777,133.33185153884017 648.3294767681919,131.6651887716327 649.9961395353994,128.33186323721776 651.6628023026069,124.99853770280282 654.9961278370217,124.99853770280282 656.6627906042293,123.33187493559535 658.3294533714368,121.66521216838787 659.9961161386441,119.99854940118041 659.9961161386441,119.99854940118041 661.6627789058516,118.3318866339729 663.3294416730591,118.3318866339729 664.9961044402667,118.3318866339729 666.6627672074742,118.3318866339729 668.3294299746815,116.66522386676542 669.996092741889,116.66522386676542 671.6627555090965,116.66522386676542 673.3294182763041,116.66522386676542 674.9960810435114,118.3318866339729 676.6627438107189,118.3318866339729 678.3294065779264,119.99854940118041 683.3293948795488,123.33187493559535 684.9960576467563,124.99853770280282 693.3293714827937,131.6651887716327 706.6626736204535,148.33181644370745 724.9959640597356,168.33176965019715 734.9959406629805,179.99840902064943 749.9959055678478,194.99837392551672 761.6625449383,213.33166436479894 768.3291960071299,224.99830373525123 774.99584707596,241.66493140732595 783.3291609119972,258.33155907940073 789.995811980827,276.66484951868296 798.3291258168645,296.6648027251726 803.329114118487,311.6647676300399 808.3291024201094,328.3313953021147 811.6624279545242,344.9980229741894 814.9957534889393,363.3313134134716 814.9957534889393,383.33126661996124 814.9957534889393,401.66455705924346 814.9957534889393,421.6645102657332 813.3290907217317,443.33112623943043 813.3290907217317,466.66440498033495 806.6624396529019,493.3310092556546 801.6624513512795,511.6642996949368 793.3291375152421,538.3309039702565 789.995811980827,556.6641944095386 779.9958353775824,574.9974848488207 776.6625098431673,589.997449753688 766.6625332399226,604.9974146585553 763.3292077055075,611.6640657273852 759.9958821710927,619.9973795634226 756.6625566366777,623.3307050978376 754.9958938694701,626.6640306322524 753.3292311022628,628.33069339946 753.3292311022628,631.664018933875 751.6625683350553,633.3306817010823 749.9959055678478,638.3306700027049 746.6625800334327,644.9973210715348 743.3292544990179,656.663960441987 738.3292661973956,663.3306115108169 734.9959406629805,669.9972625796468 734.9959406629805,676.6639136484766 733.329277895773,679.9972391828917 729.9959523613581,686.6638902517216 728.3292895941506,689.9972157861366 726.6626268269431,696.6638668549665 724.9959640597356,701.6638551565889 721.6626385253207,706.6638434582112 721.6626385253207,714.9971572942486 719.9959757581132,718.3304828286637 718.3293129909057,724.9971338974935 714.9959874564909,733.330447733531 713.3293246892833,739.9970988023608 709.9959991548685,749.9970754056055 708.329336387661,758.3303892416429 706.6626736204535,771.6636913793027 704.9960108532459,779.9970052153401 699.9960225516236,793.3303073529999 698.329359784416,809.9969350250747 694.9960342500012,821.6635743955269 689.9960459483787,838.3302020676017 688.3293831811714,853.330166972469 684.9960576467563,863.3301435757136 684.9960576467563,874.9967829461661 684.9960576467563,881.663434014996 684.9960576467563,884.9967595494109 684.9960576467563,886.6634223166184 684.9960576467563,888.3300850838258 684.9960576467563,889.9967478510334 686.6627204139638,891.6634106182407 686.6627204139638,891.6634106182407 688.3293831811714,893.3300733854481 688.3293831811714,894.9967361526558 691.6627087155862,896.6633989198633 693.3293714827937,898.330061687071 701.6626853188311,901.6633872214857 708.329336387661,903.3300499886931 714.9959874564909,904.9967127559007 726.6626268269431,906.6633755231081 729.9959523613581,906.6633755231081 738.3292661973956,906.6633755231081 743.3292544990179,906.6633755231081 746.6625800334327,906.6633755231081 748.3292428006403,906.6633755231081 749.9959055678478,906.6633755231081 753.3292311022628,904.9967127559007 759.9958821710927,903.3300499886931 763.3292077055075,903.3300499886931 766.6625332399226,901.6633872214857 771.662521541545,898.330061687071 774.99584707596,894.9967361526558 779.9958353775824,893.3300733854481 788.3291492136198,888.3300850838258 789.995811980827,886.6634223166184 793.3291375152421,884.9967595494109 796.6624630496572,881.663434014996 798.3291258168645,878.3301084805809 801.6624513512795,874.9967829461661 804.9957768856943,866.6634691101287 804.9957768856943,864.9968063429212 806.6624396529019,859.9968180412989 806.6624396529019,856.6634925068838 808.3291024201094,851.6635042052615 808.3291024201094,846.6635159036391 808.3291024201094,834.9968765331867 808.3291024201094,821.6635743955269 804.9957768856943,808.3302722578671 803.329114118487,796.6636328874149 799.995788584072,779.9970052153401 796.6624630496572,768.3303658448879 794.9958002824496,754.9970637072281 793.3291375152421,751.663738172813 793.3291375152421,746.6637498711907 793.3291375152421,741.6637615695681 793.3291375152421,739.9970988023608 793.3291375152421,736.6637732679458 796.6624630496572,731.6637849663234 799.995788584072,726.6637966647008 808.3291024201094,719.997145595871 816.6624162561468,714.9971572942486 826.6623928593915,713.3304945270411 829.9957183938066,711.6638317598338 831.6623811610141,711.6638317598338 831.6623811610141,711.6638317598338 833.3290439282214,711.6638317598338 834.9957066954289,714.9971572942486 838.329032229844,721.6638083630785 844.9956832986738,734.9971105007382 848.3290088330887,746.6637498711907 858.3289854363336,773.3303541465102 864.9956365051634,803.3302839562448 871.6622875739934,834.9968765331867 881.6622641772383,858.3301552740915 894.9955663148979,883.3300967822037 909.9955312197652,898.330061687071 921.6621705902176,911.6633638247306 934.9954727278773,918.3300148935604 939.9954610294998,921.6633404279754 946.6621120983298,921.6633404279754 948.3287748655374,921.6633404279754 951.6621003999521,921.6633404279754 953.3287631671598,919.996677660768 956.6620887015745,909.9967010575231 963.3287397704042,898.330061687071 969.9953908392345,868.3301318773364 969.9953908392345,843.330190369224 969.9953908392345,813.3302605594895 968.328728072027,783.3303307497551 961.662077003197,754.9970637072281 948.3287748655374,718.3304828286637 929.995484426255,683.3305647173065 916.6621822885952,646.6639838387423 898.328891849313,609.9974029601779 " opacity="NaN" stroke-width="5" stroke="#000" fill="none"/>
 </g>

</svg>